<svg width="27" height="36" viewBox="0 0 27 36" fill="none" xmlns="http://www.w3.org/2000/svg"><path d="M24.264 0H2.748C1.265 0 .058 1.42.058 3.164v29.672C.059 34.58 1.266 36 2.749 36h21.516c1.483 0 2.69-1.42 2.69-3.164V3.164C26.953 1.42 25.746 0 24.263 0zm.896 32.836c0 .582-.402 1.055-.896 1.055H2.748c-.495 0-.896-.473-.896-1.055V3.164c0-.582.401-1.055.896-1.055h21.516c.494 0 .896.473.896 1.055v29.672zM8.127 17.016H4.541c-.496 0-.896.471-.896 1.054v4.22c0 .582.4 1.054.896 1.054h3.586c.495 0 .896-.472.896-1.055V18.07c0-.583-.4-1.054-.896-1.054zm-.897 4.218H5.437v-2.109H7.23v2.11zm.897 4.22H4.541c-.496 0-.896.47-.896 1.054v4.219c0 .582.4 1.054.896 1.054h3.586c.495 0 .896-.471.896-1.054v-4.22c0-.582-.4-1.054-.896-1.054zm-.897 4.218H5.437v-2.11H7.23v2.11zM22.47 4.219H4.542c-.496 0-.896.471-.896 1.054v8.579c0 .582.4 1.054.896 1.054h17.93c.495 0 .896-.472.896-1.054V5.273c0-.583-.4-1.054-.896-1.054zm-.896 8.578H5.437V6.328h16.137v6.469zm.897 12.656H11.713c-.496 0-.897.472-.897 1.055v4.219c0 .582.401 1.054.897 1.054H22.47c.495 0 .896-.471.896-1.054v-4.22c0-.582-.4-1.054-.896-1.054zm-.897 4.219H12.61v-2.11h8.965v2.11zm-9.861-6.328h3.586c.495 0 .896-.472.896-1.055V18.07c0-.583-.4-1.054-.896-1.054h-3.586c-.496 0-.897.471-.897 1.054v4.22c0 .582.401 1.054.897 1.054zm.896-4.219h1.793v2.11H12.61v-2.11zm9.862-2.11h-3.586c-.496 0-.897.472-.897 1.055v4.22c0 .582.401 1.054.897 1.054h3.586c.495 0 .896-.472.896-1.055V18.07c0-.583-.4-1.054-.896-1.054zm-.897 4.22h-1.793v-2.11h1.793v2.11z" fill="url(#paint0_linear)"/><defs><linearGradient id="paint0_linear" x1="13.506" y1="0" x2="13.506" y2="36" gradientUnits="userSpaceOnUse"><stop stop-color="#121773"/><stop offset="1" stop-color="#0D1038"/></linearGradient></defs></svg>