<svg width="40" height="40" viewBox="0 0 40 40" fill="none" xmlns="http://www.w3.org/2000/svg"><g clip-path="url(#clip0)" fill="#191E74"><path d="M39.803 20.523l-4.332-6.381 4.332-6.382A1.174 1.174 0 0039.2 6L25.06 1.312a1.165 1.165 0 00-1.347.46L20 7.343l-3.712-5.57a1.165 1.165 0 00-1.346-.46L.802 5.999A1.17 1.17 0 00.196 7.76l4.332 6.382-4.332 6.38A1.174 1.174 0 00.8 22.284l14.14 4.687a1.171 1.171 0 001.347-.46L20 20.94l3.712 5.57a1.17 1.17 0 001.346.46l14.14-4.687a1.17 1.17 0 00.605-1.761zM20 17.594L9.642 14.142 20 10.689l10.358 3.453L20 17.594z"/><path d="M25.8 29.195a3.513 3.513 0 01-4.038-1.385L20 25.167l-1.762 2.643a3.512 3.512 0 01-4.044 1.383L4.766 26.05v6.841c0 .505.322.953.8 1.112l14.056 4.685a1.077 1.077 0 00.128.036h.002a1.219 1.219 0 00.51-.003c.039-.01.077-.02.114-.032l14.057-4.686a1.17 1.17 0 00.801-1.112v-6.84L25.8 29.194z"/></g><defs><clipPath id="clip0"><path fill="#fff" d="M0 0h40v40H0z"/></clipPath></defs></svg>