<svg width="34" height="34" viewBox="0 0 34 34" fill="none" xmlns="http://www.w3.org/2000/svg"><path d="M12.95 0H2.987A2.992 2.992 0 000 2.988v9.961a2.992 2.992 0 002.988 2.989h9.961a2.992 2.992 0 002.989-2.989V2.99A2.992 2.992 0 0012.948 0zm18.062 0H21.05a2.992 2.992 0 00-2.988 2.988v9.961a2.992 2.992 0 002.988 2.989h9.96a2.992 2.992 0 002.99-2.99V2.99A2.992 2.992 0 0031.012 0zM12.949 18.063H2.99A2.992 2.992 0 000 21.05v9.96A2.992 2.992 0 002.988 34h9.961a2.992 2.992 0 002.989-2.988V21.05a2.992 2.992 0 00-2.989-2.988zm18.063 0H21.05a2.992 2.992 0 00-2.988 2.988v9.96A2.992 2.992 0 0021.05 34h9.96A2.992 2.992 0 0034 31.012V21.05a2.992 2.992 0 00-2.988-2.988z" fill="url(#paint0_linear)"/><path d="M23.043 8.965h5.977a.996.996 0 100-1.992h-5.977a.996.996 0 100 1.992zM10.957 6.973H8.965V4.98a.996.996 0 10-1.992 0v1.993H4.98a.996.996 0 100 1.992h1.993v1.992a.996.996 0 101.992 0V8.965h1.992a.996.996 0 100-1.992zm-.171 16.241a.996.996 0 00-1.409 0L7.97 24.623l-1.41-1.409a.996.996 0 10-1.408 1.409L6.56 26.03l-1.408 1.41a.996.996 0 101.408 1.408l1.41-1.408 1.408 1.408a.996.996 0 101.409-1.408l-1.41-1.41 1.409-1.408a.996.996 0 000-1.409zm18.233-.171h-5.976a.995.995 0 100 1.992h5.977a.996.996 0 100-1.992zm0 3.984h-5.976a.996.996 0 100 1.992h5.977a.995.995 0 100-1.992z" fill="#FDFDFD"/><defs><linearGradient id="paint0_linear" x1="17" y1="0" x2="17" y2="34" gradientUnits="userSpaceOnUse"><stop stop-color="#121773"/><stop offset="1" stop-color="#0D1038"/></linearGradient></defs></svg>