<svg width="383" height="63" viewBox="0 0 383 63" fill="none" xmlns="http://www.w3.org/2000/svg"><path d="M117.475 24.983h-5.901V36.93h5.901V24.983zm32.721 0h-5.901V36.93h5.901V24.983zm42.913 0h-5.901V36.93h5.901V24.983zm-64.906-8.147h-5.9v28.242h5.9V16.836zm32.721 0h-5.9v28.242h5.9V16.836zm21.457 0h-5.901v28.242h5.901V16.836zM139.468 0h-5.901v61.914h5.901V0zm32.184 0h-5.9v61.914h5.9V0z" fill="#255E66"/><path d="M3.241 49.966V11.74h9.776c2.507 0 4.771.438 6.794 1.313 2.04.858 3.777 2.065 5.212 3.623 1.452 1.54 2.567 3.387 3.345 5.54.795 2.152 1.192 4.515 1.192 7.088v3.15c0 2.573-.397 4.936-1.192 7.089-.778 2.135-1.876 3.982-3.294 5.54-1.417 1.54-3.12 2.739-5.108 3.596-1.988.858-4.183 1.287-6.586 1.287H3.24zm7.338-32.24v26.306h2.8c1.367 0 2.585-.262 3.657-.787a7.393 7.393 0 002.749-2.284c.76-.998 1.34-2.206 1.737-3.623.398-1.436.596-3.063.596-4.884v-3.203c0-1.715-.198-3.272-.596-4.673-.38-1.417-.96-2.634-1.737-3.649a7.823 7.823 0 00-2.853-2.363c-1.123-.56-2.428-.84-3.915-.84h-2.438zm37.375-5.986l3.579 14.361 4.07-14.36h9.05v38.225h-6.69V38.65l.311-17.878-4.952 16.592h-3.605L45.284 21.48l.311 17.17v11.315h-6.69V11.74h9.05zm46.269 28.25a5.04 5.04 0 00-.363-1.917c-.225-.595-.622-1.147-1.193-1.654-.553-.525-1.288-.998-2.204-1.418-.899-.438-2.022-.84-3.37-1.208a32.21 32.21 0 01-4.72-1.706c-1.487-.683-2.8-1.505-3.942-2.468a11.591 11.591 0 01-2.748-3.36c-.674-1.278-1.012-2.748-1.012-4.411 0-1.61.338-3.072 1.012-4.384a10.016 10.016 0 012.8-3.36c1.193-.928 2.602-1.637 4.227-2.127 1.625-.508 3.388-.762 5.29-.762 1.97 0 3.768.29 5.394.867 1.641.577 3.05 1.391 4.226 2.441a10.917 10.917 0 012.748 3.702c.658 1.435.986 3.01.986 4.726h-7.105a7.37 7.37 0 00-.467-2.363 4.689 4.689 0 00-1.193-1.838c-.518-.525-1.175-.927-1.97-1.208-.778-.297-1.694-.446-2.749-.446-.968 0-1.832.123-2.593.368-.743.227-1.374.56-1.893.997-.518.42-.916.928-1.192 1.523a4.557 4.557 0 00-.39 1.89c0 .718.173 1.365.519 1.943.363.578.882 1.103 1.556 1.575.674.455 1.486.875 2.437 1.26.968.386 2.058.744 3.268 1.077a28.033 28.033 0 014.77 1.864c1.453.735 2.698 1.61 3.735 2.625a10.547 10.547 0 012.437 3.44c.588 1.277.882 2.703.882 4.279 0 1.68-.338 3.176-1.012 4.49a9.67 9.67 0 01-2.748 3.307c-1.176.893-2.576 1.575-4.201 2.048-1.625.455-3.397.682-5.315.682-1.193 0-2.386-.113-3.579-.34a16.147 16.147 0 01-3.397-.999 15.016 15.016 0 01-3.008-1.706 11.762 11.762 0 01-2.437-2.39 11.388 11.388 0 01-1.608-3.097c-.38-1.155-.57-2.433-.57-3.833h7.156c.035 1.155.234 2.144.597 2.967.363.822.864 1.496 1.504 2.021.657.525 1.434.91 2.333 1.155.917.245 1.92.368 3.009.368.967 0 1.823-.114 2.566-.341.761-.228 1.401-.543 1.92-.946a4.13 4.13 0 001.192-1.444 4.316 4.316 0 00.415-1.89zm116.121-5.117h-4.464l-.878 3.144h-3.024l4.873-15.058h2.605l4.78 15.058h-3.024l-.868-3.144zm-3.759-2.472h3.085l-1.522-5.543-1.563 5.543zm20.382-9.442l.011 9.98c0 .841-.116 1.59-.347 2.245a4.477 4.477 0 01-.991 1.665c-.429.448-.957.79-1.584 1.024-.619.234-1.328.351-2.124.351-.75 0-1.427-.117-2.033-.351a4.25 4.25 0 01-1.543-1.024c-.429-.449-.762-1-1.001-1.655-.231-.662-.347-1.414-.347-2.255l.01-9.98h2.87l.011 9.98c.007.972.18 1.707.521 2.203.347.497.851.745 1.512.745.701 0 1.235-.248 1.603-.745.375-.496.565-1.23.572-2.203l.01-9.98h2.85zm15.051 2.368h-4.587v12.69h-2.88v-12.69h-4.525V22.96h11.992v2.368zm13.477 6.268c0 .965-.126 1.855-.378 2.668-.252.814-.616 1.514-1.093 2.1a5.04 5.04 0 01-1.747 1.375c-.681.324-1.45.486-2.308.486-.858 0-1.621-.162-2.288-.486a4.82 4.82 0 01-1.686-1.376c-.456-.592-.803-1.292-1.042-2.099a9.473 9.473 0 01-.357-2.668v-2.193c0-.965.119-1.855.357-2.668.239-.814.586-1.514 1.042-2.1a4.799 4.799 0 011.675-1.386c.668-.33 1.43-.496 2.289-.496.864 0 1.637.166 2.318.497a4.99 4.99 0 011.747 1.385c.477.586.841 1.286 1.093 2.1.252.813.378 1.703.378 2.668v2.193zm-2.911-2.213c0-.614-.052-1.18-.153-1.697a4.275 4.275 0 00-.46-1.334 2.39 2.39 0 00-.817-.869c-.327-.213-.725-.32-1.195-.32-.464 0-.852.107-1.165.32a2.24 2.24 0 00-.756.87 4.41 4.41 0 00-.408 1.333 10.857 10.857 0 00-.123 1.697v2.213c0 .607.041 1.168.123 1.686.081.517.217.965.408 1.344.191.38.443.676.756.89.313.213.705.32 1.175.32.463 0 .858-.107 1.185-.32.333-.214.602-.507.807-.88.211-.379.368-.827.47-1.344a8.856 8.856 0 00.153-1.696v-2.213zm16.786 6.877a4.026 4.026 0 01-.755.693 6 6 0 01-1.145.641 8.047 8.047 0 01-1.47.455 8.355 8.355 0 01-1.758.176c-.844 0-1.607-.151-2.287-.455a4.823 4.823 0 01-1.747-1.313c-.484-.573-.858-1.273-1.124-2.1-.259-.834-.388-1.779-.388-2.834v-2.047c0-1.055.136-1.997.409-2.824.279-.834.66-1.54 1.144-2.12a4.974 4.974 0 011.716-1.324 5.075 5.075 0 012.145-.455c.837 0 1.566.107 2.186.32a4.267 4.267 0 011.583.931c.429.4.763.89 1.001 1.47.245.578.405 1.23.48 1.954h-2.799c-.095-.773-.326-1.352-.694-1.738-.361-.393-.923-.59-1.686-.59a1.91 1.91 0 00-1.021.29 2.487 2.487 0 00-.818.828c-.231.365-.415.82-.551 1.365-.136.538-.204 1.162-.204 1.872v2.068c.007 1.407.238 2.486.694 3.238.457.744 1.155 1.12 2.094 1.127a4.24 4.24 0 001.277-.197 3.04 3.04 0 00.501-.207c.15-.082.262-.168.337-.258l.01-2.73h-2.461v-2.172h5.321l.01 5.936zm8.85-3.868h-2.175v5.626h-2.871V22.96h4.985c.824 0 1.57.1 2.237.3.667.193 1.236.479 1.706.858.477.38.841.852 1.093 1.417.258.566.388 1.22.388 1.965 0 .538-.065 1.024-.194 1.459A3.891 3.891 0 01282 31.005a5.471 5.471 0 01-1.104.661l3.198 6.216v.134h-3.075l-2.799-5.626zm-2.175-2.358h2.124c.811 0 1.434-.207 1.87-.62.442-.421.664-.993.664-1.717 0-.752-.215-1.335-.644-1.748-.429-.42-1.063-.631-1.9-.631h-2.114v4.716zm21.536 1.562c0 .965-.125 1.855-.378 2.668-.252.814-.616 1.514-1.093 2.1a5.037 5.037 0 01-1.746 1.375c-.682.324-1.451.486-2.309.486-.858 0-1.621-.162-2.288-.486a4.828 4.828 0 01-1.686-1.376c-.456-.592-.803-1.292-1.042-2.099a9.473 9.473 0 01-.357-2.668v-2.193c0-.965.119-1.855.357-2.668.239-.814.586-1.514 1.042-2.1a4.817 4.817 0 011.675-1.386c.668-.33 1.431-.496 2.289-.496.864 0 1.637.166 2.319.497.687.33 1.27.792 1.746 1.385.477.586.841 1.286 1.093 2.1.253.813.378 1.703.378 2.668v2.193zm-2.911-2.213c0-.614-.051-1.18-.153-1.697a4.25 4.25 0 00-.46-1.334 2.373 2.373 0 00-.817-.869c-.327-.213-.725-.32-1.195-.32-.463 0-.852.107-1.165.32a2.24 2.24 0 00-.756.87c-.19.372-.326.816-.408 1.333a10.857 10.857 0 00-.123 1.697v2.213c0 .607.041 1.168.123 1.686.082.517.218.965.408 1.344.191.38.443.676.756.89.313.213.705.32 1.175.32.463 0 .858-.107 1.185-.32.334-.214.603-.507.807-.88.211-.379.368-.827.47-1.344a8.777 8.777 0 00.153-1.696v-2.213zm16.47-6.423l.01 9.98c0 .841-.116 1.59-.347 2.245a4.464 4.464 0 01-.991 1.665c-.429.448-.957.79-1.583 1.024-.62.234-1.328.351-2.125.351-.749 0-1.427-.117-2.032-.351a4.243 4.243 0 01-1.543-1.024c-.429-.449-.763-1-1.001-1.655-.232-.662-.348-1.414-.348-2.255l.011-9.98h2.87l.011 9.98c.006.972.18 1.707.521 2.203.347.497.851.745 1.511.745.702 0 1.236-.248 1.604-.745.374-.496.565-1.23.572-2.203l.01-9.98h2.85zm7.175 9.536v5.522h-2.871V22.96h5.088c.81 0 1.542.12 2.196.362a4.743 4.743 0 011.665.993c.463.42.817.927 1.062 1.52.252.593.378 1.252.378 1.976 0 .675-.126 1.3-.378 1.871a4.25 4.25 0 01-1.062 1.49 4.918 4.918 0 01-1.665.972c-.654.234-1.386.352-2.196.352h-2.217zm0-2.358h2.217c.408 0 .762-.063 1.062-.187a2.08 2.08 0 00.745-.506c.205-.214.354-.459.45-.735a2.57 2.57 0 00.153-.879c0-.351-.051-.679-.153-.982a2.133 2.133 0 00-.45-.797 2.064 2.064 0 00-.745-.537c-.3-.132-.654-.197-1.062-.197h-2.217v4.82zm28.078 5.533h6.966v2.347h-9.847V22.96h2.881v12.71zm14.028 0h6.967v2.347h-9.847V22.96h2.88v12.71zm21.282-2.369c-.048.759-.211 1.441-.491 2.048a4.702 4.702 0 01-1.103 1.551 4.881 4.881 0 01-1.654.993 6.315 6.315 0 01-2.125.341c-.879 0-1.659-.162-2.339-.486a4.862 4.862 0 01-1.716-1.375c-.464-.593-.818-1.303-1.063-2.13-.245-.828-.367-1.738-.367-2.731v-2.027c0-1 .129-1.913.387-2.74.259-.828.627-1.538 1.104-2.131a4.936 4.936 0 011.726-1.376c.681-.33 1.444-.496 2.288-.496.817 0 1.542.117 2.176.351a4.58 4.58 0 011.634 1.004c.45.434.804.965 1.063 1.592.259.628.422 1.334.49 2.12h-2.86a4.745 4.745 0 00-.205-1.179 2.11 2.11 0 00-.459-.837 1.776 1.776 0 00-.756-.507c-.3-.117-.661-.176-1.083-.176-.442 0-.827.097-1.154.29a2.324 2.324 0 00-.818.848c-.21.372-.367.83-.469 1.375a9.947 9.947 0 00-.153 1.841v2.048c0 1.482.204 2.579.612 3.289.416.71 1.07 1.065 1.962 1.065.749 0 1.341-.2 1.777-.6.436-.407.678-1.062.725-1.965h2.871z" fill="#fff"/></svg>