<svg width="257" height="134" viewBox="0 0 257 134" fill="none" xmlns="http://www.w3.org/2000/svg"><path d="M154.59 33.77h-7.986v16.152h7.986V33.77zm44.28 0h-7.985v16.152h7.985V33.77zm58.073 0h-7.985v16.152h7.985V33.77zm-87.836-11.012h-7.985v38.176h7.985V22.758zm44.281 0h-7.985v38.176h7.985V22.758zm29.037 0h-7.986v38.176h7.986V22.758zM184.352 0h-7.986v83.692h7.986V0zm43.555 0h-7.985v83.692h7.985V0z" fill="#9C9C9C"/><path d="M0 67.541v-51.67h13.23c3.391 0 6.456.59 9.193 1.774 2.76 1.159 5.111 2.791 7.053 4.897 1.965 2.082 3.474 4.578 4.527 7.488 1.076 2.91 1.614 6.104 1.614 9.582v4.258c0 3.478-.538 6.672-1.614 9.582-1.053 2.887-2.538 5.383-4.457 7.488-1.918 2.082-4.222 3.703-6.912 4.862-2.69 1.16-5.662 1.739-8.914 1.739H0zm9.93-43.58v35.56h3.79c1.849 0 3.498-.355 4.948-1.065a10.002 10.002 0 003.72-3.088c1.03-1.348 1.813-2.98 2.35-4.897.539-1.94.808-4.14.808-6.6v-4.33c0-2.319-.27-4.424-.807-6.317-.515-1.916-1.299-3.56-2.351-4.933a10.583 10.583 0 00-3.86-3.194c-1.52-.757-3.287-1.136-5.299-1.136H9.931zm50.579-8.09l4.842 19.411 5.51-19.412h12.246v51.671h-9.053V52.246l.42-24.168-6.701 22.429h-4.878l-6-21.47.42 23.209V67.54h-9.053V15.87H60.51zm62.614 38.184c0-.922-.164-1.786-.491-2.59-.304-.805-.842-1.55-1.614-2.236-.749-.71-1.743-1.349-2.983-1.916-1.217-.592-2.737-1.136-4.562-1.633a43.587 43.587 0 01-6.386-2.306c-2.012-.923-3.79-2.035-5.334-3.336a15.666 15.666 0 01-3.72-4.543c-.912-1.727-1.368-3.714-1.368-5.962 0-2.177.456-4.152 1.368-5.926a13.539 13.539 0 013.79-4.543c1.614-1.254 3.521-2.212 5.72-2.875 2.199-.685 4.585-1.029 7.158-1.029 2.667 0 5.1.39 7.299 1.171 2.223.781 4.129 1.881 5.72 3.3a14.787 14.787 0 013.72 5.005c.889 1.94 1.333 4.07 1.333 6.388h-9.615c-.047-1.16-.257-2.224-.631-3.194a6.336 6.336 0 00-1.615-2.484c-.702-.71-1.59-1.254-2.667-1.633-1.052-.402-2.292-.603-3.719-.603-1.31 0-2.48.165-3.509.497-1.006.307-1.86.757-2.562 1.348a5.73 5.73 0 00-1.614 2.059 6.158 6.158 0 00-.526 2.555c0 .97.234 1.845.701 2.626.492.78 1.194 1.49 2.106 2.129.913.615 2.012 1.183 3.299 1.704a42.365 42.365 0 004.421 1.455c2.339.686 4.491 1.526 6.456 2.52 1.965.993 3.65 2.176 5.054 3.548a14.264 14.264 0 013.298 4.649c.796 1.727 1.193 3.655 1.193 5.784 0 2.272-.456 4.295-1.369 6.069a13.073 13.073 0 01-3.719 4.472c-1.591 1.206-3.485 2.129-5.685 2.768-2.199.615-4.596.922-7.193.922-1.614 0-3.229-.154-4.842-.461a21.869 21.869 0 01-4.598-1.349 20.343 20.343 0 01-4.07-2.306 15.91 15.91 0 01-3.298-3.23c-.913-1.23-1.638-2.626-2.176-4.187-.515-1.562-.772-3.289-.772-5.182h9.685c.047 1.562.316 2.898.807 4.01.491 1.113 1.169 2.023 2.035 2.733.889.71 1.942 1.23 3.158 1.562 1.24.33 2.597.496 4.071.496 1.31 0 2.467-.153 3.474-.46 1.029-.309 1.895-.734 2.596-1.279a5.589 5.589 0 001.615-1.951 5.84 5.84 0 00.561-2.555zM11.34 129.456H5.3l-1.19 4.25H.02l6.594-20.355h3.525l6.47 20.355h-4.093l-1.175-4.25zm-5.087-3.341h4.175l-2.06-7.493-2.115 7.493zm27.583-12.764l.014 13.491c0 1.137-.157 2.148-.47 3.034-.304.885-.751 1.636-1.34 2.251a5.678 5.678 0 01-2.143 1.384c-.839.317-1.798.475-2.876.475-1.014 0-1.93-.158-2.751-.475a5.762 5.762 0 01-2.087-1.384c-.58-.606-1.032-1.352-1.355-2.237-.313-.895-.47-1.911-.47-3.048l.014-13.491h3.884l.014 13.491c.01 1.314.245 2.307.706 2.978.47.671 1.152 1.006 2.045 1.006.95 0 1.673-.335 2.17-1.006.507-.671.765-1.664.774-2.978l.014-13.491h3.857zm20.367 3.202h-6.207v17.153h-3.898v-17.153h-6.123v-3.202h16.228v3.202zm18.239 8.472c0 1.305-.171 2.507-.512 3.607-.34 1.099-.834 2.045-1.479 2.838a6.814 6.814 0 01-2.364 1.859c-.921.438-1.963.657-3.124.657s-2.193-.219-3.096-.657a6.524 6.524 0 01-2.281-1.859c-.618-.802-1.088-1.748-1.41-2.838-.323-1.1-.484-2.302-.484-3.607v-2.964c0-1.305.16-2.507.483-3.607.323-1.1.793-2.046 1.41-2.838a6.486 6.486 0 012.268-1.873c.903-.448 1.935-.671 3.096-.671 1.17 0 2.217.223 3.138.671a6.738 6.738 0 012.364 1.873c.645.792 1.138 1.738 1.479 2.838.341 1.1.512 2.302.512 3.607v2.964zm-3.94-2.992c0-.83-.07-1.594-.207-2.293-.13-.699-.337-1.3-.623-1.803a3.216 3.216 0 00-1.105-1.175c-.443-.289-.982-.433-1.617-.433-.628 0-1.153.144-1.577.433-.423.28-.765.671-1.023 1.175-.258.503-.442 1.104-.553 1.803a14.659 14.659 0 00-.166 2.293v2.992c0 .82.056 1.579.166 2.278.11.7.295 1.305.553 1.818.258.512.6.913 1.023 1.202.424.289.954.434 1.59.434.627 0 1.161-.145 1.604-.434a3.222 3.222 0 001.092-1.188c.286-.513.497-1.119.635-1.818.138-.699.208-1.463.208-2.292v-2.992zm22.717 9.297c-.25.307-.59.62-1.023.936-.433.317-.95.606-1.548.867-.59.252-1.254.457-1.99.615-.738.159-1.531.238-2.379.238-1.142 0-2.175-.205-3.096-.615a6.532 6.532 0 01-2.364-1.776c-.654-.773-1.161-1.719-1.52-2.838-.35-1.127-.526-2.404-.526-3.83v-2.768c0-1.426.184-2.698.553-3.817.378-1.128.894-2.083 1.549-2.866a6.73 6.73 0 012.322-1.789 6.877 6.877 0 012.903-.615c1.133 0 2.12.144 2.958.433.848.289 1.562.708 2.143 1.258a5.577 5.577 0 011.354 1.985c.332.783.548 1.664.65 2.643h-3.788c-.129-1.044-.442-1.827-.94-2.349-.488-.531-1.248-.797-2.28-.797a2.59 2.59 0 00-1.383.392c-.424.251-.792.624-1.106 1.118-.313.494-.562 1.109-.746 1.845-.185.727-.277 1.571-.277 2.531v2.796c.01 1.901.323 3.36.94 4.376.618 1.006 1.562 1.514 2.834 1.523.304 0 .604-.023.899-.069.294-.047.571-.112.829-.196s.484-.177.678-.28c.202-.112.354-.228.456-.349l.014-3.691h-3.332v-2.936h7.202l.014 8.025zm11.976-5.229h-2.944v7.605h-3.885v-20.355h6.746c1.115 0 2.124.135 3.027.406.903.261 1.673.647 2.309 1.16a5.027 5.027 0 011.479 1.915c.35.765.526 1.65.526 2.657 0 .726-.088 1.384-.263 1.971a5.247 5.247 0 01-1.88 2.768c-.442.345-.94.643-1.493.895l4.327 8.402v.181h-4.161l-3.788-7.605zm-2.944-3.187h2.875c1.097 0 1.94-.28 2.53-.839.599-.569.899-1.342.899-2.321 0-1.016-.291-1.803-.872-2.362-.58-.569-1.438-.853-2.571-.853h-2.861v6.375zm29.144 2.111c0 1.305-.169 2.507-.511 3.607-.341 1.099-.834 2.045-1.479 2.838a6.814 6.814 0 01-2.364 1.859c-.922.438-1.963.657-3.124.657s-2.193-.219-3.096-.657a6.528 6.528 0 01-2.282-1.859c-.617-.802-1.087-1.748-1.409-2.838-.323-1.1-.484-2.302-.484-3.607v-2.964c0-1.305.161-2.507.484-3.607.322-1.1.792-2.046 1.409-2.838a6.506 6.506 0 012.267-1.873c.904-.448 1.937-.671 3.097-.671 1.17 0 2.216.223 3.138.671a6.737 6.737 0 012.364 1.873c.645.792 1.138 1.738 1.479 2.838.342 1.1.511 2.302.511 3.607v2.964zm-3.939-2.992c0-.83-.069-1.594-.207-2.293-.129-.699-.337-1.3-.622-1.803a3.221 3.221 0 00-1.106-1.175c-.442-.289-.982-.433-1.618-.433-.626 0-1.152.144-1.576.433-.424.28-.764.671-1.023 1.175-.257.503-.442 1.104-.553 1.803-.11.699-.165 1.463-.165 2.293v2.992c0 .82.055 1.579.165 2.278.111.7.296 1.305.553 1.818.259.512.599.913 1.023 1.202.424.289.954.434 1.59.434.626 0 1.162-.145 1.604-.434a3.222 3.222 0 001.092-1.188c.285-.513.497-1.119.636-1.818.138-.699.207-1.463.207-2.292v-2.992zm22.288-8.682l.014 13.491c0 1.137-.157 2.148-.47 3.034-.304.885-.751 1.636-1.34 2.251a5.679 5.679 0 01-2.143 1.384c-.839.317-1.798.475-2.876.475-1.013 0-1.93-.158-2.75-.475a5.757 5.757 0 01-2.088-1.384c-.581-.606-1.032-1.352-1.354-2.237-.314-.895-.471-1.911-.471-3.048l.014-13.491h3.884l.015 13.491c.009 1.314.244 2.307.705 2.978.47.671 1.152 1.006 2.045 1.006.95 0 1.673-.335 2.171-1.006.507-.671.765-1.664.774-2.978l.014-13.491h3.856zm9.709 12.89v7.465h-3.884v-20.355h6.885c1.096 0 2.087.163 2.972.49.884.316 1.635.764 2.253 1.342a5.659 5.659 0 011.437 2.055c.341.801.512 1.691.512 2.67a6.2 6.2 0 01-.512 2.53 5.76 5.76 0 01-1.437 2.014c-.618.559-1.369.997-2.253 1.314-.885.317-1.876.475-2.972.475h-3.001zm0-3.187h3.001c.552 0 1.031-.084 1.437-.252a2.813 2.813 0 001.009-.685c.277-.289.479-.62.608-.993.139-.382.208-.778.208-1.188 0-.475-.069-.918-.208-1.328a2.881 2.881 0 00-.608-1.077 2.795 2.795 0 00-1.009-.727c-.406-.177-.885-.265-1.437-.265h-3.001v6.515zm37.998 7.479h9.427v3.173h-13.325v-20.355h3.898v17.182zm18.985 0h9.427v3.173h-13.326v-20.355h3.899v17.182zm28.799-3.202c-.065 1.026-.285 1.948-.664 2.769a6.363 6.363 0 01-1.492 2.097 6.634 6.634 0 01-2.24 1.342c-.866.307-1.825.461-2.875.461-1.189 0-2.245-.219-3.166-.657a6.585 6.585 0 01-2.322-1.859c-.627-.802-1.106-1.762-1.438-2.88-.332-1.119-.497-2.349-.497-3.691v-2.74c0-1.352.175-2.587.525-3.705.35-1.118.848-2.078 1.493-2.88a6.673 6.673 0 012.336-1.859c.922-.448 1.954-.671 3.097-.671 1.105 0 2.087.158 2.944.475.866.317 1.603.769 2.212 1.356a6.278 6.278 0 011.437 2.153c.351.848.571 1.803.664 2.866h-3.871a6.38 6.38 0 00-.277-1.594 2.834 2.834 0 00-.621-1.132 2.398 2.398 0 00-1.024-.685c-.405-.159-.893-.238-1.464-.238-.599 0-1.12.131-1.563.392-.442.26-.81.643-1.106 1.146-.285.503-.497 1.123-.635 1.859-.139.727-.208 1.557-.208 2.489v2.768c0 2.004.277 3.486.829 4.446.563.96 1.448 1.44 2.655 1.44 1.013 0 1.816-.271 2.405-.811.59-.55.917-1.436.981-2.657h3.885z" fill="#FBFBFB"/></svg>