<svg width="40" height="30" viewBox="0 0 40 30" fill="none" xmlns="http://www.w3.org/2000/svg"><path d="M40 17.41l-4.722 9.84a3.442 3.442 0 01-3.06 1.864H4.379a.688.688 0 01-.615-.999l.012-.023a1.697 1.697 0 00-.528-2.146l-.039-.028a6.024 6.024 0 01-2.52-4.9v-2.231h24.787v-.014c0-.753.61-1.363 1.363-1.363H40zM24.098 9.148h-4.82a.688.688 0 00-.688.688v7.574c0 .38.308.688.688.688h4.82c.38 0 .688-.308.688-.688V9.836a.689.689 0 00-.688-.688zm8.262 2.754h-5.508a.688.688 0 00-.689.688v2.754c0 .38.308.689.689.689h5.508c.38 0 .688-.309.688-.689V12.59a.688.688 0 00-.688-.688zm-21.344 6.196h5.508c.38 0 .688-.308.688-.688v-5.508a.688.688 0 00-.688-.689h-5.508a.688.688 0 00-.688.689v5.508c0 .38.308.688.688.688zm-.352-10.327L8.95 9.148v8.95H2.065v-8.95H0V7.77h4.82V5.774H3.04v-.803h1.78V.886h.688V4.97h1.78v.803h-1.78V7.77h5.156zm-2.957 5.664h-2.24v2.056h2.24v-2.056zm0-3.294h-2.24v2.056h2.24V10.14z" fill="#191E74"/></svg>