<svg width="36" height="36" viewBox="0 0 36 36" fill="none" xmlns="http://www.w3.org/2000/svg"><g clip-path="url(#clip0)" fill="#C5C5C5"><path d="M17.743 17.341c2.383 0 4.446-.854 6.131-2.54 1.686-1.686 2.54-3.748 2.54-6.13 0-2.382-.854-4.445-2.54-6.131S20.125 0 17.744 0c-2.383 0-4.446.854-6.131 2.54-1.686 1.686-2.54 3.748-2.54 6.13 0 2.383.854 4.446 2.54 6.131 1.686 1.686 3.748 2.54 6.13 2.54zm15.219 10.952a21.422 21.422 0 00-.292-2.275 17.922 17.922 0 00-.56-2.287 11.295 11.295 0 00-.94-2.133 8.052 8.052 0 00-1.417-1.848 6.251 6.251 0 00-2.037-1.28 7.038 7.038 0 00-2.6-.47c-.367 0-.722.151-1.409.598-.422.275-.916.594-1.468.946-.471.3-1.11.582-1.9.837a7.51 7.51 0 01-2.322.376 7.55 7.55 0 01-2.324-.376c-.788-.254-1.427-.536-1.898-.836-.546-.35-1.04-.668-1.47-.947-.685-.447-1.04-.598-1.408-.598a7.03 7.03 0 00-2.6.471 6.245 6.245 0 00-2.037 1.28 8.049 8.049 0 00-1.417 1.847c-.39.688-.707 1.406-.94 2.133a17.962 17.962 0 00-.56 2.287 21.337 21.337 0 00-.291 2.276A30.854 30.854 0 003 30.419c0 1.88.597 3.401 1.775 4.523C5.94 36.049 7.478 36.61 9.35 36.61h17.335c1.872 0 3.41-.562 4.574-1.67 1.178-1.12 1.776-2.642 1.776-4.522 0-.725-.025-1.44-.073-2.126z"/></g><defs><clipPath id="clip0"><path fill="#fff" d="M0 0h36v36H0z"/></clipPath></defs></svg>