<svg width="31" height="34" viewBox="0 0 31 34" fill="none" xmlns="http://www.w3.org/2000/svg"><path d="M23.952.805a45.33 45.33 0 00-17.012 0c-2.47.55-5.575 3.527-6.182 5.92a32.54 32.54 0 000 13.961c.607 2.395 3.713 5.371 6.182 5.921h.002c.11.022.19.117.19.23v6.785c0 .34.414.507.65.261l3.223-3.308 3.03-3.111a.23.23 0 01.172-.07c3.255.09 6.513-.172 9.745-.787 2.469-.55 5.576-3.526 6.182-5.92a32.503 32.503 0 000-13.961c-.606-2.394-3.712-5.37-6.182-5.92zm.086 20.227c-.494 1.048-1.212 1.92-2.249 2.477-.292.157-.642.208-.972.31-.38-.115-.741-.193-1.077-.332-3.481-1.444-6.685-3.307-9.222-6.164-1.443-1.624-2.573-3.457-3.528-5.398-.452-.92-.834-1.876-1.223-2.826-.355-.867.168-1.762.718-2.415.516-.612 1.18-1.081 1.9-1.427.56-.27 1.114-.114 1.524.362.887 1.029 1.7 2.11 2.36 3.302.406.734.294 1.63-.44 2.13-.179.12-.342.263-.508.4a1.67 1.67 0 00-.383.404c-.183.298-.192.649-.074.972.906 2.49 2.433 4.426 4.94 5.47.4.166.803.36 1.265.306.774-.09 1.024-.939 1.566-1.382.53-.433 1.208-.44 1.778-.078.571.361 1.125.75 1.675 1.141.54.385 1.078.762 1.576 1.2.479.422.644.975.374 1.548zm-4.494-8.114a.888.888 0 01-.05-.002c-.348-.013-.537-.218-.575-.551-.027-.244-.049-.49-.107-.727-.114-.467-.362-.9-.755-1.185a1.97 1.97 0 00-.615-.297c-.28-.08-.57-.059-.848-.127-.303-.074-.47-.32-.423-.603a.547.547 0 01.577-.44c1.766.127 3.027 1.04 3.207 3.118.013.147.028.302-.004.442a.453.453 0 01-.407.372zm-1.098-4.753a6.211 6.211 0 00-1.722-.528c-.259-.043-.521-.07-.782-.106-.316-.043-.485-.245-.47-.556a.49.49 0 01.545-.484c1.045.06 2.055.285 2.984.777 1.889 1 2.968 2.58 3.283 4.688.014.096.037.19.044.286.018.237.03.474.047.786-.007.057-.011.19-.044.317-.12.457-.814.514-.974.053a1.373 1.373 0 01-.054-.44c-.002-.965-.212-1.928-.698-2.767a5.15 5.15 0 00-2.16-2.026zm5.837 6.517c-.365.004-.53-.301-.553-.629-.047-.648-.08-1.298-.169-1.94-.471-3.393-3.176-6.199-6.552-6.801-.508-.09-1.028-.114-1.542-.168-.325-.035-.752-.054-.824-.459-.06-.339.226-.609.549-.626.088-.005.176 0 .264 0 4.372.122.267.01.012 0 4.548.133 8.282 3.153 9.082 7.65.137.767.186 1.552.246 2.33.026.327-.16.639-.513.643z" fill="#5F1CB5"/></svg>