<svg width="34" height="34" viewBox="0 0 34 34" fill="none" xmlns="http://www.w3.org/2000/svg"><path d="M17.007 0C7.63 0 .004 7.623 0 16.993a16.954 16.954 0 002.6 9.043l.403.643-1.717 6.271 6.434-1.687.62.368A16.972 16.972 0 0016.994 34H17c9.369 0 16.995-7.623 16.999-16.994a16.89 16.89 0 00-4.974-12.022A16.887 16.887 0 0017.007 0zm9.999 24.299c-.426 1.193-2.468 2.282-3.45 2.43-.88.13-1.994.185-3.218-.203a29.52 29.52 0 01-2.914-1.076c-5.126-2.213-8.474-7.373-8.73-7.714-.255-.341-2.087-2.77-2.087-5.285S7.927 8.7 8.396 8.189c.469-.512 1.022-.64 1.363-.64.34 0 .681.004.98.018.313.016.734-.119 1.149.877.426 1.023 1.448 3.538 1.576 3.793.127.256.212.555.043.896-.171.34-.975 1.368-1.278 1.747-.226.281-.522.531-.224 1.043.297.51 1.324 2.184 2.843 3.539 1.952 1.74 3.598 2.28 4.11 2.535.51.256.808.213 1.106-.127.298-.341 1.278-1.492 1.618-2.004.34-.511.682-.426 1.15-.255.469.17 2.981 1.406 3.492 1.662.511.256.852.383.98.597.128.213.128 1.235-.298 2.429z" fill="#64B161"/></svg>