<svg width="27" height="37" viewBox="0 0 27 37" fill="none" xmlns="http://www.w3.org/2000/svg"><path d="M24.264.993H2.748c-1.483 0-2.69 1.42-2.69 3.164V33.83c0 1.745 1.207 3.164 2.69 3.164h21.516c1.483 0 2.69-1.419 2.69-3.164V4.157c0-1.744-1.207-3.164-2.69-3.164zm.896 32.836c0 .582-.402 1.055-.896 1.055H2.748c-.495 0-.896-.473-.896-1.055V4.157c0-.581.401-1.054.896-1.054h21.516c.494 0 .896.473.896 1.054V33.83zM8.127 18.01H4.541c-.496 0-.896.472-.896 1.055v4.218c0 .583.4 1.055.896 1.055h3.586c.495 0 .896-.472.896-1.055v-4.218c0-.583-.4-1.055-.896-1.055zm-.897 4.219H5.437v-2.11H7.23v2.11zm.897 4.218H4.541c-.496 0-.896.472-.896 1.055v4.219c0 .583.4 1.055.896 1.055h3.586c.495 0 .896-.472.896-1.055v-4.219c0-.583-.4-1.055-.896-1.055zm-.897 4.22H5.437v-2.11H7.23v2.11zM22.47 5.211H4.542c-.496 0-.896.472-.896 1.055v8.578c0 .583.4 1.055.896 1.055h17.93c.495 0 .896-.472.896-1.055V6.267c0-.583-.4-1.055-.896-1.055zm-.896 8.578H5.437V7.322h16.137v6.468zm.897 12.657H11.713c-.496 0-.897.471-.897 1.054v4.219c0 .583.401 1.055.897 1.055H22.47c.495 0 .896-.472.896-1.055V27.5c0-.583-.4-1.055-.896-1.055zm-.897 4.218H12.61v-2.11h8.965v2.11zm-9.861-6.328h3.586c.495 0 .896-.472.896-1.055v-4.218c0-.583-.4-1.055-.896-1.055h-3.586c-.496 0-.897.472-.897 1.055v4.218c0 .583.401 1.055.897 1.055zm.896-4.219h1.793v2.11H12.61v-2.11zm9.862-2.109h-3.586c-.496 0-.897.472-.897 1.055v4.218c0 .583.401 1.055.897 1.055h3.586c.495 0 .896-.472.896-1.055v-4.218c0-.583-.4-1.055-.896-1.055zm-.897 4.219h-1.793v-2.11h1.793v2.11z" fill="#C5C5C5"/></svg>