<svg width="40" height="28" viewBox="0 0 40 28" fill="none" xmlns="http://www.w3.org/2000/svg"><path d="M37.522 9.268c-.027-.031-.05-.062-.082-.092l-1.402-1.353c1.163-.263 2.414-1.237 2.414-2.236 0-1.164-1.615-1.578-2.994-1.578-1.442 0-1.61.988-1.627 1.686L30.215 2.21c-.735-.728-2.128-1.3-3.17-1.3H12.954c-1.04 0-2.433.572-3.169 1.3L6.17 5.695c-.018-.698-.186-1.686-1.626-1.686-1.38 0-2.995.414-2.995 1.578 0 .999 1.252 1.973 2.415 2.237L2.56 9.175c-.032.03-.054.06-.082.092C.98 10.549 0 12.927 0 14.65v5.127c0 1.244.49 2.373 1.283 3.214v1.988c0 1.163.973 2.11 2.17 2.11h2.624c1.197 0 2.17-.946 2.17-2.11v-.509h23.506v.51c0 1.163.971 2.11 2.17 2.11h2.623c1.197 0 2.169-.948 2.169-2.11v-1.989a4.672 4.672 0 001.283-3.215V14.65c.002-1.724-.978-4.102-2.477-5.383zm-26.409-5.51c.509-.424 1.398-.745 1.841-.745h14.093c.443 0 1.332.321 1.84.745l4.743 4.596H6.372l4.741-4.596zM1.627 13.876c0-1.262.988-2.287 2.208-2.287 1.218 0 5.201 2.338 5.201 3.6 0 1.263-3.983.97-5.201.97-1.22 0-2.208-1.02-2.208-2.283zm6.62 8.348h-.84l-2.495.004c-.692-.215-1.18-.467-1.526-.737a2.164 2.164 0 01-.413-.42 1.643 1.643 0 01-.232-.423c-.31-.877.331-1.683.331-1.683h4.257l2.837 3.258-1.919.001zm17.874.002H13.88a2.313 2.313 0 01-2.312-2.311h16.865a2.312 2.312 0 01-2.312 2.31zm.537-3.889H13.343c-1.388 0-2.515-1.71-2.515-3.821h18.344c0 2.111-1.126 3.821-2.514 3.821zM37.26 20.65c-.05.14-.127.281-.232.423a2.12 2.12 0 01-.413.42c-.345.27-.834.523-1.526.737l-2.494-.004h-2.762l2.84-3.257h4.255c0-.001.642.803.332 1.681zm-1.094-4.49c-1.218 0-5.2.291-5.2-.97 0-1.26 3.982-3.6 5.2-3.6 1.22 0 2.208 1.025 2.208 2.287 0 1.261-.988 2.283-2.208 2.283z" fill="#C5C5C5"/></svg>