<svg width="30" height="40" viewBox="0 0 30 40" fill="none" xmlns="http://www.w3.org/2000/svg"><path d="M15 0A15.017 15.017 0 000 15c0 10.569 13.257 23.947 13.822 24.512a1.683 1.683 0 002.357 0C16.742 38.947 30 25.569 30 15A15.017 15.017 0 0015 0zm0 25a10 10 0 110-20 10 10 0 010 20z" fill="#C5C5C5"/><path d="M22.009 12.512a.38.38 0 00-.033-.039l-.56-.568c.465-.11.965-.52.965-.94 0-.489-.646-.662-1.198-.662-.576 0-.643.415-.65.708l-1.447-1.465C18.792 9.24 18.235 9 17.818 9h-5.636c-.417 0-.974.24-1.268.546l-1.446 1.465c-.008-.293-.075-.708-.65-.708-.553 0-1.199.173-1.199.662 0 .42.501.83.966.94l-.56.568c-.013.013-.022.026-.033.039-.6.538-.992 1.537-.992 2.262v2.153c0 .523.196.998.513 1.351v.835c0 .489.39.887.868.887h1.05a.878.878 0 00.868-.887V18.9h9.403v.213c0 .49.388.887.868.887h1.049a.878.878 0 00.868-.887v-.835c.317-.353.513-.828.513-1.35v-2.154c0-.725-.391-1.724-.991-2.262zm-10.564-2.315c.204-.178.56-.313.737-.313h5.637c.177 0 .533.135.736.313l1.897 1.931H9.55l1.896-1.931zm-3.794 4.251c0-.53.395-.96.883-.96.487 0 2.08.982 2.08 1.512s-1.593.407-2.08.407c-.488 0-.883-.428-.883-.959zm2.648 3.507h-.336l-.998.002a1.861 1.861 0 01-.61-.31.886.886 0 01-.166-.176.7.7 0 01-.092-.178c-.125-.368.132-.707.132-.707h1.703l1.135 1.369h-.768zm7.15.001h-4.897c-.51 0-.925-.435-.925-.97h6.746c0 .536-.414.97-.925.97zm.214-1.633h-5.326c-.555 0-1.005-.72-1.005-1.606h7.338c0 .887-.452 1.606-1.007 1.606zm4.241.97a.703.703 0 01-.093.178.87.87 0 01-.165.177c-.138.113-.333.22-.61.31l-.998-.002h-1.105l1.136-1.369h1.703s.256.338.132.707zm-.437-1.886c-.487 0-2.08.123-2.08-.407s1.593-1.513 2.08-1.513c.488 0 .883.43.883.961 0 .53-.395.96-.883.96z" fill="#C5C5C5"/></svg>