<svg width="19" height="19" viewBox="0 0 19 19" fill="none" xmlns="http://www.w3.org/2000/svg"><path d="M10.947 9.59L9.36 8.004a.398.398 0 00-.535-.024L.77 14.692a2.147 2.147 0 00-.142 3.161l.47.471a2.14 2.14 0 003.162-.143l6.713-8.055a.4.4 0 00-.026-.535zm7.326-2.197c-.672-.673-1.842-.673-2.514 0l-3.602 3.602a1.78 1.78 0 00.001 2.516c.45.45 1.048.697 1.684.697.635 0 1.234-.248 1.683-.697l2.75-2.75a2.383 2.383 0 00-.002-3.368z" fill="#1A1C1E"/><path d="M12.516 3.223c-.11.19-.238.37-.397.53L8.517 7.356c-.16.159-.341.285-.53.396l3.212 3.213c.11-.19.237-.37.397-.53l3.602-3.603a2.4 2.4 0 01.537-.39l-3.22-3.22zM11.557.676c-.9-.9-2.468-.9-3.367 0l-2.75 2.75a2.384 2.384 0 00.001 3.368c.337.336.783.52 1.258.52.474 0 .921-.184 1.257-.52l3.602-3.602a1.78 1.78 0 00-.001-2.516zm5.457 15.941h-4.663c-1.093 0-1.984.89-1.984 1.985 0 .219.178.396.397.396h7.837c.22 0 .397-.177.397-.396 0-1.095-.89-1.985-1.984-1.985z" fill="#1A1C1E"/></svg>