<svg width="19" height="19" viewBox="0 0 19 19" fill="none" xmlns="http://www.w3.org/2000/svg"><g clip-path="url(#clip0)"><path d="M3.166 5.344a3.765 3.765 0 013.76-3.76h7.23A2.173 2.173 0 0012.073 0H2.968A2.179 2.179 0 00.791 2.177v12.27c0 1.202.976 2.178 2.177 2.178h.198V5.344z" fill="url(#paint0_linear)"/><path d="M16.031 3.167H6.927A2.179 2.179 0 004.75 5.344v11.479c0 1.201.976 2.177 2.177 2.177h9.104a2.179 2.179 0 002.177-2.177V5.343a2.179 2.179 0 00-2.177-2.176zm-1.583 13.458H8.51a.594.594 0 010-1.187h5.938a.594.594 0 010 1.187zm0-3.167H8.51a.594.594 0 010-1.187h5.938a.594.594 0 010 1.187zm0-2.77H8.51a.594.594 0 010-1.188h5.938a.594.594 0 010 1.188zm0-3.167H8.51a.594.594 0 010-1.188h5.938a.594.594 0 010 1.188z" fill="url(#paint1_linear)"/></g><defs><linearGradient id="paint0_linear" x1="7.474" y1="0" x2="7.474" y2="16.625" gradientUnits="userSpaceOnUse"><stop stop-color="#121773"/><stop offset="1" stop-color="#0D1038"/></linearGradient><linearGradient id="paint1_linear" x1="11.479" y1="3.167" x2="11.479" y2="19" gradientUnits="userSpaceOnUse"><stop stop-color="#121773"/><stop offset="1" stop-color="#0D1038"/></linearGradient><clipPath id="clip0"><path fill="#fff" d="M0 0h19v19H0z"/></clipPath></defs></svg>