<svg width="28" height="28" viewBox="0 0 28 28" fill="none" xmlns="http://www.w3.org/2000/svg"><path d="M11.306 21.174l11.42-6.667a.586.586 0 000-1.013l-11.42-6.668a.574.574 0 00-.58 0 .587.587 0 00-.289.507v3.104H.58a.582.582 0 00-.579.586v5.954c0 .323.26.585.579.585h9.858v3.104a.586.586 0 00.58.585c.1 0 .2-.026.289-.077z" fill="url(#paint0_linear)"/><path d="M23.349 0H11.552a.582.582 0 00-.58.585v1.756c0 .324.26.586.58.586h11.797a1.39 1.39 0 011.38 1.396v19.354c0 .77-.62 1.396-1.38 1.396H11.552a.582.582 0 00-.58.585v1.757c0 .323.26.585.58.585h11.797c2.358 0 4.276-1.94 4.276-4.323V4.323C27.625 1.94 25.706 0 23.349 0z" fill="url(#paint1_linear)"/><defs><linearGradient id="paint0_linear" x1="11.508" y1="6.748" x2="11.508" y2="21.251" gradientUnits="userSpaceOnUse"><stop stop-color="#121773"/><stop offset="1" stop-color="#0D1038"/></linearGradient><linearGradient id="paint1_linear" x1="19.299" y1="0" x2="19.299" y2="28" gradientUnits="userSpaceOnUse"><stop stop-color="#121773"/><stop offset="1" stop-color="#0D1038"/></linearGradient></defs></svg>