<svg width="18" height="19" viewBox="0 0 18 19" fill="none" xmlns="http://www.w3.org/2000/svg"><path d="M13.603 8.66a.592.592 0 00-.54-.348h-2.375V.595A.594.594 0 0010.094 0H7.719a.594.594 0 00-.594.594v7.718H4.75a.594.594 0 00-.446.985l4.156 4.75a.592.592 0 00.893 0l4.156-4.75a.592.592 0 00.094-.637z" fill="url(#paint0_linear)"/><path d="M15.438 13.063v3.562H2.374v-3.563H0v4.75C0 18.47.532 19 1.188 19h15.437c.657 0 1.188-.53 1.188-1.188v-4.75h-2.375z" fill="url(#paint1_linear)"/><defs><linearGradient id="paint0_linear" x1="8.906" y1="0" x2="8.906" y2="14.25" gradientUnits="userSpaceOnUse"><stop stop-color="#121773"/><stop offset="1" stop-color="#0D1038"/></linearGradient><linearGradient id="paint1_linear" x1="8.906" y1="13.063" x2="8.906" y2="19" gradientUnits="userSpaceOnUse"><stop stop-color="#121773"/><stop offset="1" stop-color="#0D1038"/></linearGradient></defs></svg>