<svg width="22" height="22" viewBox="0 0 22 22" fill="none" xmlns="http://www.w3.org/2000/svg"><path d="M8.883 16.636l8.973-5.237a.46.46 0 000-.797L8.883 5.364a.451.451 0 00-.455 0 .46.46 0 00-.227.398V8.2H.455A.458.458 0 000 8.66v4.678c0 .254.204.46.455.46H8.2v2.438a.46.46 0 00.455.46c.078 0 .157-.02.227-.06z" fill="#BBBABA"/><path d="M18.345 0H9.076a.458.458 0 00-.455.46v1.38c0 .254.204.46.455.46h9.269c.599 0 1.085.492 1.085 1.097v15.206c0 .605-.487 1.097-1.085 1.097H9.076a.458.458 0 00-.455.46v1.38c0 .254.204.46.455.46h9.269c1.853 0 3.36-1.524 3.36-3.397V3.397c0-1.873-1.507-3.397-3.36-3.397z" fill="#BBBABA"/></svg>