<svg width="22" height="22" viewBox="0 0 22 22" fill="none" xmlns="http://www.w3.org/2000/svg"><g clip-path="url(#clip0)" fill="#1A1C1E"><path d="M19.45 18.333l1.25-1.375h.613a.688.688 0 000-1.375H.688a.689.689 0 00-.677.812l.353 1.938H19.45zM.531 19.25l.398 2.185a.686.686 0 00.676.565h14.208a.686.686 0 00.509-.226l2.295-2.524H.531zM4.125 9.167V5.27a.688.688 0 00-.688-.688H.688A.688.688 0 000 5.271v3.896h4.125zm0 5.5V10.77a.688.688 0 00-.688-.688H.688a.688.688 0 00-.687.688v3.896h4.125zm5.041 0V10.77a.688.688 0 00-.687-.688h-2.75a.688.688 0 00-.688.688v3.896h4.125zm6.417 0v-2.98a.688.688 0 00-.687-.687h-3.209a.688.688 0 00-.687.688v2.979h4.583zm5.5 0v-2.98a.688.688 0 00-.687-.687h-3.209a.688.688 0 00-.687.688v2.979h4.583zm-3.666-4.584V7.104a.688.688 0 00-.687-.687h-3.21a.688.688 0 00-.687.687v2.98h4.583z"/></g><defs><clipPath id="clip0"><path fill="#fff" d="M0 0h22v22H0z"/></clipPath></defs></svg>