<svg width="28" height="28" viewBox="0 0 28 28" fill="none" xmlns="http://www.w3.org/2000/svg"><path d="M7.291 21.62a4.368 4.368 0 01-4.132-2.977l-.041-.134a4.259 4.259 0 01-.202-1.264V9.29l-2.83 9.448a2.65 2.65 0 001.857 3.214l18.04 4.832c.226.058.451.086.673.086 1.162 0 2.223-.771 2.521-1.908l1.051-3.342H7.291z" fill="url(#paint0_linear)"/><path d="M10.5 9.37a2.336 2.336 0 002.333-2.334 2.336 2.336 0 00-2.334-2.334 2.336 2.336 0 00-2.333 2.334 2.336 2.336 0 002.333 2.333z" fill="url(#paint1_linear)"/><path d="M25.083 1.202h-17.5A2.92 2.92 0 004.666 4.12v12.834a2.921 2.921 0 002.917 2.917h17.5A2.921 2.921 0 0028 16.953V4.119a2.921 2.921 0 00-2.917-2.917zm-17.5 2.334h17.5c.322 0 .584.261.584.583v8.283l-3.686-4.3c-.39-.46-.957-.704-1.565-.718a2.04 2.04 0 00-1.558.736l-4.334 5.2-1.411-1.407a2.048 2.048 0 00-2.893 0L7 15.132V4.119c0-.322.26-.583.583-.583z" fill="url(#paint2_linear)"/><defs><linearGradient id="paint0_linear" x1="12.114" y1="9.29" x2="12.114" y2="26.87" gradientUnits="userSpaceOnUse"><stop stop-color="#121773"/><stop offset="1" stop-color="#0D1038"/></linearGradient><linearGradient id="paint1_linear" x1="10.499" y1="4.702" x2="10.499" y2="9.369" gradientUnits="userSpaceOnUse"><stop stop-color="#121773"/><stop offset="1" stop-color="#0D1038"/></linearGradient><linearGradient id="paint2_linear" x1="16.333" y1="1.202" x2="16.333" y2="19.87" gradientUnits="userSpaceOnUse"><stop stop-color="#121773"/><stop offset="1" stop-color="#0D1038"/></linearGradient></defs></svg>