<svg version="1.1" id="Layer_1" xmlns="http://www.w3.org/2000/svg" x="0" y="0" viewBox="0 0 30 40" xml:space="preserve"><path d="M15 0C11 0 7.2 1.6 4.4 4.4S0 11 0 15c0 10.6 13.3 23.9 13.8 24.5.3.3.7.5 1.2.5s.9-.2 1.2-.5C16.7 38.9 30 25.6 30 15c0-4-1.6-7.8-4.4-10.6C22.8 1.6 19 0 15 0zm0 25c-2 0-3.9-.6-5.6-1.7-1.6-1.1-2.9-2.7-3.7-4.5C5 17 4.8 15 5.2 13c.4-1.9 1.3-3.7 2.7-5.1 1.4-1.4 3.2-2.4 5.1-2.7 2-.4 4-.2 5.8.6 1.8.8 3.4 2 4.5 3.7C24.4 11.1 25 13 25 15c0 2.7-1.1 5.2-2.9 7.1-1.9 1.8-4.4 2.9-7.1 2.9z"/><path d="M22 12.5l-.6-.6c.5-.1 1-.5 1-.9 0-.5-.6-.7-1.2-.7s-.6.4-.7.7l-1.4-1.5c-.3-.3-.9-.5-1.3-.5h-5.6c-.4 0-1 .2-1.3.5L9.5 11c0-.3-.1-.7-.7-.7s-1.2.2-1.2.7c0 .4.5.8 1 .9l-.6.6c-.6.5-1 1.5-1 2.3V17c0 .5.2 1 .5 1.4v.8c0 .5.4.9.9.9h1c.5 0 .9-.4.9-.9V19h9.4v.2c0 .5.4.9.9.9h1c.5 0 .9-.4.9-.9v-.8c.3-.4.5-.8.5-1.4v-2.2c0-.8-.4-1.7-1-2.3zm-10.6-2.3c.2-.2.6-.3.7-.3h5.7c.2 0 .5.1.7.3l1.9 1.9H9.5l1.9-1.9zm-3.7 4.2c0-.5.4-1 .9-1s2.1 1 2.1 1.5-1.7.5-2.2.5c-.5 0-.8-.4-.8-1zm2.6 3.6H9c-.3-.1-.5-.2-.6-.3l-.2-.2c0-.1-.1-.1-.1-.2-.1-.4.1-.7.1-.7h1.7L11 18h-.7zm7.1 0h-4.8c-.5 0-.9-.4-.9-1h6.7c0 .5-.4 1-1 1zm.3-1.7h-5.4c-.6 0-1-.7-1-1.6h7.4c0 .9-.5 1.6-1 1.6zm4.2 1c0 .1-.1.1-.1.2s-.1.1-.2.2-.3.2-.6.3h-2.2l1.1-1.4h1.7c.2 0 .4.3.3.7zm-.4-1.9c-.5 0-2.1.1-2.1-.4s1.6-1.5 2.1-1.5.9.4.9 1c-.1.5-.4.9-.9.9z"/></svg>