<svg width="670" height="505" viewBox="0 0 670 505" fill="none" xmlns="http://www.w3.org/2000/svg"><path fill="#CA0107" d="M0 0h670v505H0z"/><path d="M323.505 338.183c69.805 0 126.392-32.69 126.392-73.016 0-40.326-56.587-73.017-126.392-73.017-69.804 0-126.392 32.691-126.392 73.017 0 40.326 56.588 73.016 126.392 73.016z" fill="#234970"/><path d="M258.884 184.054c-8.846 2.998-17.242 6.747-24.888 11.095-49.328 28.487-49.328 74.666 0 103.302 49.327 28.487 129.391 28.487 178.868 0 7.646-4.348 13.944-9.295 19.341-14.393L258.884 184.054zm173.921 99.554c28.337-27.887 21.59-64.47-19.791-88.459-41.531-23.989-104.653-27.737-153.08-11.395l172.871 99.854z" fill="#C9BCAD"/><g opacity=".4" fill="#3C4C5E"><path opacity=".4" d="M319.379 195.614h.087l-.259-.173-4.571-3.708-2.242 1.293 1.638.863h-16.731l-56.835 32.859.863.431h21.043l5.606 3.277h.69l-3.967-3.277 1.035-1.811 51.401-29.668 5.52 3.191h.69l-3.968-3.277zm11.212 6.641c2.07.862 2.932 2.069 3.019 3.018 0 .949-.173 2.156.258 3.881.518 1.984 1.553 3.105 1.639 5.002.431 5.52-16.818 6.986-16.99.173 0-1.035.259-1.984.517-3.019 1.208-4.14.087-4.312-.69-6.986-.258-.948.604-1.983 1.553-2.156.69-.086 6.468-1.725 10.694.087zm-96.679 25.614l8.02 14.23h-12.419l-10.09-5.864 14.489-8.366zm41.138-.086c-2.07.776-3.018 1.983-3.018 2.846-.087.948.172 2.07-.345 3.881-.518 1.897-1.553 3.018-1.812 4.916-.517 5.433 16.387 7.33 16.732.69.086-1.035-.173-1.984-.432-2.933-1.034-4.139.087-4.226.863-6.813.259-.949-.518-1.984-1.466-2.156-.69-.259-6.382-1.984-10.522-.431zm48.987 37.774l-15.093-8.71c-.517-.259-1.38-.259-1.897 0L288.073 267.8c-.345.172-.345.604 0 .776l15.093 8.711c.517.258 1.293.258 1.811 0h6.21l-.259-1.035h-4.14l17.249-10.005c.431-.086.431-.431 0-.69z"/><path opacity=".4" d="M409.245 261.332l-69.426-40.104-49.245 28.461 73.652 42.518 3.277-1.898h8.883l.863-4.484-1.121-.518 33.117-19.146c1.898-1.035 1.898-3.795 0-4.829z"/><path opacity=".4" d="M355.947 284.014l-15.093-8.711c-.518-.259-1.38-.259-1.898 0l-18.973 10.953c-.345.173-.345.604 0 .776l15.093 8.711c.517.259 1.293.259 1.811 0h6.209l-.259-1.035h-4.139l17.249-10.004c.344-.173.344-.518 0-.69zm-1.294-49.246c.863-.172 1.725-.172 2.674-.172 1.207 0 7.503-.173 9.056-.431 1.035-.173 2.069-.173 3.104-.173 1.38 0 2.76.173 4.054.69 2.156.776 3.191 1.984 3.45 2.932.776 3.881-6.296 5.693-11.471 4.658-2.501-.432-5.002-.69-7.589-.432-3.191.345-6.641-.345-7.935-2.242-1.725-2.587 1.639-4.312 4.657-4.83z"/><g opacity=".4"><path opacity=".4" d="M393.118 229.076l-16.904 9.746c-.518.259-1.38.259-1.898 0l-14.575-8.366c-.345-.172-.345-.603 0-.776l16.904-9.745c.517-.259 1.38-.259 1.897 0l14.576 8.365c.431.173.431.518 0 .776z"/><path opacity=".4" d="M394.153 228.041h-3.364l.173 1.035h3.794l-.603-1.035z"/></g><g opacity=".4"><path opacity=".4" d="M422.269 247.878l-14.748 8.538c-.518.258-1.38.258-1.898 0l-14.575-8.366c-.345-.172-.345-.604 0-.776l14.748-8.538c.517-.259 1.38-.259 1.897 0l14.576 8.365c.431.173.431.518 0 .777z"/><path opacity=".4" d="M426.84 246.929h-5.693l.173 1.035h6.123l-.603-1.035z"/></g></g><path d="M290.488 196.304l-1.208-.69 32.773-18.888 1.207.69-32.772 18.888z" fill="#F4F5F6"/><path d="M323.26 177.416l-1.207-.69v-56.231l1.207.69v56.231zm0-56.921l-1.207-.776V99.107l1.207.69v20.698z" fill="#D2CDCD"/><path d="M257.111 215.536l-1.207-.69 32.772-18.887 1.208.69-32.773 18.887z" fill="#F4F5F6"/><path d="M289.884 196.649l-1.208-.69.087-56.231 1.207.69-.086 56.231z" fill="#D2CDCD"/><path d="M290.575 139.383l-1.207-.69 32.686-18.974 1.207.776-32.686 18.888z" fill="#F4F5F6"/><path d="M289.97 139.728l-1.207-.69-.087-20.699 1.208.69.086 20.699z" fill="#D2CDCD"/><path d="M223.821 234.855l-1.207-.69 32.686-18.974 1.208.69-32.687 18.974z" fill="#F4F5F6"/><path d="M256.508 215.881l-1.207-.69.086-56.231 1.207.69-.086 56.231z" fill="#D2CDCD"/><path d="M257.198 158.615l-1.208-.69 32.773-18.887 1.207.69-32.772 18.887z" fill="#F4F5F6"/><path d="M256.594 158.96l-1.208-.69v-20.698l1.208.776v20.612z" fill="#D2CDCD"/><path d="M223.821 177.848l-1.207-.69 32.772-18.888 1.208.69-32.773 18.888zm-.603-20.958l-1.207-.69 100.646-58.128 1.208.69-100.647 58.128z" fill="#F4F5F6"/><path d="M223.131 235.89l-1.207-.69.086-79 1.207.69-.086 79z" fill="#D2CDCD"/><path opacity=".9" d="M224.338 156.632v78.481l99.87-57.61V98.848l-99.87 57.784z" fill="#C7E3FF"/><path d="M291.609 196.907l-1.207-.69 32.686-18.887 1.208.69-32.687 18.887z" fill="#F4F5F6"/><path d="M324.295 178.02l-1.207-.69.086-56.231 1.208.69-.087 56.231zm.087-56.921l-1.208-.69V99.711l1.208.69v20.698z" fill="#D2CDCD"/><path d="M258.233 216.226l-1.207-.776 32.686-18.888 1.208.69-32.687 18.974z" fill="#F4F5F6"/><path d="M290.919 197.253l-1.207-.69.086-56.231 1.208.69-.087 56.231z" fill="#D2CDCD"/><path d="M291.609 139.987l-1.207-.69 32.772-18.888 1.208.69-32.773 18.888z" fill="#F4F5F6"/><path d="M291.006 140.332l-1.208-.69v-20.699l1.208.776v20.613z" fill="#D2CDCD"/><path d="M224.857 235.459l-1.208-.69 32.773-18.888 1.207.69-32.772 18.888z" fill="#F4F5F6"/><path d="M257.63 216.571l-1.208-.69v-56.317l1.208.776v56.231z" fill="#D2CDCD"/><path d="M258.233 159.219l-1.207-.69 32.773-18.887 1.207.69-32.773 18.887z" fill="#F4F5F6"/><path d="M257.63 159.564l-1.208-.69v-20.612l1.208.69v20.612z" fill="#D2CDCD"/><path d="M224.943 178.538l-1.208-.776 32.687-18.888 1.207.69-32.686 18.974zm-.69-21.044l-1.207-.69 100.733-58.128 1.207.69-100.733 58.128z" fill="#F4F5F6"/><path d="M224.253 157.494l100.646-58.128v78.999l-100.646 58.128v-78.999zm66.666 39.759l.087-56.231-32.773 18.887-.086 56.231 32.772-18.887zm-33.29 19.318l.087-56.231-24.321 14.058-8.452 4.916-.086 56.145 32.772-18.888zm66.667-38.551l.086-56.231-32.773 18.888-.086 56.231 32.773-18.888zm-33.29-37.688v-20.699l-32.773 18.888v20.698l32.773-18.887zm33.376-19.233v-20.698l-32.773 18.887v20.699l32.773-18.888zm-66.753 38.465v-20.699l-32.772 18.888v20.698l32.772-18.887z" fill="#E6E6E2"/><path d="M224.253 236.493l-1.208-.689v-79l1.208.69v78.999z" fill="#D2CDCD"/><path d="M224.338 150.508l-2.328-1.379v6.985l2.328 1.38v-6.986z" fill="#3665BA"/><path d="M224.338 150.508v6.986l100.647-58.128V92.38l-100.647 58.128z" fill="#5E87E3"/><path d="M222.011 149.128l2.329 1.38L324.986 92.38 322.658 91l-100.647 58.128z" fill="#6D9AF2"/><path d="M268.667 230.457l-10.263-5.951v-1.208l10.263 5.951v1.208z" fill="#D2CDCD"/><path d="M271.168 228.99l-2.501 1.466v-1.207l2.501-1.38v1.121z" fill="#E6E6E2"/><path d="M268.668 229.249l-10.263-5.951 2.415-1.38 10.349 5.951-2.501 1.38z" fill="#F4F5F6"/><path d="M323.346 198.891l-10.349-5.951v-1.207l10.349 5.951v1.207z" fill="#D2CDCD"/><path d="M325.847 197.425l-2.501 1.466v-1.207l2.501-1.38v1.121z" fill="#E6E6E2"/><path d="M323.346 197.684l-10.349-5.951 2.501-1.38 10.349 5.951-2.501 1.38z" fill="#F4F5F6"/><path d="M319.983 194.751l-1.984-1.121v-47.175l1.984 1.207v47.089z" fill="#D2CDCD"/><path d="M320.931 194.148l-.949.603v-47.089l.949-.603v47.089z" fill="#E6E6E2"/><path d="M319.983 147.662L318 146.455l.948-.517 1.984 1.121-.949.603zm0-26.304l-53.385 31.393-2.415-1.38 53.816-31.048 1.984 1.035z" fill="#F4F5F6"/><path d="M319.983 163.445l-53.816 31.048v-42.087l53.816-31.048v42.087z" fill="#E6E6E2"/><path d="M266.167 194.493l-1.897-1.121v-42.001l1.897 1.121v42.001z" fill="#D2CDCD"/><path d="M318.861 162.238l-51.401 29.754v-39.069l51.401-29.754v39.069z" fill="#F8F8F8"/><path d="M311.788 170l-34.066 19.663v-.69l9.659-6.209 24.407-13.454v.69z" fill="#E6E6E2"/><path d="M311.79 169.309l-16.3 9.401-17.766 10.263-1.639-.949 34.067-19.663 1.638.948z" fill="#F4F5F6"/><path d="M311.79 169.309l-16.3 9.401-17.766 10.263-1.639-.949 34.067-19.663 1.638.948z" fill="#F4F5F6"/><path d="M277.723 188.973l-1.639-.948v.689l1.639.949v-.69zm-12.504 37.344l-1.898-1.121v-47.09l1.898 1.122v47.089z" fill="#D2CDCD"/><path d="M266.253 225.8l-1.035.517v-47.089l1.035-.604V225.8z" fill="#E6E6E2"/><path d="M265.219 179.228l-1.897-1.121.948-.604 1.984 1.121-1.035.604z" fill="#F4F5F6"/><path d="M282.725 180.176v-.172l4.571-2.674v.259l-4.571 2.587zm-1.207.777v-.259l.862-.518v.259l-.862.518zm-5.347 3.104v-.258l5.002-2.846v.258l-5.002 2.846zm-3.623 1.984v-.259l3.191-1.811v.259l-3.191 1.811zm12.333-8.624l4.571-2.674v.259l-4.571 2.673v-.258zm5.002-2.846l1.984-1.122v.259l-1.984 1.121v-.258zm-6.209 3.794v-.258l.862-.518v.259l-.862.517zm-5.347 3.105v-.259l5.002-2.846v.259l-5.002 2.846zm-5.779 3.277v-.258l5.347-3.105v.259l-5.347 3.104zm30.531-18.887v-.259l2.673-1.552v.259l-2.673 1.552zm-3.709 2.156v-.259l3.277-1.897v.259l-3.277 1.897zm-2.242 1.294v-.259l1.897-1.121v.258l-1.897 1.122zm-3.622 2.07v-.259l3.277-1.898v.259l-3.277 1.898zm-3.364 1.983v-.259l2.932-1.724v.258l-2.932 1.725zm-3.967 2.242v-.258l3.536-2.07v.259l-3.536 2.069zm-3.881 2.243v-.259l3.536-2.07v.259l-3.536 2.07zm-4.916 2.846v-.259l4.571-2.587v.259l-4.571 2.587zm-4.83 2.76v-.259l4.485-2.587v.258l-4.485 2.588zm25.787-16.128v-.259l7.417-4.312v.259l-7.417 4.312zm-3.622 2.07v-.259l3.277-1.897v.259l-3.277 1.897zm-3.967 2.328v-.258l3.622-2.07v.259l-3.622 2.069zm-1.984 1.122v-.259l1.553-.863v.259l-1.553.863zm-2.328 1.293v-.172l1.983-1.121v.258l-1.983 1.035zm-4.916 2.933v-.259l4.571-2.674v.259l-4.571 2.674zm-1.208.69v-.259l.863-.518v.259l-.863.518zm-5.433 3.104v-.258l5.002-2.846v.258l-5.002 2.846zm-2.329 1.294v-.259l1.984-1.121v.259l-1.984 1.121zm42.259-27.684c-.086 0-.086.086-.086.172v.518l-6.554 3.794v-.517c0-.086 0-.086-.087 0-.086 0-.086.086-.086.172v.518l-6.554 3.795v-.518c0-.086 0-.086-.087 0-.086 0-.086.086-.086.173v.517l-6.554 3.795v-.518c0-.086 0-.086-.087 0-.086 0-.086.087-.086.173v.517l-6.554 3.795v-.517c0-.087 0-.087-.087 0-.086 0-.086.086-.086.172v.518l-6.554 3.794v-.517c0-.086 0-.086-.087 0-.086 0-.086.086-.086.172v.518l-5.606 3.277-.948.517v-4.743l.603-.345c.087 0 .087-.086.087-.172 0-.087-.087-.087-.087 0l-.603.345v-4.744l.603-.345c.087 0 .087-.086.087-.172 0-.087-.087-.087-.087 0l-.603.345v-5.347l.603-.345c.087 0 .087-.087.087-.173s-.087-.086-.087 0l-.603.345v-4.743l.603-.345c.087 0 .087-.087.087-.173s-.087-.086-.087 0l-.603.345v-4.743l.603-.345c.087 0 .087-.086.087-.173 0-.086-.087-.086-.087 0l-1.293.776c-.087 0-.087.087-.087.173s0 .086.087 0l.517-.345v4.743l-.517.345c-.087 0-.087.087-.087.173s0 .086.087 0l.517-.345v4.743l-.517.345c-.087 0-.087.087-.087.173s0 .086.087 0l.517-.345v4.743l-.517.345c-.087 0-.087.086-.087.173 0 .086 0 .086.087 0l.517-.345v4.743l-.517.345c-.087 0-.087.086-.087.173 0 .086 0 .086.087 0l.517-.345v4.829c0 .086 0 .086.086 0l1.035-.603 5.606-3.278v.518c0 .086 0 .086.086 0 .087 0 .087-.087.087-.173v-.517l6.554-3.795v.518c0 .086 0 .086.086 0 .087 0 .087-.087.087-.173v-.517l6.554-3.795v.517c0 .087 0 .087.086 0 .087 0 .087-.086.087-.172v-.518l6.554-3.794v.517c0 .086 0 .086.086 0 .087 0 .087-.086.087-.172v-.518l6.554-3.795v.518c0 .086 0 .086.086 0 .087 0 .087-.086.087-.173v-.517l6.554-3.795v.518c0 .086 0 .086.086 0 .087 0 .087-.087.087-.173V153.7c0 .776-.087.689-.087.776zm-41.914 25.269v.172c0 .087-.086.087-.086.173s-.087.086-.173.172c-.086 0-.086.087-.172.087 0 0-.087 0-.087-.087v-1.121c0-.086 0-.086.087-.172 0-.086.086-.086.172-.173.086 0 .086-.086.173-.086 0 0 .086 0 .086.086v.949zm-.173-.69s-.086 0 0 0c-.086-.086-.086-.086 0 0h-.086v.949c.086 0 .086-.087.086-.087v-.862zm0-4.484c0-.087-.086-.087 0 0-.086-.087-.086 0-.086 0v.086l-.172.086v-.69l.517-.259v.173l-.345.172v.259l.086-.086c.087-.086.173 0 .173 0v.776c0 .086-.086.172-.259.259-.086.086-.172.086-.259 0v-.259l.173-.086v.258h.086l.086-.086v-.603zm-.862-4.917v-.172l.173-.173s0-.086.086-.086l.086-.086v1.38l-.172.086v-1.121l-.173.172zm1.035.259v.173c0 .086-.086.086-.086.172s-.086.086-.172.173c-.087 0-.087.086-.173.086 0 0-.086 0-.086-.086v-1.121c0-.087 0-.087.086-.173 0-.086.086-.086.173-.172.086 0 .086-.087.172-.087 0 0 .086 0 .086.087v.948zm-.172-.69c0-.086-.086-.086 0 0-.086-.086-.086-.086 0 0h-.086v.949c.086 0 .086-.086.086-.086v-.863zm-.863-4.484v-.173l.173-.172s0-.086.086-.086l.086-.087v1.38l-.172.086v-1.121l-.173.173zm.863-.087s-.086-.086 0 0c-.086-.086-.086 0-.086 0v.087l-.173.086v-.69l.518-.259v.173l-.345.172v.259l.086-.086c.086-.087.172 0 .172 0v.776c0 .086-.086.172-.258.259-.087.086-.173.086-.259 0v-.259l.172-.086v.258h.087l.086-.086v-.604zm-1.035-4.571v-.086c0-.086 0-.172.086-.259 0-.086.086-.172.259-.258.086-.087.172-.087.172 0 0 0 .086.086.086.172 0 .173-.086.345-.086.518-.086.172-.172.345-.172.517l.344-.172v.172l-.517.345v-.172c.086-.173.086-.259.173-.432.086-.086.086-.258.086-.345 0-.086.086-.258.086-.345v-.086h-.086l-.086.086v.173l-.345.172z" fill="#748E9D"/><path d="M272.893 159.995v.173c0 .086-.086.086-.086.172s-.087.086-.173.173c-.086 0-.086.086-.172.086 0 0-.087 0-.087-.086v-1.122c0-.086 0-.086.087-.172 0-.086.086-.086.172-.173.086 0 .086-.086.173-.086 0 0 .086 0 .086.086v.949zm-.173-.69s-.086-.086 0 0c-.086-.086-.086-.086 0 0h-.086v.949c.086 0 .086-.086.086-.086v-.863zm-1.034-4.226v-.086c0-.086 0-.172.086-.259 0-.086.086-.172.259-.258.086-.087.172-.087.172 0 0 0 .086.086.086.172 0 .173-.086.345-.086.518-.086.172-.172.345-.172.517l.344-.172v.172l-.517.345v-.172c.086-.173.086-.259.173-.432.086-.086.086-.258.086-.345 0-.086.086-.258.086-.345v-.086h-.086l-.086.086v.173l-.345.172z" fill="#748E9D"/><path d="M272.72 154.821c0-.087-.086-.087 0 0-.086-.087-.086 0-.086 0v.086l-.172.086v-.69l.517-.259v.173l-.345.172v.259l.086-.086c.087-.086.173 0 .173 0v.776c0 .086-.086.173-.259.259-.086.086-.172.086-.259 0v-.259l.173-.086v.259h.086l.086-.087v-.603zm4.744 20.181l-1.466.862v-2.07l1.466-.862v2.07zm2.243-1.208l-1.553.777v-3.45l1.553-.863v3.536zm2.156-1.293l-1.466.862v-5.174l1.466-.863v5.175zm2.156-1.294l-1.466.863v-6.986l1.466-.863v6.986zm2.243-1.293l-1.467.862v-8.883l1.467-.863v8.884zm2.155-1.208l-1.466.862v-8.106l1.466-.863v8.107z" fill="#748E9D"/><path d="M290.659 167.412l-1.466.863v-9.746l1.466-.862v9.745zm2.157-1.293l-1.466.862v-10.435l1.466-.863v10.436zm2.242-1.208l-1.552.863v-9.487l1.552-.863v9.487z" fill="#F2A532"/><path d="M297.214 163.618l-1.466.862v-11.211l1.466-.863v11.212zm2.242-1.294l-1.552.862V150.94l1.552-.863v12.247zm2.157-1.207l-1.467.862v-14.661l1.467-.863v14.662z" fill="#0094EF"/><path d="M303.768 159.823l-1.466.862v-13.109l1.466-.862v13.109zm2.243-1.294l-1.466.863v-13.368l1.466-.863v13.368zm2.156-1.207l-1.466.862V143.35l1.466-.862v14.834z" fill="#EA4040"/><path d="M310.41 156.028l-1.467.863v-16.128l1.467-.862v16.127zm2.156-1.294l-1.466.863v-18.801l1.466-.863v18.801zm2.242-1.207l-1.552.776v-21.561l1.552-.862v21.647z" fill="#95CC09"/><path d="M314.808 128.171l-1.208 1.208h.345l-3.018 5.778-2.156 3.709-3.536 4.053-3.536 1.035s-.086 0-.086.086l-2.588 2.07-11.298 11.729-2.932 2.329-.086.086-8.797 11.47c-.086.087-.086.259 0 .345h.172l.087-.086 8.71-11.47 2.932-2.243 11.298-11.729 2.588-2.07 3.622-1.034c.086 0 .086-.087.172-.087l3.623-4.139s0-.087.086-.087l2.242-3.794 3.019-5.865.345.086v-1.38z" fill="#EA4040"/><path d="M284.795 159.219l-.345.172c-.173.173-.431.432-.604.777-.172.345-.345.862-.259 1.38.087.258.173.344.432.344.258-.086.517-.172.69-.344a2.02 2.02 0 00.603-.604c.173-.173.345-.431.518-.69.172-.259.259-.431.259-.69.086-.259 0-.431-.173-.431-.345-.087-.776-.087-1.035-.087h-.431c-.086 0-.086 0-.086-.086 0 0 0-.086.086-.086 0 0 .172 0 .431-.086h.431c.173 0 .345 0 .604.086.173 0 .259.172.345.259.086.172 0 .258 0 .431-.086.259-.172.517-.345.776-.172.259-.259.518-.517.69-.173.259-.432.431-.604.604-.259.172-.518.345-.863.431-.172 0-.345 0-.517-.086a.475.475 0 01-.259-.431c-.086-.604.086-1.122.345-1.553.173-.431.518-.69.69-.862.259-.173.345-.173.345-.173.086 0 .086 0 .086.086.259.173.259.173.173.173zm16.731-16.041l-.345.172c-.173.173-.431.431-.604.776-.172.345-.345.863-.259 1.38.087.259.173.345.432.345.258-.086.517-.172.69-.345.258-.172.431-.345.603-.603.173-.173.345-.432.518-.69.172-.259.258-.432.258-.69.087-.259 0-.432-.172-.432-.345-.086-.776-.086-1.035-.086h-.431c-.086 0-.086 0-.086-.086 0 0 0-.086.086-.086 0 0 .172 0 .431-.087h.431c.173 0 .345 0 .604.087.172 0 .259.172.345.258.086.173 0 .259 0 .432-.086.258-.173.517-.345.776-.173.259-.259.517-.517.69-.173.259-.432.431-.604.604-.259.172-.518.344-.863.431-.172 0-.345 0-.517-.087a.472.472 0 01-.259-.431c-.086-.603.086-1.121.345-1.552.173-.431.518-.69.69-.863.259-.172.345-.172.345-.172.086 0 .086 0 .086.086.259.086.173.173.173.173zm10.953-12.074l-.345.172c-.173.173-.431.431-.604.776-.172.345-.345.863-.258 1.38.086.259.172.345.431.345.258-.086.517-.172.69-.345.258-.172.431-.345.603-.604.173-.172.345-.431.518-.689.172-.259.259-.432.259-.69.086-.259 0-.432-.173-.432-.345-.086-.776-.086-1.035-.086h-.431c-.086 0-.086 0-.086-.086 0 0 0-.086.086-.086 0 0 .172 0 .431-.087h.431c.173 0 .345 0 .604.087.173 0 .259.172.345.258.086.173 0 .259 0 .432-.086.258-.172.517-.345.776-.172.258-.259.517-.517.69-.173.258-.432.431-.604.603-.259.173-.518.345-.862.432-.173 0-.345 0-.518-.087a.474.474 0 01-.259-.431c-.086-.604.087-1.121.345-1.552.173-.431.518-.69.69-.863.259-.172.345-.172.345-.172.086 0 .086 0 .086.086.259.086.259.173.173.173zm-18.974 19.663l-.345.173c-.172.172-.431.431-.603.776-.173.345-.345.862-.259 1.38.086.259.172.345.431.345.259-.086.518-.173.69-.345.259-.173.431-.345.604-.604.172-.172.345-.431.517-.69.173-.259.259-.431.259-.69.086-.258 0-.431-.173-.431-.345-.086-.776-.086-1.034-.086h-.432c-.086 0-.086 0-.086-.086 0 0 0-.087.086-.087 0 0 .173 0 .432-.086h.431c.172 0 .345 0 .603.086.173 0 .259.173.345.259.087.173 0 .259 0 .431-.086.259-.172.518-.345.776-.172.259-.258.518-.517.69-.172.259-.431.432-.604.604-.258.173-.517.345-.862.431-.173 0-.345 0-.518-.086a.474.474 0 01-.258-.431c-.087-.604.086-1.121.345-1.553.172-.431.517-.689.69-.862.258-.172.345-.172.345-.172.086 0 .086 0 .086.086.259.172.172.172.172.172z" fill="#564956"/><path d="M330.159 216.226c.259-.086.345 0 .518.086.431.173 2.846-.517 2.932-.776.086-.172.172-.431.259-.949.086-.862.172-2.069.172-2.501 0-.258-.086-.258-.345-.431-1.121-.517-2.673-1.294-4.312-1.121-1.294.086-.518.517-1.552 1.639-1.294 1.379-3.019 1.121-5.003 2.069-.431.173-.862.518-1.035.949 0 .086-.086.173-.086.259a.955.955 0 000 .69c.173.603 1.294.948 1.984 1.035 4.053.603 5.606-.69 6.468-.949z" fill="#191619"/><path d="M333.868 214.76c-.173.259-2.501.862-3.105.862-.259 0-.69.173-1.035.259-.862.259-1.983 1.207-5.951.69-.69-.086-1.811-.345-1.983-1.035a1.186 1.186 0 000 .776c.172.604 1.293.949 1.983 1.035 3.968.518 5.52-.776 6.382-1.035.259-.086.345 0 .518.087.431.172 2.846-.518 2.932-.777.086-.172.173-.603.259-1.207.086.172 0 .259 0 .345z" fill="#CD9B38"/><path d="M320.413 202.6c-.172.172-.258.345-.345.603-.086.259 0 .431.087.604.345.69 1.811.862 2.759 1.035 2.157.259 6.124.604 6.383.431.948-.69.603-2.415-.345-3.191-.69-.604-2.243-1.121-2.674-1.035-.259 0-.345.345-.431.518-1.035 1.035-4.312.172-5.434 1.035z" fill="#191619"/><path d="M329.211 204.756c-.259.172-4.226-.173-6.383-.432-.948-.086-2.414-.344-2.759-1.034 0-.087-.087-.087-.087-.173-.086.259-.086.518.087.776.345.69 1.811.863 2.759 1.035 2.157.259 6.124.604 6.383.431.431-.345.603-.862.517-1.466-.086.345-.259.604-.517.863z" fill="#CD9B38"/><path d="M329.556 196.476c-.173-1.466-.173-2.846-.173-4.312 0-1.38 0-2.76-.172-4.053-.259-2.07-.949-4.14-.776-6.21l-5.348-.431c.345 3.795 1.553 7.072 2.329 10.78.517 2.329.259 6.555.086 9.228 0 .518 4.312 2.501 4.485 1.38.604-1.983-.259-4.398-.431-6.382z" fill="#1E171E"/><path d="M333.091 194.838c-.862-5.089-.517-10.177-.69-15.352 0-.172-8.969.863-8.969.863.259 4.657 2.76 10.435 3.364 15.092 1.035 8.883 1.121 16.128 1.121 16.128.431.431 1.466.862 2.07.949 1.207.258 3.708.776 4.484 0 .087-16.645-.69-13.454-1.38-17.68z" fill="#231B23"/><path d="M322.483 148.87c-1.379 1.466-2.069 6.468-1.121 14.489.173 1.293.345 4.398.431 7.503.087 5.002.087 10.522.69 11.298 1.035 1.466 2.933 1.725 4.658 1.983 2.501.259 6.037-.603 6.813-2.242.086-.172.086-.345.086-.604-.086-.948-.431-4.743-.345-6.64 0-2.76-.259-3.45.345-6.814.604-3.363 1.208-5.692 1.552-9.055.087-1.121 0-2.674-.603-3.623-.431-.603-6.124-5.26-8.452-6.382-1.035-.517-2.501-1.207-3.536-.345-.173.087-.345.259-.518.432z" fill="#281E28"/><path d="M333.954 172.501c.345.172.69.431 1.035.431s.69-.087.949-.173c.776-.258 1.552-.776 1.811-1.552.172-.604-.345-6.727-.69-9.056-.345-2.587-.345-4.916-1.898-6.554-.776-.776-5.864 1.207-4.312 6.209.259.863 2.242 5.434 2.242 5.434-.431-.345-1.034-.345-1.466-.087-.603.345-.948 1.035-1.121 1.725-.172.863.259 1.38.863 1.898.948.517 1.724 1.207 2.587 1.725z" fill="url(#paint0_linear)"/><path d="M321.535 152.233l-1.984-.862a1.346 1.346 0 01-.69-.518l-5.692-8.624c-.604-.863 2.674-2.932 3.277-2.07l5.261 6.641c.173.259.431.431.69.517l2.415.776-3.277 4.14z" fill="#281E28"/><path d="M313.342 142.143c.517.603 3.449-1.208 3.018-1.725-.086-.173-.345-.431-.345-.431-.776-.777-3.622.948-2.932 1.811l.259.345z" fill="#fff"/><path d="M314.722 136.278c-.173.086-.259.173-.432.173l-1.725.69s.949-.087 1.812-.259c.172 0 .258 0 .431-.086 0 0 0-.259-.086-.518z" fill="#3F363F"/><path d="M313.256 141.194c-.086-.431 0-1.121-.086-1.725-.087-.431-.087-1.035-.173-1.38-.086-.258-.172-.603 0-.862l.086-.173c-.086-.086-.086-.172-.086-.258v-.087c.086-.258.259-.517.431-.69.173-.172.431-.258.604-.517.086-.086.172-.173.345-.173.172 0 .259.173.345.259.259.431.517.949.69 1.466.086.173.172.432.172.69v2.415c.087.69-2.242 1.639-2.328 1.035z" fill="#FBBD9E"/><path d="M313.083 137.141c.259-.087.431-.173.517-.087.173.087.173.259.173.432.086.345.172.603.345.862 0 .086.086.086.086.173.086 0 .173 0 .259-.087.086-.086.086-.172.086-.258.086-.518.086-1.122-.086-1.639-.086-.345-.259-.086-.431 0l-.949.604z" fill="#F2A883"/><path d="M330.676 168.62c.087.776.604 1.207 1.122 1.552.948.604 1.466.862 2.156.776.431-.086.69-.259.948-.603.259-.518.259-1.208-.086-1.725-.345-.518-2.156-1.553-2.587-1.725-.863-.173-1.639.862-1.553 1.725z" fill="#fff"/><path d="M335.42 167.412l.345-.345c.172-.431-.345-.776-.69-.604.172-.776-.259-1.034-.862-.689 0-.087-.087-.949-.087-1.035-.086-.345-.172-.863-.431-.949-.086 0-.259 0-.345.086-.172.173-.086.345 0 .604.086.431 0 1.035 0 1.207 0 .087-.345.432-1.035.863.086-1.035 0-2.415-.604-2.156-.172.086-.172.345-.172.603 0 .777 0 .949-.173 1.38-.086.259 0 .949 0 1.208v1.035c0 .258.087.517.345.69.604.431 1.898 1.379 2.415 1.034.345-.172 1.121-1.121 1.294-1.379.172-.259.345-.604.345-.949 0-.259-.086-.518-.345-.604z" fill="#FBBD9E"/><path d="M324.209 150.94c1.466-2.157 5.951 1.034 6.123 1.293.345.345.259 3.191-3.105 7.59-.862 1.207-2.156 2.242-4.571 4.829-.776-4.312-1.725-8.969 1.553-13.712z" fill="#352835"/><path d="M323.518 153.786c-.69 3.449-.948 6.813-.776 10.866.69-.948 2.846-4.916 3.364-5.605 1.38-2.07 4.571-6.814 4.312-7.159-.173-.172-.345-.258-.604-.345-.431-.172-.862-.345-1.207-.603-.604-.259-1.294-.604-1.984-.69-.949-.173-1.638 0-2.07.862-.517.863-.862 1.639-1.035 2.674z" fill="#EFEFED"/><path d="M324.209 155.51c-.086.432 0 .69.431.777 2.242.603 4.053-.949 4.14-1.553.086-1.121-.604-2.673-1.035-3.104-.173-.173-3.019-1.639-3.019-1.467 0 1.811.173 3.019-.517 5.347z" fill="#F2A883"/><path d="M325.416 156.718c-.086-.259-.345-.604-.517-.69-.087 0-.863.086-.949.431-.086.259-.173 1.466-.086 1.811l-1.208 3.536c0 1.121 0 1.984.086 2.846.518-.69 1.035-1.552 1.553-2.501l.259-3.708h.086c.259-.173.949-1.38.776-1.725z" fill="#EA4040"/><path d="M329.814 152.061s0 1.207-1.208 2.76c-.948 1.121-3.708 1.207-3.708 1.207l1.811 3.019s4.226-4.14 3.105-6.986z" fill="#fff"/><path d="M324.899 156.028l-2.674.776s.776-4.14 2.674-6.21c0 0-2.07 3.019 0 5.434z" fill="#fff"/><path d="M324.639 151.457c.173 1.121.949 2.07 1.639 3.019.259.258.431.603.69.776.345.259.69.345 1.121.259.345-.087.776-.259.949-.604.172-.173 1.121-1.553 1.38-2.156.603-1.208.69-2.07 1.121-3.105.172-.431.345-.949.259-1.466 0-.086-7.245-1.811-7.245-1.466 0 .776 0 2.501-.086 3.363.086.431.086.949.172 1.38z" fill="#FBBD9E"/><path d="M324.554 146.024c.172-2.415 1.983-3.191 4.139-3.191.604 0 1.294.086 1.898.345.431.258.862.517 1.207.862.604.69 1.035 1.466 1.121 2.415 0 .604-1.207 3.881-1.466 4.053.345-1.38.518-1.638.086-1.725-1.724-.345-3.536-.776-5.26-.172-.69.259-.604 1.552-.863 1.725-.259.172-.259-.345-.259-.518v-.69c0-.345 0-.776-.086-1.121a.66.66 0 00-.172-.431c-.087-.172-.259-.086-.259-.345-.173-.345-.173-.776-.086-1.207z" fill="#2B2119"/><path d="M324.381 147.317c-.777-.086-.345 2.933.345 3.191.258.087.258-.172.258-.517v-1.121c-.086-.604.087-1.553-.603-1.553z" fill="#FBBD9E"/><path d="M316.964 135.588c-2.242.604-2.501.69-2.76.776-.172.087-.086.173-.949.604 0 .086.087 0 .173 0 .259-.086.259.086.345.259.086.086 3.363-.776 3.363-.776.432-.087.173-.949-.172-.863z" fill="#3F363F"/><path d="M245.21 227.869l-13.972-23.286c4.485-3.881 9.142-6.727 13.972-8.02 3.536 1.121 7.158 3.191 10.694 6.123l-10.694 25.183z" fill="#F4F5F6"/><path d="M241.932 242.099l-10.694-6.123V204.67c3.536 1.121 7.158 3.191 10.694 6.123v31.306z" fill="#D2CDCD"/><path d="M255.904 233.992l-13.972 8.021v-31.306c4.744-3.968 9.401-6.641 13.972-8.021v31.306z" fill="#E6E6E2"/><path d="M243.829 209.241v17.421l10.436-6.037V203.29c-3.45 1.293-6.986 3.277-10.436 5.951z" fill="#5E87E3"/><path d="M253.661 217.175l-4.571 2.587-4.57 2.674v-10.263l9.141-5.261v10.263z" fill="#2F5CAD"/><path d="M250.643 208.637V218.9l3.018-1.725v-10.263l-3.018 1.725z" fill="#3665BA"/><path d="M244.519 219.331v3.105l4.571-2.674 4.571-2.587-3.019-1.38-6.123 3.536z" fill="#6D9AF2"/><path d="M252.367 206.998l-6.382 3.709v-1.639l6.382-3.709v1.639z" fill="#E6E6E2"/><path d="M247.71 208.809c0 .345-.259.69-.517.863-.345.172-.518.086-.518-.259s.259-.69.518-.862c.258-.173.517-.087.517.258z" fill="#DD3636"/><path d="M251.678 206.567c0 .345-.259.69-.518.862-.345.173-.517.087-.517-.258s.258-.69.517-.863c.259-.172.518-.086.518.259z" fill="#3665BA"/><path d="M246.588 213.38v-3.449c0-.173.173-.345.345-.345a.37.37 0 01.345.345v3.449c-.086.173-.69.173-.69 0zm3.795-2.242v-3.45c0-.172.173-.345.345-.345.173 0 .345.173.345.345v3.45c0 .172-.69.172-.69 0z" fill="#E6E6E2"/><path d="M244.347 227.61v5.175l9.573-5.52v-5.088l-9.573 5.433zm9.401-.431l-9.228 5.347v-4.743l9.228-5.347v4.743zm1.293 7.331l-.173.086v-31.565c.086 0 .086 0 .173-.086v31.565zm-11.988-24.666c.086 0 .086-.086.173-.172v31.651l-.173.086v-31.565z" fill="#D2CDCD"/><path d="M245.037 201.047c.776.432.776 1.121 0 1.639-.776.431-1.984.431-2.76 0-.776-.431-.776-1.121 0-1.639.776-.431 1.984-.431 2.76 0z" fill="#525252"/><path opacity=".5" d="M238.051 184.057c1.467-.862 3.45-1.38 5.606-1.38 2.156 0 4.14.518 5.606 1.38 1.38.776 2.156 1.811 2.242 2.846v-1.552c-.431-.69-1.121-1.294-1.983-1.811-1.553-.949-3.709-1.38-5.865-1.38-2.242 0-4.312.517-5.864 1.38-.863.517-1.553 1.121-1.984 1.811v1.552c.086-1.035.863-2.07 2.242-2.846z" fill="#4B98AA"/><path opacity=".5" d="M238.051 185.61c1.467-.863 3.45-1.38 5.606-1.38 2.156 0 4.14.517 5.606 1.38 1.38.776 2.156 1.811 2.242 2.846v-1.553c-.431-.69-1.121-1.293-1.983-1.811-1.553-.949-3.709-1.38-5.865-1.38-2.242 0-4.312.518-5.864 1.38-.863.518-1.553 1.121-1.984 1.811v1.553c.086-1.035.863-2.07 2.242-2.846zm0 6.037c1.467-.863 3.45-1.38 5.606-1.38 2.156 0 4.14.517 5.606 1.38 1.38.776 2.156 1.811 2.242 2.846v-1.553c-.431-.69-1.121-1.293-1.983-1.811-1.553-.948-3.709-1.38-5.865-1.38-2.242 0-4.312.518-5.864 1.38-.863.518-1.553 1.121-1.984 1.811v1.553c.086-1.035.863-2.07 2.242-2.846z" fill="#4B98AA"/><path opacity=".5" d="M238.051 193.199c1.467-.862 3.45-1.38 5.606-1.38 2.156 0 4.14.518 5.606 1.38 1.38.776 2.156 1.811 2.242 2.846v-1.552c-.431-.69-1.121-1.294-1.983-1.811-1.553-.949-3.709-1.38-5.865-1.38-2.242 0-4.312.517-5.864 1.38-.863.517-1.553 1.121-1.984 1.811v1.552c.086-1.035.863-1.984 2.242-2.846z" fill="#4B98AA"/><path opacity=".8" d="M249.263 179.659c-3.105-1.811-8.021-1.811-11.125 0-1.553.862-2.329 2.07-2.329 3.191v15.696c0 1.121.776 2.329 2.329 3.191 3.104 1.811 8.02 1.811 11.125 0 1.553-.862 2.329-2.07 2.329-3.191V182.85c0-1.208-.776-2.329-2.329-3.191z" fill="#83CAED"/><path opacity=".5" d="M249.263 179.659c3.105 1.811 3.105 4.657 0 6.468s-8.021 1.811-11.125 0c-3.105-1.811-3.105-4.657 0-6.468 3.018-1.811 8.02-1.811 11.125 0z" fill="#D2F4FF"/><path opacity=".4" d="M249.091 195.441c2.932 1.725 2.932 4.485 0 6.21-2.933 1.725-7.762 1.725-10.781 0-2.932-1.725-2.932-4.485 0-6.21 2.932-1.725 7.762-1.725 10.781 0z" fill="#75B5C9"/><g opacity=".3" fill="#4B98AA"><path opacity=".4" d="M244.865 197.856c-.69-.345-1.725-.345-2.329 0-.345.173-.517.431-.517.69v3.277c0 .259.172.518.517.69.69.345 1.725.345 2.329 0 .345-.172.517-.431.517-.69v-3.277c0-.259-.172-.517-.517-.69z"/><path opacity=".3" d="M244.865 197.856c.69.345.69.949 0 1.38-.69.431-1.725.345-2.329 0-.69-.345-.69-.949 0-1.38.604-.345 1.639-.345 2.329 0zm-.087 3.364c.604.345.604.948 0 1.293s-1.639.345-2.242 0c-.604-.345-.604-.948 0-1.293.603-.345 1.638-.345 2.242 0z"/></g><path opacity=".5" d="M251.591 185.351v1.725c0 1.121-.776 2.242-2.242 3.104-1.466.863-3.45 1.38-5.606 1.38-2.156 0-4.14-.517-5.606-1.38-1.466-.862-2.242-1.897-2.242-3.104v-1.725a3.109 3.109 0 00-.518 1.725c0 1.379.863 2.587 2.502 3.536 1.552.948 3.708 1.379 5.864 1.379 2.242 0 4.312-.517 5.865-1.379 1.638-.949 2.501-2.243 2.501-3.536 0-.604-.173-1.122-.518-1.725z" fill="#D2F4FF"/><path opacity=".5" d="M251.591 186.99v1.724c0 1.122-.776 2.243-2.242 3.105-1.466.863-3.45 1.38-5.606 1.38-2.156 0-4.14-.517-5.606-1.38-1.466-.862-2.242-1.897-2.242-3.105v-1.724a3.108 3.108 0 00-.518 1.724c0 1.38.863 2.588 2.502 3.536 1.552.949 3.708 1.38 5.864 1.38 2.242 0 4.312-.517 5.865-1.38 1.638-.948 2.501-2.242 2.501-3.536 0-.603-.173-1.207-.518-1.724z" fill="#D2F4FF"/><path opacity=".5" d="M251.591 193.026v1.725c0 1.122-.776 2.243-2.242 3.105-1.466.863-3.45 1.38-5.606 1.38-2.156 0-4.14-.517-5.606-1.38-1.466-.862-2.242-1.897-2.242-3.105v-1.725a3.113 3.113 0 00-.518 1.725c0 1.38.863 2.588 2.502 3.536 1.552.949 3.708 1.38 5.864 1.38 2.242 0 4.312-.517 5.865-1.38 1.638-.948 2.501-2.242 2.501-3.536 0-.603-.173-1.207-.518-1.725z" fill="#D2F4FF"/><path opacity=".5" d="M251.591 194.579v1.725c0 1.121-.776 2.242-2.242 3.105-1.466.862-3.45 1.38-5.606 1.38-2.156 0-4.14-.518-5.606-1.38-1.466-.863-2.242-1.898-2.242-3.105v-1.725a3.109 3.109 0 00-.518 1.725c0 1.38.863 2.587 2.502 3.536 1.552.949 3.708 1.38 5.864 1.38 2.242 0 4.312-.518 5.865-1.38 1.638-.949 2.501-2.242 2.501-3.536 0-.604-.173-1.208-.518-1.725z" fill="#D2F4FF"/><path opacity=".3" d="M243.657 186.903c-1.811 0-3.536-.431-4.829-1.121-1.294-.776-2.07-1.811-2.07-2.846 0-1.121.69-2.156 2.07-2.846 1.293-.776 3.018-1.121 4.829-1.121s3.536.431 4.83 1.121c1.294.776 2.07 1.811 2.07 2.846 0 1.121-.69 2.156-2.07 2.846-1.294.69-3.019 1.121-4.83 1.121zm0-7.762c-1.725 0-3.449.432-4.657 1.122-1.207.689-1.897 1.638-1.897 2.587 0 .949.69 1.897 1.897 2.587 1.208.69 2.932 1.121 4.657 1.121s3.45-.431 4.657-1.121c1.208-.69 1.898-1.638 1.898-2.587 0-.949-.69-1.898-1.898-2.587-1.207-.69-2.846-1.122-4.657-1.122zm0 6.986c-1.466 0-2.846-.345-3.967-.949-1.121-.603-1.639-1.466-1.639-2.328 0-.863.604-1.725 1.639-2.415 1.035-.604 2.415-.949 3.967-.949 1.466 0 2.846.345 3.968.949 1.121.604 1.638 1.466 1.638 2.415 0 .862-.604 1.725-1.638 2.328-1.035.69-2.415.949-3.968.949zm0-6.296c-1.466 0-2.759.345-3.794.863-.949.603-1.553 1.293-1.553 2.07 0 .776.518 1.552 1.553 2.069 1.035.604 2.328.863 3.794.863 1.466 0 2.76-.345 3.795-.863.949-.603 1.552-1.293 1.552-2.069 0-.777-.517-1.553-1.552-2.07-1.035-.518-2.329-.863-3.795-.863z" fill="#4B98AA"/><path d="M285.313 227.524c-3.364-.948-4.226-.948-4.744-1.725-.604-.862-2.587-.431-3.708-.086-.432.173-.518.259-.518.604-.172 1.035.086 3.018.173 3.191.172.259 1.293.172 1.552.172.086 0 .259-.086.259-.172s0-.173.172-.173c3.019.432 6.382.518 6.9.432.776-.087 1.293-.777 1.121-1.294-.086-.431-.518-.776-1.207-.949z" fill="#191619"/><path d="M286.521 228.387c-.087.431-.518.776-1.122.948-1.552.345-7.503-.431-7.675-.431-.259 0-1.122.086-1.208 0 0 0-.086-.172-.086-.431h-.086c.086.604.172 1.035.172 1.121.173.259 1.294.172 1.553.172.086 0 .431 0 .431-.086v-.172c3.018.431 6.209.431 6.813.345.863-.173 1.552-.863 1.208-1.466z" fill="#CD9B38"/><path d="M272.635 238.132c0 .259.172.431.345.518.086.086.172.086.345.172.345.173.517.431.776.69.862.949 1.811 1.811 2.932 2.415 3.019 1.725 5.261.604 5.002-.949-.345-1.897-3.881-2.76-4.484-4.139-.087-.259-.259-1.38-.518-1.553-.259-.172-2.673-.345-3.622.173-.345.172-.69.258-.776.69v1.983z" fill="#191619"/><path d="M281.949 240.892c-.345 1.207-2.414 1.811-5.002.345-1.121-.604-2.07-1.466-2.932-2.415-.259-.259-.431-.517-.776-.69-.086-.086-.173-.086-.345-.172-.259-.087-.345-.345-.345-.518v.776c0 .259.172.432.345.518.086.086.172.086.345.172.345.173.517.432.776.69.862.949 1.811 1.811 2.932 2.415 3.019 1.725 5.347.604 5.089-1.035 0 0-.087 0-.087-.086z" fill="#CD9B38"/><path d="M276.084 214.846c-.259 1.898-1.035 2.156-1.207 4.14-.173 1.984.517 3.45.517 6.727 0 1.984 5.434 1.984 5.434 0 0-1.552.517-6.986.948-8.279.345-1.035.604-1.38.949-2.415 1.294-3.881 1.897-9.401 1.897-9.401-.862-.431-2.069-.431-3.191-.345-1.207.086-5.002.173-5.261 1.208-.172.69.087 7.503-.086 8.365z" fill="#231B23"/><path d="M272.893 218.9c-.258 2.846-1.035 3.191-1.207 6.037-.173 2.932.517 6.382.517 11.125 0 1.553 5.434 1.466 5.434-.086 0-2.242.69-10.349 1.121-12.333.345-1.552.69-3.105 1.035-4.571 1.293-5.778 1.552-12.16 1.552-12.16-.862-.69-2.07-.604-3.191-.518-1.207.173-5.002.173-5.261 1.812-.258 1.293.087 9.4 0 10.694z" fill="#231B23"/><path d="M304.89 183.54h-.173a1.891 1.891 0 00-.69.431 4.1 4.1 0 00-.862.863c-.173.258-.345.517-.345.862-.086.345.086.69.172.949.087.172.087.345.345.345.087 0 .259-.086.259-.173.086.173.173.259.345.259a.657.657 0 00.431-.172c.087-.087.087-.259.173-.432 0-.172 0-.517.172-.603.173-.087.173.258.173.345a.66.66 0 00.172.431c.086.086.259.172.431.086.087-.086.087-.259.087-.431-.087-.345-.087-.69-.173-1.035-.086-.518-.172-.949-.259-1.466-.172-.086-.172-.173-.258-.259z" fill="#F2A883"/><path d="M310.927 180.263l-10.694 6.727 6.123 5.519 10.781-6.64-6.21-5.606z" fill="#FCFCFC"/><path d="M306.269 185.006a.737.737 0 00-.603 0c-.173 0-.431.086-.604-.086-.172-.259-.345-.69-.086-.949.086-.086.172-.172.259-.172l.862-.518v-.086l-.259-.259c-.086-.086-.258-.086-.431-.086h-1.897c-.173 0-.259 0-.432.086-.086.086-.258.086-.344.173-.345.258-.777.517-1.122.776-.086.086-.258.172-.345.172-.172 0-.258-.086-.345-.086-.086-.086-.172-.086-.258-.172-.518-.259-1.122-.087-1.38.517-.173.431-.345.863-.431 1.294a4.796 4.796 0 011.466.776c.086.086.258.172.345.259.172.086.258 0 .431 0 1.725-.173 3.45-.604 5.088-.863a.657.657 0 00.431-.172c0-.259-.172-.518-.345-.604z" fill="#FBBD9E"/><path d="M297.3 186.559c1.466.086 2.932.172 3.795.258 1.207.173 1.034-2.846.172-3.104-.69-.173-2.156-.432-3.708-.604 0 1.207-.087 2.328-.259 3.45z" fill="#fff"/><path d="M291.435 182.246c-.604-.345-4.571-3.105-5.951-4.053-1.811-1.294-3.795-2.415-5.606-1.294-.345.173-.69.518-.948.776-.345.777-1.035 2.415-.604 3.019 4.83 3.622 8.021 4.916 11.039 5.951.173.172 8.883.776 11.039.603 1.38-.086 1.208-3.622-.172-3.794-5.261-.777-8.452-.949-8.797-1.208z" fill="#281E28"/><path d="M283.673 176.985a2.409 2.409 0 00-2.501-.431c-5.864 2.501-8.797 6.382-9.228 8.021-.776 2.932 1.38 7.331 1.208 13.626-.087 3.795-1.553 10.177-1.122 11.126.604 1.552 4.83 2.07 6.555 1.725 2.07-.345 3.277-.259 4.312-5.003.173.69.518 1.38.862 1.467.345.086.949-.259 1.122-.604.172-.173.172-.431.172-.69.086-1.035.345-9.832.345-11.125.086-.949.776-15.697-1.725-18.112z" fill="#281E28"/><path d="M275.911 178.71c-3.018 3.364 5.089 5.779 8.711 13.282.086-1.639 1.207-7.762-2.501-13.109-.69-1.035-1.294-1.121-2.501-1.811-.69-.345-.259-.69-1.812.086-.431.345-1.552 1.207-1.897 1.552z" fill="#352835"/><path d="M284.363 188.283a32.5 32.5 0 00-1.38-6.037c-.345-1.035-.948-2.07-1.811-2.76-1.121-1.035-2.242-2.673-2.76-2.414-.345.258-.69.517-1.035.689-.603.259-.776.69-.948 1.208-.087.604 0 1.294.603 2.156 3.364 2.587 5.089 5.261 6.21 7.762.604 1.035 1.121.776 1.121-.604z" fill="#EFEFED"/><path d="M282.38 184.661c.603-.259.948-2.76-.432-1.984-.172.087-.69.432-.776.604-.172.173-.172.604-.086.862.086.345 1.035.69 1.294.518z" fill="#EA4040"/><path d="M281.862 182.677l1.638.604s-1.121-2.846-1.897-3.45c1.466 2.243.259 2.846.259 2.846z" fill="#fff"/><path d="M281.689 181.298c.173-.949.259-.518-.862-2.76-.345-.604-.431-.69-1.035-.863-1.552-.517-1.639-.086-2.415-.258h-.086l-.345-.173c.172 1.38-.086 2.07-.086 2.329-.087.776.69 1.207 1.207 1.811.345.345.604.69.949 1.035.345.258 1.552.862 1.897.776.345-.086.776.086.776-.259 0-.259-.086-.948 0-1.638z" fill="#F2A883"/><path d="M281 185.006l.776-2.242s-1.725.258-4.485-2.674c0 0-.862-1.035-.517-1.897 0 0-.604.862-.604 1.638 0 .777 3.191 4.054 4.83 5.175z" fill="#fff"/><path d="M276.946 176.813c.259.604.517 1.207.949 1.811 1.035 1.552 3.363 2.587 4.053 2.674.863.172 1.811.345 1.897-.518.173-1.897.949-5.951.345-7.417-.948-2.156-6.554-.862-7.416 0-.259.259-.432.949-.432 1.38 0 .259.087.345.173.604.259.517.259 1.035.431 1.466z" fill="#FBBD9E"/><path d="M277.895 176.295c.172.345.172 1.38.345 1.467.086.086.431.258.517.172.173-.086.086-.259.086-.431-.086-1.38.173-1.639.518-2.07 1.121-1.207 4.657-2.846 4.916-1.552.086-.432.086-.949 0-1.553-.259-1.811-1.639-2.846-3.364-3.363-1.725-.518-7.417.862-4.657 7.589.086.259.345.518.604.69.259.173.431.345.431.345.086-.431-.172-.862-.345-1.294-.431-1.207.604-.862.949 0z" fill="#724A2F"/><path d="M277.895 176.295c.259.777-.086 1.122.517 2.415-.603 0-.776-.517-.948-.776-2.07-2.07-.173-3.536.431-1.639z" fill="#FBBD9E"/><path d="M284.277 188.111l-1.638-3.881-.431.345.948 4.14a25.23 25.23 0 011.38 3.363c.086-1.207 0-2.587-.259-3.967z" fill="#EA4040"/><path d="M278.672 186.213c.603 3.623 1.293 10.091 1.897 11.04.604.948 4.657 3.104 7.158 4.139 1.035.518-.603 4.571-1.983 3.968-1.725-.863-8.711-4.054-9.401-4.83-.776-.776-3.191-8.538-4.14-12.592-.345-1.38-.345-2.501.087-3.363.603-1.121 1.811-1.725 3.104-1.466 2.07.345 3.191 2.673 3.278 3.104z" fill="url(#paint1_linear)"/><path d="M287.986 201.91l-.432-.173c-.862-.345-2.587 2.846-1.552 3.364l.259.172c1.207.432 2.587-2.932 1.725-3.363z" fill="#fff"/><path d="M289.538 206.912c.345.259.777.345 1.466.431.777.086 1.639-.086 1.898-.172.086-.087.172-.087.345-.173l.517-.259c.345-.258.518-.776.173-.948-.173-.087-1.035-.173-1.553-.173-.258 0-.517-.086-.69-.172-.603-.259-1.207-.518-1.379-.776-.173-.259-.345-.777 0-1.208.086-.086.172-.172.258-.172.604-.173.863-.949.604-1.467 0-.086-.086-.086-.086-.172-.086-.086-.173 0-.259 0-.172.086-.172.259-.345.431-.172.173-.345.259-.517.259a2.668 2.668 0 01-1.639 0c-.173-.086-.259-.086-.431 0-.431.172-.776.604-1.035 1.121-.345.949-.173 1.294.172 1.466.259.259 1.294 1.121 2.501 1.984z" fill="#FBBD9E"/><path d="M390.53 205.877l-.431.086-1.466 5.951c-.086.345-.345.69-.604.862l-3.363 1.984v.518l.948.517v-.517l3.364-1.984c.258-.173.517-.518.603-.863l1.467-5.95.431-.087-.949-.517z" fill="#443F3E"/><path d="M390.961 206.567l-1.466 5.951c-.086.345-.345.69-.604.862l-3.363 1.984v.517l3.363-1.983c.518-.259.863-.863 1.035-1.467l1.466-5.95-.431.086zm-15.35 1.466c-.086-.431-.345-.776-.69-.949l-.69-.431c.345.173.517.518.69.949l3.277 11.815.69.431-3.277-11.815zm-14.317 7.331l-3.191 15.783.69.344 3.45-15.955-.949-.172z" fill="#332F2E"/><path d="M374.662 206.049c-.604-.345-1.38-.258-2.243.173l-8.107 4.657c-1.379.776-2.673 2.587-3.018 4.398l.949.518c.345-1.811 1.38-3.709 2.759-4.485l8.107-4.657c.863-.517 1.639-.517 2.243-.172l-.69-.432z" fill="#443F3E"/><path d="M376.128 207.602c-.345-1.38-1.639-1.725-3.019-.949l-8.106 4.657c-1.38.776-2.674 2.587-3.019 4.399l-3.191 15.782.604-.345 3.191-15.61c.258-1.466 1.293-2.932 2.501-3.622l8.107-4.657c1.121-.69 2.156-.345 2.501.776l3.277 11.815.604-.345-3.45-11.901z" fill="#332F2E"/><path d="M379.492 199.581l-.432.086-1.466 5.951c-.086.345-.345.69-.604.863l-3.363 1.983v.518l.949.517v-.517l3.363-1.984c.259-.172.518-.517.604-.862l1.466-5.951.431-.086-.948-.518z" fill="#443F3E"/><path d="M379.923 200.185l-1.467 5.951a1.58 1.58 0 01-.603.862l-3.364 1.984v.517l3.364-1.983c.517-.259.862-.863 1.035-1.467l1.466-5.95-.431.086z" fill="#332F2E"/><path d="M374.144 206.481h-.172l-11.557 6.727c-.604.345-1.207 1.035-1.725 1.811l-.172.345c-.086.172-.086.345 0 .431l15.092 8.797c-.086-.086-.086-.259 0-.431l.173-.345a4.981 4.981 0 011.725-1.812l11.556-6.727h.173l-15.093-8.796z" fill="#332F2E"/><path d="M389.064 215.277l-11.557 6.727c-.603.345-1.207 1.035-1.724 1.812l-.173.345c-.086.172-.086.345 0 .431h.173c.086 0 .086-.086.172-.173l.173-.345c.345-.603.862-1.121 1.293-1.38l11.557-6.727a.474.474 0 00.259-.431c.086-.259 0-.345-.173-.259zm2.416 1.984c-.087-.431-.345-.776-.69-.949l-.69-.431c.345.173.517.518.69.949l3.277 11.815.69.432-3.277-11.816zm-14.317 7.245l-3.191 15.782.69.432 3.449-16.042-.948-.172z" fill="#332F2E"/><path d="M390.53 215.191c-.603-.345-1.38-.258-2.242.173l-8.107 4.657c-1.38.776-2.673 2.587-3.018 4.398l.948.518c.345-1.811 1.38-3.709 2.76-4.485l8.107-4.657c.862-.517 1.639-.517 2.242-.173l-.69-.431z" fill="#443F3E"/><path d="M392.083 216.744c-.345-1.38-1.639-1.725-3.019-.949l-8.107 4.657c-1.38.776-2.673 2.587-3.018 4.399l-3.191 15.782.603-.345 3.191-15.61c.259-1.466 1.294-2.932 2.501-3.622l8.107-4.657c1.121-.69 2.156-.345 2.501.776l3.278 11.815.603-.345-3.449-11.901z" fill="#332F2E"/><path d="M392.601 196.563c-1.811-1.035-6.641-3.881-11.73-6.727-.689-.345-1.121-.259-1.379-.173l-.518.259 11.557 21.819h.172c.173-.086.69-.258.776-.344.432-.259.69-.69.777-1.294.086-.345 1.725-10.091 1.725-10.091.258-1.552-.345-2.759-1.38-3.449z" fill="#443F3E"/><path d="M391.91 196.735l-11.729-6.727a1.552 1.552 0 00-1.207-.172c-.776.258-1.035.948-1.121 1.552-.173 1.035-1.553 9.056-1.725 10.004 0 .173 0 .173 0 0-.173 1.294.345 2.588 1.466 3.277 2.156 1.208 9.314 5.348 11.729 6.727.69.345 1.121.259 1.38.173.517-.173.949-.69 1.035-1.466l1.725-10.004c.172-1.208-.518-2.76-1.553-3.364z" fill="#2F5CAD"/><path d="M381.647 212.604l.777 3.967-.259 1.294s-.345 1.207-2.76-.776c-2.415-1.898 2.242-4.485 2.242-4.485z" fill="#231B23"/><path d="M349.824 237.442c.345-.517 1.638-1.035 2.846-1.552 1.293-.518 3.018-1.207 3.105-1.38.086-.172 0-.345.172-.431.086-.086.172-.086.259-.086.862-.173 1.811 0 2.587.345.345.172.776.948.776.948 0 .431 0 1.984-.086 2.243 0 0-1.897.776-1.984.776-.172.086-.258-.173-.431-.173-1.38.69-3.105 1.294-3.967 1.38-.949.086-3.019.518-3.45-.604-.086-.431-.086-1.034.173-1.466z" fill="#191619"/><path d="M349.737 238.391c.518 1.035 2.588.69 3.45.604.776-.087 6.382-2.329 6.382-2.329.086.604 0 .776-.086.863 0 0-1.897.776-1.984.776-.172.086-.258-.173-.431-.173-1.38.69-3.105 1.294-3.967 1.38-.949.086-3.019.518-3.536-.604-.086-.258-.173-.603-.086-.948.172.172.258.345.258.431z" fill="#CD9B38"/><path d="M376.3 213.294c-3.019 1.639-8.625 4.312-11.557 5.951-.604.345-1.035 1.035-1.035 1.725-.086 4.657-1.725 5.174-3.708 13.971-.345 1.38-4.83.604-4.571-.431.69-3.277 2.587-13.454 2.846-15.869.172-1.552-.259-2.328.603-3.622 1.208-1.984 10.091-6.813 13.541-8.883.086 0 3.536.517 4.484 2.07 1.208 1.811-.086 4.743-.603 5.088z" fill="#231B23"/><path d="M370.866 240.633c-1.38.604-3.018 0-3.449-.689-.604-.949 1.38-2.76 2.242-5.348.086-.172.517-1.897.517-1.897 1.035-.259 3.536-.086 3.968.862.172.345-.173 1.38-.259 1.812-.604 2.156-1.121 4.398-3.019 5.26z" fill="#191619"/><path d="M367.417 239.253c.431.69 2.07 1.38 3.45.69 1.293-.603 1.897-1.811 2.328-3.104.259-.69.776-2.846.863-3.278.086.345-.259 1.467-.345 1.812-.518 2.242-.949 4.484-2.933 5.347-1.38.603-3.018 0-3.449-.69-.173-.259-.173-.604 0-.949 0 .086.086.172.086.172z" fill="#CD9B38"/><path d="M382.078 216.571l-6.21 8.711s-.258 3.019-1.724 8.193c-.173 1.38-4.313.604-4.054-.862 0 0-.862-6.9-.604-8.97.259-2.069 6.814-13.195 6.814-13.195 3.277-.086 5.864 1.121 5.778 6.123z" fill="#231B23"/><path d="M370.436 204.497c-.087-5.347-2.07-18.887.862-18.629 2.587.259 4.226.69 6.641 1.984 1.121.69 4.226 2.07 5.606 4.053.345.518.517 1.208.603 1.812 0 3.536.173 8.796.087 11.642-.087 2.415.258 3.709.345 4.571.258 2.846-1.294 5.175-2.501 7.762-.173-1.293-.69-3.277-2.243-4.139-1.552-.863-3.536-.69-4.829-1.984-.518-.517-1.294-1.035-1.122-2.156-.172.604-.345 1.121-1.034 1.121-.777.086-1.639-.259-2.329-.604-1.035-.431-2.242-1.466-3.709-1.207 1.812-1.38 3.623-2.587 3.623-4.226z" fill="#281E28"/><path d="M366.642 196.821c-.087.259-5.261 4.744-5.52 4.916-.949.949 1.897 3.623 2.674 2.933.431-.432 5.778-4.83 6.037-5.434 1.121-2.242 2.328-6.382 2.932-8.883.172-.69.259-1.466.172-2.156-.086-.776-.258-2.415-1.121-2.415-2.846.086-3.967 7.072-5.174 11.039z" fill="url(#paint2_linear)"/><path d="M360.949 202.427l.259-.259c.862-.603 2.846 1.812 2.328 2.415l-.345.345c-.69.604-3.018-1.638-2.242-2.501z" fill="#fff"/><path d="M384.234 194.579c-.258 2.932-.862 5.865-1.035 8.797-.086.69 0 2.07-3.191 2.932-.603.173-3.881 1.121-5.605 1.294-1.035.172-1.38 0-1.639-.518-.69-1.035-1.466-3.104.345-3.536 1.811-.431 6.123-1.552 6.123-1.552.173-2.07 0-8.107.69-9.487.604-1.639 4.657-1.897 4.312 2.07z" fill="url(#paint3_linear)"/><path d="M372.419 203.98c.086 0 .172 0 .172-.087 1.984-.431 2.501 3.278 1.121 3.536h-.172c-.949.087-1.207 0-1.466-.431-.518-.862-1.208-2.673.345-3.018z" fill="#fff"/><path d="M376.645 186.558c1.294.432 2.242 1.467 2.156 2.933-.086.69-3.708 9.055-5.088 12.16-1.208-2.415-2.243-5.175-3.019-9.055-.172-.69-.259-1.38-.172-2.157 0-1.466.431-3.018 1.638-3.794 1.811-1.208 3.364-.518 4.485-.087z" fill="#352835"/><path d="M373.195 199.236c.086.518.863.518 1.035 0 .604-2.76 1.725-7.244 2.329-8.71.862-2.07.517-3.019.517-3.019s-.172-.862-1.293-.776c-1.122.086-3.105 1.207-3.105 1.207s-1.035 3.536-.863 4.83c.087.862.863 4.226 1.38 6.468z" fill="#EFEFED"/><path d="M372.591 187.852l4.054-1.466s-.173.862.345 2.07c.431.862-1.035 3.277-2.329 3.967-.949.517-1.897.259-1.983-.518-.087-.776-.087-4.053-.087-4.053z" fill="#F2A883"/><path d="M372.591 192.423s.259-.086.432 0c.086 0 .345.086.431.172.259.087.862.604.862.69 0 .345-.258 1.122-.603 1.38l.517 4.313-.604 2.501-.776-3.278.259-3.536c-.345-.431-.604-2.07-.518-2.242z" fill="#EA4040"/><path d="M373.454 192.595l-2.07-.172s.259-1.38 1.208-4.398c-1.035 3.794.862 4.57.862 4.57z" fill="#FCFCFC"/><path d="M377.507 188.369c.086.863-1.121 4.485-1.897 6.21-.776-.69-1.466-1.38-2.156-1.984.603-.086 1.38-.517 1.811-.948 1.811-1.984 1.897-3.45 1.466-4.657.259.344.69.689.776 1.379z" fill="#FCFCFC"/><path d="M376.645 186.645a7.542 7.542 0 01-1.897 2.673c-.949.863-1.984 1.466-2.329 1.725-.776.431-2.069.086-2.069-.69-.173-1.811-.863-5.606-.345-6.899.862-1.984 6.123-.777 6.899 0 .259.258.345.862.431 1.293 0 .259-.086.345-.172.604-.259.431-.345.862-.518 1.294z" fill="#FBBD9E"/><path d="M375.783 186.127c-.087.345-.173 1.294-.259 1.38-.086.086-.431.259-.518.172-.086-.086-.086-.258-.086-.431 0-1.293-.172-1.552-.517-1.897-1.035-1.121-4.312-2.587-4.571-1.466-.086-.345-.086-.863 0-1.38.259-1.639 1.552-2.587 3.191-3.191 1.552-.518 6.468.69 4.571 6.382-.173.517-.432.949-.776 1.38-.259.172-.432.258-.432.258-.086-.431.173-.776.259-1.121.431-1.121-.517-.862-.862-.086z" fill="#724A2F"/><path d="M375.783 186.127c-.259.69 0 1.121-.518 2.329.086 0 .69-.518.949-.777 1.897-1.897.172-3.277-.431-1.552z" fill="#FBBD9E"/><path d="M423.216 224.764l-.431.087-1.466 5.95c-.086.345-.345.69-.604.863l-3.363 1.983v.518l.948.517v-.517l3.364-1.984a1.58 1.58 0 00.603-.862l1.467-5.951.431-.086-.949-.518z" fill="#443F3E"/><path d="M423.733 225.368l-1.466 5.951c-.086.345-.345.69-.604.862l-3.363 1.984v.517l3.363-1.983c.518-.259.863-.863 1.035-1.466l1.466-5.951-.431.086zm-15.437 1.552c-.086-.431-.345-.776-.69-.948l-.69-.432c.345.173.517.518.69.949l3.277 11.815.69.432-3.277-11.816zm-14.317 7.331l-3.191 15.783.69.345 3.45-15.956-.949-.172z" fill="#332F2E"/><path d="M407.347 224.937c-.604-.345-1.38-.259-2.243.172l-8.106 4.657c-1.38.776-2.674 2.588-3.019 4.399l.949.517c.345-1.811 1.38-3.708 2.759-4.485l8.107-4.657c.863-.517 1.639-.517 2.243-.172l-.69-.431z" fill="#443F3E"/><path d="M408.899 226.489c-.345-1.38-1.639-1.725-3.019-.949l-8.106 4.657c-1.38.777-2.674 2.588-3.019 4.399l-3.191 15.782.604-.345 3.191-15.61c.258-1.466 1.293-2.932 2.501-3.622l8.107-4.657c1.121-.69 2.156-.345 2.501.776l3.277 11.816.604-.345-3.45-11.902z" fill="#332F2E"/><path d="M412.177 218.382l-.432.087-1.466 5.95c-.086.345-.345.69-.603.863l-3.364 1.983v.518l.949.517v-.517l3.363-1.984c.259-.172.518-.517.604-.862l1.466-5.951.431-.086-.948-.518z" fill="#443F3E"/><path d="M412.695 219.072l-1.467 5.951a1.58 1.58 0 01-.603.862l-3.364 1.984v.518l3.364-1.984c.517-.259.862-.863 1.035-1.466l1.466-5.951-.431.086z" fill="#332F2E"/><path d="M406.916 225.368h-.172l-11.557 6.727c-.604.345-1.207 1.035-1.725 1.811l-.172.345c-.086.173-.086.345 0 .431l15.092 8.797c-.086-.086-.086-.259 0-.431l.173-.345a4.978 4.978 0 011.725-1.811l11.556-6.727h.173l-15.093-8.797z" fill="#3665BA"/><path d="M421.837 234.165l-11.557 6.727c-.604.345-1.207 1.035-1.725 1.811l-.172.345c-.087.172-.087.345 0 .431h.172c.086 0 .086-.086.173-.172l.172-.345c.345-.604.862-1.122 1.294-1.38l11.556-6.727a.475.475 0 00.259-.431c0-.259-.086-.345-.172-.259zm2.328 1.983c-.087-.431-.345-.776-.69-.948l-.69-.431c.345.172.517.517.69.948l3.277 11.816.69.431-3.277-11.816zm-14.231 7.245l-3.277 15.783.69.431 3.449-16.042-.862-.172z" fill="#332F2E"/><path d="M423.215 234.078c-.603-.345-1.379-.258-2.242.173l-8.107 4.657c-1.38.776-2.673 2.587-3.018 4.399l.948.517c.345-1.811 1.38-3.708 2.76-4.485l8.107-4.657c.863-.517 1.639-.517 2.242-.172l-.69-.432z" fill="#443F3E"/><path d="M424.768 235.631c-.345-1.38-1.639-1.725-3.019-.949l-8.107 4.657c-1.38.777-2.673 2.588-3.018 4.399l-3.191 15.782.603-.345 3.191-15.61c.259-1.466 1.294-2.932 2.501-3.622l8.107-4.657c1.121-.69 2.156-.345 2.501.776l3.278 11.815.603-.344-3.449-11.902z" fill="#332F2E"/><path d="M425.286 215.45c-1.811-1.035-6.641-3.881-11.729-6.727-.69-.345-1.121-.259-1.38-.172l-.517.258 11.556 21.82h.173c.172-.086.69-.259.776-.345.431-.259.69-.69.776-1.294.086-.345 1.725-10.09 1.725-10.09.259-1.552-.259-2.846-1.38-3.45z" fill="#443F3E"/><path d="M424.596 215.622l-11.729-6.727a1.56 1.56 0 00-1.207-.172c-.776.259-1.035.949-1.121 1.552-.173 1.035-1.553 9.056-1.725 10.005 0 .172 0 .172 0 0-.173 1.293.345 2.587 1.466 3.277 2.156 1.207 9.314 5.347 11.729 6.727.69.345 1.121.259 1.38.172.517-.172.949-.69 1.035-1.466l1.725-10.004c.172-1.207-.518-2.76-1.553-3.364z" fill="#2F5CAD"/><path d="M406.571 208.033c-.69 3.191-5.778 7.935-7.072 9.142-.172.173-.431.259-.69.259-1.638 0-7.848-.086-9.055-.173-1.466-.086-1.553-2.587-.432-2.759 1.984-.345 6.814-.432 7.849-.432.086 0 .258-.086.258-.172.432-.776 2.501-4.399 3.623-6.124.517-.776 1.38-2.328 2.242-2.673 1.811-.69 3.622 1.035 3.277 2.932z" fill="url(#paint4_radial)"/><path d="M404.76 252.276c1.553 1.208.431 2.674.259 3.364-.173.603-.259 1.725-.259 2.242 0 .345-1.035.431-.948 0v-.604c-1.208 2.588-1.984 3.278-2.588 3.623-.603.345-1.983.172-2.501-.173-1.293-.862.259-2.587.776-3.191.432-.604 1.467-1.38 2.243-3.191.862-2.07 1.293-3.45 3.018-2.07zm-8.883-21.388c1.983-1.035 3.363-1.725 5.433-2.846.949-.518 2.242-1.035 2.501-2.07l12.764 2.07c.431 1.811.604 3.708 0 5.433-.862 2.329-2.76 3.191-4.916 4.398-1.552.863-5.433 2.846-7.417 3.881-.862.432-2.501 0-3.363-.431-2.415-1.207-3.795-1.897-5.261-3.622-.863-.949-1.208-1.811-1.466-3.019-.259-1.466 0-2.932 1.725-3.794z" fill="#231B23"/><path d="M405.364 205.273c-1.466-.776-2.674.259-3.364 1.898-.431.948-.258 2.07-.086 3.105.173 1.034.431 2.069.173 3.104-.173.69-.604 1.38-.69 2.156-.173.777.086 1.639.517 2.329.345.431.776.776 1.121 1.121 1.035 1.208 1.122 2.846.949 4.399-.259 1.552-.345 2.069-.517 2.759-.604 2.329 3.881 4.226 6.295 4.399 3.278.259 6.727-.69 7.159-1.984-.087-1.466-.777-2.501-1.984-4.484-1.639-2.674-2.242-4.399-1.811-6.641.172-1.035.69-1.984 1.294-2.933.258-.431.517-1.034.603-1.638.173-.949-.172-1.984-.948-2.501-1.122-.863-3.019-1.811-3.795-2.243-2.07-1.121-3.105-1.897-4.916-2.846z" fill="url(#paint5_radial)"/><path d="M412.178 200.875c0 1.897-1.035 3.795.172 6.727 0 0-.862-.086-.948-.086-.345-.086-.604-.345-.863-.604-1.207-1.207-1.294-1.552-1.38-2.501-.259-3.363-.172-1.984-1.897-5.778-.173-.345-1.121.172-.863-.173 1.812-2.76 5.865-1.638 5.779 2.415z" fill="#2B2119"/><path d="M408.986 198.546c1.208.863.604 1.984-.431 1.984-.69 0-1.552-.517-1.638-1.207-.173-.777.948-1.553 2.069-.777z" fill="#3665BA"/><path d="M406.658 207.861l-.862 3.708-1.725.345s.517-1.121 1.293-2.673c.259-.518 1.208-1.38 1.294-1.38z" fill="#fff"/><path d="M408.986 205.619c-.776.776-3.104 3.018-3.104 3.018-.173 1.121-.518 1.811 0 2.846l.172.863.345-.518c1.035-.172 2.415-1.38 2.76-1.897.345-.518.69-1.38.517-1.984-.086-.259-.431-1.121-.517-1.552-.086-.345-.086-.345-.173-.776z" fill="#F2A883"/><path d="M409.504 207.429c.345.259.776.69.862 1.208.086.345-.086 1.294-1.552 4.398-.173.345-.259.604-.431.949l-1.984-2.07c1.552-1.035 3.795-2.932 3.105-4.485z" fill="#fff"/><path d="M409.848 201.737c.087.432.345 2.933-.431 4.916-1.121 2.76-3.708 3.623-4.053 3.795-.604.173-1.121-.259-1.294-.776-1.121-2.243-2.501-5.951-1.466-7.676.862-1.466 1.725-2.328 2.932-2.76.949-.258 3.881.173 4.312 2.501z" fill="#FBBD9E"/><path d="M402.173 201.134c.173-.345 1.552-2.243 3.45-2.674 1.638-.345 2.673.259 3.277.69.604.345.949.949 1.208 1.639.258.603.345 1.293.345 1.983 0 .69-.001 1.38-.259 1.984-.259.776-.604 1.466-.949 2.242-.086-.258 0-.603-.086-.948 0-.259-.086-.777-.431-.863-.777-.172-.777 1.294-.863 1.639 0 .086-.086.172-.172.259-.087.086-.173.086-.259.086-.086 0-.086-.086-.173-.173-.258-.431-.431-.862-.603-1.38-1.121-2.156-4.571-2.846-4.571-1.897-.431-1.035-.259-1.897.086-2.587z" fill="#2B2119"/><path d="M403.466 241.754c-2.759.173-6.468-2.846-7.072-3.449-1.121-1.121-2.328-2.501-2.415-4.054 0-.776.173-1.38.604-1.983.173-.345.776-.949 1.725-.604.431.172.776.431 1.035.69.949 1.207 1.466 2.07 1.38 3.105-.086 1.035-.518 2.156-.086 2.501.172.086.603-.69 1.207-1.208.862-.69 1.984-2.156 3.191-1.552.863.431 1.552 1.294 1.897 2.156.259.604.345 1.466.259 2.329-.086 1.121-.517 1.983-1.725 2.069z" fill="#231B23"/><path d="M402.777 240.633c1.035.863 1.725 2.329 1.811 3.709v.776l-.69 4.743c-.086.604-.086 1.467.173 1.898.258.517.862.862.776 1.552 0 .259-.173.518-.259.776-.259.604-2.156 3.968-2.932 4.226-.69.259-1.121-.086-1.466-.345-.173-.086-.345-.258-.345-.431 0-.172.086-.345.258-.517 1.122-1.38 1.553-3.191 1.553-5.002 0-1.812-.431-3.536-.949-5.175a33.238 33.238 0 00-1.035-3.277 6.2 6.2 0 00-.776-1.725c-.345-.604-.69-1.553-.69-2.243.086-.689.259-1.293.604-1.724.431-.518.862-1.035 1.38-1.467.431-.431.776-.689 1.207-1.034.431-.345.863-.432 1.294-.345.69.086 1.466.862 1.897 1.552.69 1.121.69 2.07.69 3.018-.086 0-2.242.949-2.501 1.035z" fill="#FBBD9E"/><path d="M394.755 253.742c1.553 1.208.432 2.674.259 3.364-.172.604-.345 1.552-.345 2.07 0 .345-1.035.431-.948 0v-.432c-1.122 1.208-2.07 2.07-2.847 2.588-.517.345-1.207.517-1.811.345-.603-.173-1.121-.431-1.466-.776-1.035-1.035 2.156-3.019 2.674-3.623.431-.603.862.518 1.638-1.293 1.035-1.984 1.467-2.933 2.846-2.243z" fill="#231B23"/><path d="M390.012 257.796c.518-.69 1.38-1.208 1.811-2.07.432-.949.69-1.984.69-3.019 0-5.95-.517-11.298-.431-13.195v-.949c0-.258-.086-.603-.086-.862-.173-1.121 0-2.501.862-3.277.345-.345 2.933-2.588 3.364-2.846.69 0 2.673 1.897 2.415 4.139-.087.345-.087.777-.173 1.035 0 0-1.725.69-2.415 1.208.259.517.432 1.035.518 1.552.086.518.086 1.035.172 1.466.173 1.294-.603 4.83-.69 5.175-.517 2.76-1.207 3.536-1.38 7.589 0 .345.345.604.432.863.086.431-.173.862-.432 1.207-.776.776-1.897 2.587-2.414 2.932-.604.432-2.156-.086-2.156-.776-.173-.086-.087-.172-.087-.172z" fill="#FBBD9E"/><path d="M376.385 290.31l36.74-21.216v-29.927l-36.74 21.216v29.927z" fill="#BA7E36"/><path d="M374.661 259.348l1.725 1.035v29.927l-1.725-.949v-30.013z" fill="#AA6B26"/><path d="M313.428 254.001l36.826-21.216v-29.926l-36.826 21.215v29.927z" fill="#9B5E21"/><path d="M311.704 223.04l1.811 1.035v29.926l-1.811-.948V223.04z" fill="#AA6B26"/><path d="M374.575 268.49l-73.566-42.518v1.466l73.566 42.518v-1.466z" fill="#AA6B26"/><path d="M423.82 241.496l-49.245 28.46v-1.466l49.245-28.46v1.466z" fill="#BA7E36"/><path d="M374.575 268.49l-73.566-42.518 49.245-28.461 73.566 42.519-49.245 28.46z" fill="#CC944A"/><path d="M415.023 213.035c-.69 3.536-6.468 8.883-6.985 9.228-1.898 1.294-7.504 4.226-8.797 4.83-1.38.69-2.588-1.466-1.725-2.156 1.725-1.466 7.244-4.916 7.589-5.261.345-.345 3.191-5.002 4.485-6.899.517-.777 1.38-2.329 2.242-2.674 1.811-.69 3.623 1.035 3.191 2.932z" fill="url(#paint6_linear)"/><path d="M393.118 228.559c.258-.172 1.035-.862 1.121-1.035.086-.172.431-.69.259-.862-.518-.345-1.035.172-1.553.172-.086 0-.172 0-.259-.086-.517-.431.432-.776.777-.862.345-.173.517-.259.776-.345.086-.087.172-.087.345-.087.259 0 .69.087 1.121.087 1.38.086 1.639 0 1.984-.345.603-.431 1.811 1.466 1.379 1.897-1.552 1.466-2.156 1.897-2.587 2.242-.517.432-1.207.949-1.725.69-.603-.258-.776-.431-1.035-.603-1.035.603-1.638 1.121-1.983.776-.69-.345 1.121-1.466 1.38-1.639z" fill="#FBBD9E"/><path d="M344.39 232.526l-5.433-4.829-11.729 4.398 5.347 4.83 11.815-4.399zm24.494-11.47l-5.433-4.83-11.729 4.399 5.433 4.829 11.729-4.398zm-33.722 5.951l-7.417-3.881-9.4 6.037 7.417 3.795 9.4-5.951z" fill="#FCFCFC"/><path d="M338.353 230.543l-7.417-3.795-9.4 5.951 7.417 3.881 9.4-6.037z" fill="#FCFCFC"/><path d="M338.784 232.181l-7.072-4.053-9.918 5.692 7.072 4.053 9.918-5.692z" fill="#FCFCFC"/><path d="M339.992 227.869l-6.986-4.053-9.918 5.692 7.072 4.053 9.832-5.692zm63.906 11.729l-5.434-4.743-11.729 4.398 5.434 4.83 11.729-4.485z" fill="#FCFCFC"/><path d="M406.14 238.391l-7.416-3.881-9.315 5.951 7.331 3.881 9.4-5.951z" fill="#FCFCFC"/><path d="M404.674 236.062l-7.072-4.053-9.918 5.778 7.072 4.054 9.918-5.779zm-30.616-15.006l-7.331-3.881-9.4 5.951 7.33 3.881 9.401-5.951z" fill="#FCFCFC"/><path d="M372.592 218.727l-7.072-4.053-9.918 5.778 7.072 4.054 9.918-5.779z" fill="#FCFCFC"/><path d="M358.102 203.204c.173-.087 1.121 0 1.639 0 .258 0 .776-.087 1.293-.259.604-.345 2.329 1.466 1.639 1.811-.259.173-.604.259-.69.345-.259.173-.345.518-.345.862 0 .345.086.69-.259.69-.258 0-.431-.172-.517-.431-.173-.345 0-.69-.086-1.035 0-.086 0-.086-.087-.172-.172-.259-.431-.173-.603-.086-.087 0-.345.086-.432.172-.172.259-.258 1.035-.517 1.207-.086.087-.431.087-.431-.172l-.173.517c-.172.259-.517.087-.603-.172-.173.086-.432 0-.518-.173-.172-.258-.086-.517 0-.776 0-.172.173-.517.173-.517-.259-.173-.259-.345-.173-.518.086 0 .259-1.035.69-1.293zm14.058 1.035c-.518-.087-.949-.173-1.121-.173-.604 0-1.898.086-1.553.69.173.259 1.639.086 1.898.172.086 0 0 .087-.087.173-.086.086-.172.086-.345.086-.69.086-1.552.086-2.069.173-.087 0-.087.086-.173.086-.086.086 0 .345.086.431.173.173.518.173.69.173-.172.431.086.776.259.862 0 0-.086.086-.173.345 0 .173.087.431.173.518v.258c.086.087.172.087.259.173.086.086.258.086.431.172.259.086.517.173.776.173s.518 0 .69-.087c.604-.431 1.38-1.293 1.552-1.379.432-.345.518-1.467.087-2.157-.259-.517-.604-.603-1.121-.603 0 0-.173 0-.259-.086z" fill="#FBBD9E"/><path d="M373.368 206.136l-6.641-3.795c-3.191 1.035-6.295 2.846-9.314 5.434l6.641 3.794c2.673-2.328 5.864-4.053 9.314-5.433z" fill="#FCFCFC"/><path d="M370.952 204.066l.345.862c-.259-.086-1.725 0-1.897-.172-.259-.517.948-.69 1.552-.69z" fill="#FBBD9E"/><path d="M377.767 243.824l-13.54-7.848h-.173l13.54 7.848h.173z" fill="url(#paint7_linear)"/><path d="M366.21 260.297l-13.541-7.934v.431l13.541 7.848v-.345z" fill="#D2CDCD"/><path d="M375.007 255.208l-13.541-7.934-8.797 5.088 13.541 7.935 8.797-5.089z" fill="url(#paint8_linear)"/><path d="M377.594 243.824l-13.541-7.848-2.76 11.384 13.627 7.935 2.674-11.471z" fill="#D2CDCD"/><path d="M377.249 243.997l-13.023-7.59-2.587 10.867 13.023 7.59 2.587-10.867z" fill="#281E28"/><path d="M377.594 243.824l-2.673 11.471-8.711 5.002v.345l8.969-5.088 2.588-11.73h-.173z" fill="#E6E6E2"/><path d="M361.121 248.999l-.518-.345c-.086 0-.086-.086 0-.086l.518-.345h.172l.518.345c.086 0 .086.086 0 .086l-.518.345h-.172zm1.121.518l.518-.345c.086 0 .086-.087 0-.087l-.518-.345h-.172l-.518.345c-.086 0-.086.087 0 .087l.518.345h.172zm.863.517l.517-.345c.086 0 .086-.086 0-.086l-.517-.345h-.173l-.517.345c-.087 0-.087.086 0 .086l.517.345h.173zm.948.517l.518-.345c.086 0 .086-.086 0-.086l-.518-.345h-.172l-.518.345c-.086 0-.086.086 0 .086l.518.345h.172zm.863.518l.517-.345c.086 0 .086-.086 0-.086l-.517-.345h-.173l-.517.345c-.087 0-.087.086 0 .086l.517.345h.173zm.862.517l.518-.345c.086 0 .086-.086 0-.086l-.518-.345h-.172l-.518.345c-.086 0-.086.086 0 .086l.518.345h.172zm.949.518l.517-.345c.086 0 .086-.086 0-.086l-.517-.345h-.173l-.517.345c-.086 0-.086.086 0 .086l.517.345h.173zm.862.517l.518-.345c.086 0 .086-.086 0-.086l-.518-.345h-.172l-.518.345c-.086 0-.086.086 0 .086l.518.345h.172zm.863.518l.517-.345c.086 0 .086-.086 0-.086l-.517-.345h-.173l-.517.345c-.087 0-.087.086 0 .086l.517.345h.173zm1.207.69l.517-.345c.087 0 .087-.086 0-.086l-.862-.518h-.172l-.518.345c-.086 0-.086.086 0 .086l.863.518h.172zm-1.466 2.415l.517-.345c.087 0 .087-.087 0-.087l-.517-.345h-.173l-.517.345c-.086 0-.086.087 0 .087l.517.345h.173zm.949.517l.517-.345c.086 0 .086-.086 0-.086l-.517-.345h-.173l-.517.345c-.087 0-.087.086 0 .086l.517.345h.173zm.862.517l.517-.344c.087 0 .087-.087 0-.087l-.517-.345h-.172l-.518.345c-.086 0-.086.087 0 .087l.518.344h.172zm-2.76-.517l.518-.345c.086 0 .086-.086 0-.086l-.518-.345h-.172l-.518.345c-.086 0-.086.086 0 .086l.518.345h.172zm.949.517l.517-.344c.087 0 .087-.087 0-.087l-.517-.345h-.173l-.517.345c-.086 0-.086.087 0 .087l.517.344h.173zm.862.518l.518-.345c.086 0 .086-.086 0-.086l-.518-.345h-.172l-.518.345c-.086 0-.086.086 0 .086l.518.345h.172zm-8.365-8.107l.517-.345c.086 0 .086-.086 0-.086l-.862-.518h-.173l-.517.345c-.086 0-.086.087 0 .087l.862.517c.086.086.173.086.173 0zm.948.517l.518-.344c.086 0 .086-.087 0-.087l-.518-.345h-.172l-.518.345c-.086 0-.086.087 0 .087l.518.344c0 .087.086.087.172 0zm.863.518l.517-.345c.086 0 .086-.086 0-.086l-.517-.345h-.173l-.517.345c-.086 0-.086.086 0 .086l.517.345c0 .086.087.086.173 0zm.862.517l.518-.345c.086 0 .086-.086 0-.086l-.518-.345h-.172l-.518.345c-.086 0-.086.086 0 .086l.518.345c0 .087.172.087.172 0zm.949.518l.517-.345c.087 0 .087-.086 0-.086l-.517-.345h-.173l-.517.345c-.086 0-.086.086 0 .086l.517.345c0 .086.087.086.173 0zm.862.517l.518-.345c.086 0 .086-.086 0-.086l-.518-.345h-.172l-.518.345c-.086 0-.086.086 0 .086l.518.345c0 .087.086 0 .172 0zm.863.518l.517-.345c.086 0 .086-.086 0-.086l-.517-.345h-.173l-.517.345c-.086 0-.086.086 0 .086l.517.345h.173zm.948.517l.518-.345c.086 0 .086-.086 0-.086l-.518-.345h-.172l-.517.345c-.087 0-.087.086 0 .086l.517.345h.172zm.863.518l.517-.345c.087 0 .087-.086 0-.086l-.517-.345h-.173l-.517.345c-.086 0-.086.086 0 .086l.517.345h.173zm.862.517l.518-.345c.086 0 .086-.086 0-.086l-.518-.345h-.172l-.518.345c-.086 0-.086.086 0 .086l.518.345h.172zm-9.228-4.312l.518-.345c.086 0 .086-.086 0-.086l-.518-.345h-.172l-.518.345c-.086 0-.086.086 0 .086l.518.345c0 .086.086.086.172 0zm.863.517l.517-.345c.086 0 .086-.086 0-.086l-.517-.345h-.173l-.517.345c-.086 0-.086.086 0 .086l.517.345c.086.087.173.087.173 0zm.948.518l.518-.345c.086 0 .086-.086 0-.086l-.518-.345h-.172l-.518.345c-.086 0-.086.086 0 .086l.518.345c0 .086.086.086.172 0zm.863.517l.517-.345c.087 0 .087-.086 0-.086l-.517-.345h-.173l-.517.345c-.086 0-.086.086 0 .086l.517.345c0 .087.087.087.173 0zm-4.485-.431l.518-.345c.086 0 .086-.086 0-.086l-.518-.345h-.172l-.518.345c-.086 0-.086.086 0 .086l.518.345h.172zm.863.518l.517-.345c.086 0 .086-.087 0-.087l-.517-.345h-.173l-.517.345c-.087 0-.087.087 0 .087l.517.345h.173zm.862.517l.517-.345c.087 0 .087-.086 0-.086l-.517-.345h-.172l-.518.345c-.086 0-.086.086 0 .086l.518.345h.172zm.862.518l.518-.345c.086 0 .086-.087 0-.087l-.518-.345h-.172l-.517.345c-.087 0-.087.087 0 .087l.517.345h.172zm5.693 3.191l.517-.345c.086 0 .086-.087 0-.087l-.862-.517h-.173l-.517.345c-.087 0-.087.086 0 .086l.862.518c0 .086.086.086.173 0zm-2.933-3.795l.518-.345c.086 0 .086-.086 0-.086l-.518-.345h-.172l-.518.345c-.086 0-.086.086 0 .086l.518.345c.086.086.172.086.172 0zm.949.517l.517-.345c.087 0 .087-.086 0-.086l-.517-.345h-.173l-.517.345c-.086 0-.086.086 0 .086l.517.345c0 .087.087.087.173 0zm.862.518l.518-.345c.086 0 .086-.086 0-.086l-.518-.345h-.172l-.518.345c-.086 0-.086.086 0 .086l.518.345c0 .086.086.086.172 0zm.863.517l.517-.345c.087 0 .087-.086 0-.086l-.517-.345h-.173l-.517.345c-.086 0-.086.086 0 .086l.517.345c.087.086.173.086.173 0zm.948.518l.518-.345c.086 0 .086-.087 0-.087l-.518-.344h-.172l-.517.344c-.087 0-.087.087 0 .087l.517.345c0 .086.086.086.172 0zm1.122.69l.517-.345c.086 0 .086-.087 0-.087l-.862-.517h-.173l-.517.345c-.087 0-.087.086 0 .086l.862.518h.173zm-8.883-4.054l.517-.345c.086 0 .086-.086 0-.086l-.862-.517h-.173l-.517.344c-.087 0-.087.087 0 .087l.862.517h.173zm.862.518l.517-.345c.087 0 .087-.087 0-.087l-.517-.345h-.172l-.518.345c-.086 0-.086.087 0 .087l.518.345h.172zm.862.517l.518-.345c.086 0 .086-.086 0-.086l-.518-.345h-.172l-.518.345c-.086 0-.086.086 0 .086l.518.345h.172zm.949.518l.518-.345c.086 0 .086-.087 0-.087l-.518-.345h-.172l-.518.345c-.086 0-.086.087 0 .087l.518.345h.172zm.863.517l.517-.345c.086 0 .086-.086 0-.086l-.517-.345h-.173l-.517.345c-.087 0-.087.086 0 .086l.517.345h.173zm2.328 2.415l.518-.345c.086 0 .086-.086 0-.086l-4.14-2.415h-.173l-.517.345c-.086 0-.086.086 0 .086l4.14 2.415h.172zm-1.466-1.897l.517-.345c.087 0 .087-.087 0-.087l-.517-.345h-.172l-.518.345c-.086 0-.086.087 0 .087l.518.345h.172zm.949.517l.517-.345c.086 0 .086-.086 0-.086l-.517-.345h-.173l-.517.345c-.087 0-.087.086 0 .086l.517.345h.173zm.862.431l.518-.345c.086 0 .086-.086 0-.086l-.518-.345h-.172l-.518.345c-.086 0-.086.086 0 .086l.518.345c0 .086.086.086.172 0zm.863.518l.517-.345c.086 0 .086-.087 0-.087l-.517-.345h-.173l-.517.345c-.087 0-.087.087 0 .087l.517.345c0 .086.173.086.173 0zm.948.517l.518-.345c.086 0 .086-.086 0-.086l-.518-.345h-.172l-.518.345c-.086 0-.086.086 0 .086l.518.345c0 .086.086.086.172 0zm4.14-.776l.517-.345c.087 0 .087-.086 0-.086l-.517-.345h-.173l-.517.345c-.086 0-.086.086 0 .086l.517.345h.173zm.862.517l.518-.345c.086 0 .086-.086 0-.086l-.518-.345h-.172l-.518.345c-.086 0-.086.086 0 .086l.518.345h.172zm.949.518l.518-.345c.086 0 .086-.086 0-.086l-.518-.345h-.172l-.518.345c-.086 0-.086.086 0 .086l.518.345h.172zm-.949.517l.518-.345c.086 0 .086-.086 0-.086l-.518-.345h-.172l-.518.345c-.086 0-.086.086 0 .086l.518.345h.172zm-.862.518l.517-.345c.087 0 .087-.086 0-.086l-.776-.432v-.086l.69-.431c.086-.086.086-.086 0-.173l-1.38-.776h-.258l-1.38.776c-.087.087-.087.087 0 .173l2.328 1.38c0 .086.173.086.259 0z" fill="#352835"/><path d="M358.189 254.864l3.881 2.242 2.501-1.466-3.881-2.243-2.501 1.467z" fill="#E6E6E2"/><path d="M364.485 255.726c.086-.086-3.795-2.242-3.795-2.242l-2.501 1.466.086.086 2.415-1.38c0-.172 3.795 2.07 3.795 2.07z" fill="#E6E6E2"/><path d="M321.621 260.469c.345-.258.69-.431 1.121-.517.69-.086 1.466-.173 2.156-.086l.863-.087c.948-.172 2.501-.431 4.916-.776.948-.172 1.897.518 1.897 1.466v.087c0 .431-.173.776-.431 1.121-.173.172-.345.431-.518.603-1.38 1.208-4.312 1.725-5.519 1.898v.345c-.604.259-1.984.431-3.019.517-.776.087-1.552-.345-1.984-.948a1.462 1.462 0 01-.258-.863v-1.638c-.086-.777.258-.69.776-1.122z" fill="#191619"/><path d="M320.759 262.798c0 .259.087.604.259.863.431.69 1.207.948 1.984.948 1.121-.086 2.328-.345 3.104-.517 0 0 4.14-.949 5.52-2.156.172-.173.345-.345.517-.604a3.2 3.2 0 00.432-.949v.173c0 .517-.173 1.035-.432 1.38-.172.172-.345.431-.517.603-1.38 1.208-4.312 1.898-5.52 2.07v.173c-.603.258-1.983.431-3.018.517-.776.086-1.553-.345-1.984-.948a1.462 1.462 0 01-.258-.863c-.087-.604-.087-1.121-.087-.69z" fill="#CD9B38"/><path d="M318.086 262.626c0 .086 0 .258-.087.344-.776 1.208-4.139 1.035-4.226-.344v-2.243c.69-.086 1.639-.086 2.329-.172.259 0 .517-.087.862 0 .432.086 1.122.172 1.122.69v1.725z" fill="#191619"/><path d="M317.999 262.884c.087-.086.087-.172.087-.345v.604c0 .086 0 .259-.087.345-.776 1.207-4.139 1.035-4.226-.345v-.604c.087 1.466 3.45 1.553 4.226.345z" fill="#CD9B38"/><path d="M319.379 252.362l-.69 8.021c-.259 1.984-5.002 1.984-5.261.086l-.69-9.918 6.641 1.811zm1.466 7.849s3.364-8.021 4.399-9.832l-2.588.345-.086-8.193 8.883-.776a3.816 3.816 0 012.846.948c.086.087.259.173.345.345a2.767 2.767 0 01.518 3.191c-2.156 4.399-9.746 16.128-9.746 16.128s-1.466 1.552-3.536.345c-2.07-1.121-1.035-2.501-1.035-2.501z" fill="#231B23"/><path d="M312.134 244.687c-.086-.432-.345-.777-.69-.949l-.69-.431c.345.172.518.517.69.948l3.278 11.902.69.431-3.278-11.901zm-14.402 7.33l-3.191 15.783.69.431 3.45-16.041-.949-.173z" fill="#332F2E"/><path d="M311.186 242.703c-.604-.345-1.38-.259-2.243.173l-8.107 4.743c-1.379.776-2.673 2.587-3.018 4.398l.949.518c.345-1.811 1.379-3.709 2.759-4.485l8.107-4.743c.863-.518 1.639-.518 2.243-.173l-.69-.431z" fill="#443F3E"/><path d="M312.652 244.256c-.345-1.38-1.638-1.725-3.018-.949l-8.107 4.743c-1.38.776-2.674 2.588-3.019 4.399l-3.277 15.782.604-.345 3.191-15.61c.258-1.466 1.293-2.932 2.501-3.622l8.107-4.743c1.121-.69 2.156-.345 2.501.776l3.277 11.901.604-.345-3.364-11.987z" fill="#332F2E"/><path d="M300.06 249.43c0-.086.087-.086.087-.172l.086-.087 11.815-6.813c.604-.345 1.121-.431 1.639-.086l15.265 8.883-1.207.259-12.247 6.727-.086.086c0 .086-.086.086-.086.172 0 .087-.087.173-.087.259 0 .086 0 .173.087.173l-15.266-8.97c-.086 0-.086-.086-.086-.172s.086-.173.086-.259z" fill="#3665BA"/><path d="M315.498 258.055l11.815-6.814c.69-.345 1.294-.431 1.725-.086l.173.173c.086.086.086.258 0 .431-.086.086-.086.172-.173.172-.086 0-.086.086-.172 0l-.173-.172c-.345-.259-.862-.259-1.38 0l-11.815 6.813c-.172.086-.259 0-.259-.172 0 0 .173-.259.259-.345z" fill="#332F2E"/><path d="M328.003 253.915c-.086-.431-.345-.776-.69-.949l-.69-.431c.345.173.518.517.69.949l3.277 11.901.69.432-3.277-11.902zm-14.316 7.245l-3.277 15.782.69.431 3.536-16.041-.949-.172z" fill="#332F2E"/><path d="M327.054 251.845c-.603-.345-1.38-.259-2.242.173l-8.107 4.743c-1.38.776-2.674 2.587-3.018 4.398l.948.518c.345-1.811 1.38-3.709 2.76-4.485l8.107-4.743c.862-.518 1.639-.518 2.242-.173l-.69-.431z" fill="#443F3E"/><path d="M328.521 253.397c-.345-1.38-1.639-1.725-3.019-.948l-8.107 4.743c-1.379.776-2.673 2.587-3.018 4.399l-3.277 15.782.603-.345 3.191-15.61c.259-1.466 1.294-2.932 2.501-3.622l8.107-4.744c1.121-.69 2.156-.345 2.501.777l3.278 11.901.603-.345-3.363-11.988z" fill="#332F2E"/><path d="M322.657 243.048c4.053-.345 7.503 2.932 7.33 7.072v.086l-7.244 1.035-.086-8.193z" fill="#231B23"/><path d="M307.649 209.672l-.776-2.07c-.345-.862-.603-1.552-.603-2.501v-.863l.086-.086v-.086a.74.74 0 010-.604c.086-.086.345-.172.517-.086.604.518 1.294 1.984 1.725 2.846-.086-.259-.086-.517-.086-.69.086-.345.431-.345.604-.086.258.345.776 1.38 1.035 2.328.431 1.38.258 2.674.258 2.674-.517.259-2.242.086-2.501-.086 0 .172-.172-.431-.259-.69z" fill="#FBBD9E"/><path d="M310.496 210.879c-.258.518-3.363-.776-3.191-1.38l.087-.172c.344-.776 3.535.517 3.191 1.38l-.087.172z" fill="#fff"/><path d="M307.132 209.499c.345-.862 3.881.69 3.45 1.553l-2.673 8.969 2.156 1.811-2.501 8.107-4.485-7.158c-.259-.604-.345-1.294-.086-1.897l4.139-11.385z" fill="#281E28"/><path d="M319.896 226.489c1.208.604 2.588 1.38 2.933 2.76.172.431.172.949.172 1.38-.604 5.692-1.035 7.762-1.121 11.557 0 0 1.207-.259 1.725.172 1.552 1.294 2.587 8.366 1.121 9.056-1.466.69-6.382 1.811-8.797 1.897-.431 0-.949 0-1.38-.086-.69-.173-.776-.259-7.158-4.053-.862-.518-1.725-1.035-2.07-1.898-.431-.949.259-1.983.431-2.932.432-2.846 1.639-7.245 1.467-10.436-.259-3.708-1.294-9.141-.604-10.176 1.294-1.898 2.673-2.243 4.312-1.639.345.086.69.259 1.121.431 2.588 1.294 5.261 2.588 7.848 3.967z" fill="#281E28"/><path d="M332.748 238.822l-.173-.172c.345-.345.259-.863-.259-1.035.259-.431.087-.862-.517-.862.172-.087.345-.345.086-.69-.259-.259-.517-.173-.862 0-.432.258-.863.431-1.38.603-.604.259-.259-1.725-1.035-1.638-.345.086-.086.948-.086 1.552 0 .604-.259 1.121-.173 1.725l.259.517c.345.518.259 1.38.862 1.467.604.086 1.294-.087 1.898-.345.948-.259 1.725-.69 1.38-1.122z" fill="#FBBD9E"/><path d="M329.038 240.892c-.258-.604-1.293-3.018-1.466-3.536.259-.086.604-.172.863-.259 1.293-.345 3.191 2.588 1.897 3.278-.517.258-.949.345-1.294.517z" fill="#fff"/><path d="M322.915 229.68l.776 8.625s3.364-.863 4.226-1.121c1.38-.432 3.364 2.846 2.07 3.536-3.881 1.638-7.417 2.501-8.624 2.673-.69.086-1.294-.259-1.553-.862l-2.07-9.918c-.69-3.968 4.226-7.59 5.175-2.933z" fill="url(#paint9_linear)"/><path d="M312.565 223.04c.086-.863.086-1.898.086-1.898l4.744-2.501s2.673-2.673 2.673-1.811c0 .863-.086 5.779-.517 6.382-.259.345-1.294.259-1.639.259l-.258 1.552c-2.933.087-5.261-1.121-5.089-1.983z" fill="#FBBD9E"/><path d="M318.344 225.541l-.432-1.294c-1.38-.086-2.673-.172-3.967-.776-.776-.431-1.38-.862-1.38-1.38l-.517.69s-1.035.69 1.897 2.07c1.38.69 3.019.776 4.399.69z" fill="#fff"/><path d="M318.171 225.11c-.862 0-1.724-.087-2.587-.345-2.07-.518-2.329-.777-2.587-.949-.949-.69-.604-1.208-.518-1.38-1.897-.173-1.035 1.897.518 2.587 2.846 1.38 5.951.949 5.864.863-.172-.173-.517-.604-.69-.776z" fill="#352835"/><path d="M316.361 212.432c-3.277-.173-4.657 1.638-4.744 2.673-.172 1.725-.086 5.089.949 6.813.173.345.863.777 2.156 1.122.518.172 1.466.258 1.984.086.862-.173.776-.518.69-1.466-.086-.776-.086-1.984.172-2.415.259-.518.949-.69 1.121-.086 0 .086.087.517.173.603.086.259.345.173.345-.172v-1.294c.086-.431.604-.69.776-1.035.431-4.226-.949-4.743-3.622-4.829z" fill="#2B2119"/><path d="M311.445 246.239c-.173-.776-.949-1.725-1.639-2.156l-10.349-5.951c-.69-.431-1.725-.69-2.243-.172l15.783 18.283c1.121-1.035.259-2.759-1.552-10.004z" fill="#2F5CAD"/><path d="M296.957 237.874c.086 0 .086-.087.172-.087.173-.086.431 0 .69.173l11.384 6.555c.69.431 1.466 1.379 1.639 2.156l2.242 8.796c.087.345.087.604-.086.777l-.604.517c.173-.086.173-.345.087-.776l-2.243-8.797c-.172-.776-.948-1.725-1.638-2.156l-11.385-6.555c-.258-.172-.517-.258-.689-.172-.087 0-.087.086-.173.086l.604-.517z" fill="#443F3E"/><path d="M296.525 238.391c.172-.086.431 0 .69.172l11.384 6.555c.69.431 1.466 1.38 1.638 2.156l2.243 8.797c.086.431 0 .776-.259.862-.086 0-.345.087-.776-.172-1.639-.949-9.832-5.692-11.384-6.555-.777-.431-1.38-1.293-1.639-2.069-.172-.604-2.07-8.107-2.242-8.797 0-.432 0-.863.345-.949z" fill="#2B2828"/><path d="M307.736 249.172l2.243 7.589.776-.431c.259.172.517.258.604.345.258.172.517.172.603.172l.345.259-1.724 1.035c-.259.172-.432.086-.604 0l.086.086-1.121-.69c-.086-.086-.173-.172-.259-.345l-2.501-8.365.345-.345 1.207.69zm-9.055-5.261l1.121.69 2.242 7.589.776-.431c.432.259.949.604 1.467.862l-1.639.949c-.259.172-.431.086-.604 0l.086.086-1.121-.69c-.086-.086-.172-.172-.258-.345l-2.501-8.365.431-.345z" fill="#332F2E"/><path d="M344.217 283.841c-.432.863 2.76 2.502 3.277 2.329 1.035-.345.604-.345 1.294-1.639.086-.086.086-.258.086-.345 0-.086-.086-.172-.173-.172-.345-.259-1.38-1.294-1.724-1.38-.173 0-.259 0-.432-.086-.69-.345-1.207-1.035-2.328 1.293z" fill="#191619"/><path d="M351.203 283.497c.862-.087 2.069 0 2.759.172 1.035.345 1.38 1.984-1.379 2.76-.173.086-.777.172-.949.172-1.466 0-1.294.087-2.07.259-.949.173-2.242-.172-2.156-.949 0-.172 0-.345.086-.431.086-.431.345-1.552.604-1.552.431-.086.949-.259 1.466-.431.086-.087 1.38 0 1.639 0z" fill="#191619"/><path d="M360.258 262.884c.948 1.811 0 3.105-.518 3.967-.603 1.208-1.035 2.415-1.466 3.709-.431 1.207-1.121 2.242-1.638 3.45-.604 1.293-1.725 2.415-2.588 3.622-.862 1.294-1.725 2.587-2.587 3.967-1.38 2.329 1.035 2.587.776 3.277-.086.259-1.811.259-3.105.087-.776-.087-1.293-.432-1.207-.69.259-1.035 1.38-3.019 2.415-6.124 1.035-3.104 1.811-6.468 2.07-7.503.258-.862.345-1.121 3.191-7.934.258-.69.086-.69.776-.604 1.811 0 3.277-.431 3.881.776z" fill="#FBBD9E"/><path d="M346.804 279.357c.69-2.242.862-4.83.862-7.245 0-.517-.086-1.035 0-1.552.086-.431.345-.776.517-1.207.345-.518.69-1.122 1.294-1.467.518-.345 1.121-.431 1.725-.517.259-.086.517-.086.776-.086.431.086.776.345.949.776.172.345.259.776.345 1.207l-.431 1.294c-1.898 4.14-3.968 8.021-4.226 12.678 0 .259 0 .431-.173.69-.086.172-.345.086-.776-.345-.949-1.035-1.639-1.294-2.07-1.38-.172.086.69-1.208 1.208-2.846z" fill="#FBBD9E"/><path d="M343.958 262.884c-.087-.431-.345-.776-.69-.949l-.69-.431c.345.173.517.518.69.949l3.277 11.901.69.432-3.277-11.902zm-14.403 7.331l-3.191 15.955.69.345 3.449-16.041-.948-.259z" fill="#332F2E"/><path d="M343.009 260.9c-.604-.345-1.38-.258-2.243.259l-8.193 4.744c-1.38.776-2.673 2.673-3.018 4.398l.948.518c.345-1.812 1.38-3.709 2.846-4.571l8.194-4.744c.862-.517 1.638-.517 2.242-.259l-.776-.345z" fill="#443F3E"/><path d="M344.561 262.453c-.345-1.38-1.638-1.725-3.018-.949l-8.193 4.744c-1.38.776-2.674 2.673-3.019 4.398l-3.277 15.869.603-.345 3.191-15.696c.259-1.467 1.294-2.933 2.502-3.623l8.193-4.743c1.121-.69 2.156-.345 2.501.776l3.277 11.988.604-.345-3.364-12.074z" fill="#332F2E"/><path d="M331.883 267.714c0-.086.086-.086.086-.173l.087-.086 11.901-6.899c.604-.345 1.208-.432 1.639-.087l15.351 8.883s-.086.345-.258.345l-.949-.086-12.333 6.727-.086.086c0 .087-.086.087-.086.173s-.087.172-.087.259c0 .086 0 .172.087.172l-15.352-8.883c-.086 0-.086-.086-.086-.172 0-.087.086-.173.086-.259z" fill="#3665BA"/><path d="M347.406 276.338l11.902-6.899c.69-.345 1.293-.431 1.725-.086l.172.172c.086.086.086.259 0 .518-.086.086-.086.172-.172.172-.087 0-.087.086-.173 0l-.172-.172c-.345-.259-.863-.259-1.38 0l-11.902 6.899c-.172.086-.259 0-.259-.172 0-.087.173-.345.259-.432z" fill="#332F2E"/><path d="M359.999 272.112c-.086-.431-.345-.776-.69-.948l-.69-.432c.345.173.518.518.69.949l3.277 11.902.69.431-3.277-11.902zm-14.402 7.417l-3.278 15.869.69.431 3.536-16.127-.948-.173z" fill="#332F2E"/><path d="M359.05 270.129c-.603-.345-1.38-.259-2.242.258l-8.193 4.744c-1.38.776-2.674 2.673-3.019 4.398l.949.518c.345-1.811 1.38-3.709 2.846-4.571l8.193-4.744c.863-.517 1.639-.517 2.242-.258l-.776-.345z" fill="#443F3E"/><path d="M360.517 271.681c-.345-1.38-1.639-1.725-3.019-.949l-8.193 4.744c-1.38.776-2.673 2.673-3.018 4.398l-3.278 15.869.604-.345 3.191-15.696c.259-1.466 1.294-2.933 2.501-3.623l8.193-4.743c1.121-.69 2.156-.345 2.501.776l3.278 11.902.603-.345-3.363-11.988z" fill="#332F2E"/><path d="M340.509 241.496c-.259-.432-.69-.949-.604-1.035 0 0 .259 0 .431-.086.173 0 .173-.259.086-.432.345 0 .432-.345.173-.431-.259-.172-1.294-.086-1.38-.086-.086-.173.172-.345.259-.518.603-.776.345-1.207.086-1.035-.173.087-.69.777-.776.949-.69-.69-1.035-.517-1.122-.259-.086.345.432.518.518.863-.518.604-.949.949-.431 1.552.172.173.345.431.603.604.518.517 1.38 1.121 1.639 1.552.173.259.345.432.69.173.431-.431.345-.863-.172-1.811z" fill="#FBBD9E"/><path d="M340.94 242.099c.086.087.086.345.172.518-.603.259-1.035.776-1.293 1.466l-.259-1.035c-.259-.69 1.207-1.38 1.38-.949z" fill="#fff"/><path d="M341.113 242.358l.172.518c.431-1.121 2.932-.863 3.191.086.518 1.725-.086 3.795-.517 5.606-.173.949-.776 2.156-1.639 1.725-1.811-.863-1.897-2.846-2.846-6.986-.172-.776 1.552-1.38 1.639-.949z" fill="#281E28"/><path d="M341.63 257.71c1.035-.777 2.587-.69 3.622.086.431.345.776.862 1.294 1.035.517.172.948-.173 1.466-.345 1.466-.432 3.191-.776 4.657-.259a9.699 9.699 0 011.811 1.035c1.035.776 2.415 1.725 3.105 2.846s.431 2.501.172 3.708c-.431 1.898-1.379 3.278-2.328 3.968-1.035.776-8.711 1.121-12.678-.863-.776-.431-1.552-.948-2.156-1.638-1.639-1.898-1.38-3.536-.69-6.21.431-1.294 1.552-3.191 1.725-3.363z" fill="#231B23"/><path d="M346.718 243.393a34.367 34.367 0 013.794 2.329c1.122.776 1.984 1.725 2.933 2.673.776.69.603 1.466.517 1.725a121.58 121.58 0 01-1.983 5.002 13.13 13.13 0 00-.777 2.415c-.431 1.725-.172 2.76.259 4.226.086.345-.431 3.45-7.244 1.121-3.364-1.121-3.709-3.018-3.536-3.622.086-.173.948-1.725 1.121-1.984.172-.345.431-9.314-.259-12.074-.172-.517-.345-1.121-.172-1.638.603-2.588 3.88-.949 5.347-.173z" fill="#281E28"/><path d="M359.741 258.486c.69.172 1.38-.173 1.725-.345.517-.259.948-.518 1.38-.776.086 0 .086 0 .172.086.173.172.345.517.604.259.172-.087 0-.604 0-.69 0-.345-.173-.604-.431-.69-.518-.345-.259-.173-.518-.432-.086-.086-.172-.172-.172-.258-.087-.087-.087-.173-.087-.259-.086-.173-.258-.173-.431-.259-.603-.259-1.121.518-2.673 1.121-.345.173-.518-.086-.777-.258-.689-.604-1.121 0-.517.431.172.172.345.259.431.431.086.259.173 1.466 1.294 1.639z" fill="#FBBD9E"/><path d="M357.672 258.141c-.173-.345-.432-.776-.604-1.121.517-.087 1.121-.173 1.38-.259 1.293-.259 2.156 1.207 1.638 1.638-.603.259-1.207.432-1.811.69-.258-.258-.431-.603-.603-.948z" fill="#fff"/><path d="M350.599 249.516c.431-1.207 1.208-1.638 2.415-1.207 1.294.431 1.38 1.552 1.466 2.501.173 2.07.345 4.399.431 6.468 0 0 2.415-.345 3.105-.431 1.466-.345 2.415 1.38 1.811 1.898l-5.433 2.069c-.345.173-.776.259-1.035.087a1.878 1.878 0 01-.431-.69c-.604-1.725-1.121-3.45-1.725-5.175-.604-1.725-1.208-3.708-.604-5.52z" fill="url(#paint10_linear)"/><path d="M353.272 238.822c0 .431.087.863 0 1.208-.086.603-.517 1.034-.603 1.638-.087.345-.087.776-.345.863-.259.086-.518-.087-.69 0a1.038 1.038 0 00-.432.431c-.344.604-.603 1.293-.689 1.983-.087.604-.087.949-4.054-.172-1.207-.345-.086-1.035.345-2.329.69-2.069-.949-3.622 1.466-6.985 1.208-1.725 2.156-1.553 3.45-1.122.431.173.862.259 1.207.518 1.122.776.345 2.76.345 3.967z" fill="#FBBD9E"/><path d="M353.531 234.769c.345 1.293-.086 3.277-.69 3.794-.172.173-.517 0-.69.087-1.38.345-.258 2.673-1.725 3.449-.69.345-2.501 0-3.018-.172-.776-.259-1.38-.776-1.639-1.466-3.881-7.676 6.21-11.126 7.762-5.692z" fill="#724A2F"/><path d="M345.683 243.393c0 .173 0 .69.949 1.466.776.604 1.725.604 4.226.949 0-.086 0-.69-.173-1.121 0 0-2.415 0-3.708-1.035-.345-.345-.518-.518-.518-1.208-.086.087-.69.345-.776.432v.517z" fill="#fff"/><path d="M346.114 242.789c-.345 1.38 1.38 2.415 4.83 2.933.172 0 .604.776.431.862-.69.173-3.881-.259-5.175-1.294-.776-.603-1.293-1.638-1.293-2.587.172-.172.776 0 1.207.086z" fill="#352835"/><path d="M348.184 239.167c-.345.69-.517 2.933-1.207 4.83-.604 1.811-2.76 2.674-4.312 1.811 2.587-1.121.431-5.692.776-8.624.517-4.744 6.468-1.553 4.743 1.983z" fill="#724A2F"/><path d="M343.182 264.523c-.173-.776-.949-1.725-1.639-2.156l-10.349-5.951c-.69-.431-1.725-.69-2.242-.173l15.782 18.284c1.121-1.035.259-2.76-1.552-10.004z" fill="#2F5CAD"/><path d="M328.779 256.071c.087 0 .087-.086.173-.086.172-.087.431 0 .69.172l11.384 6.555c.776.431 1.466 1.38 1.725 2.156l2.242 8.797c.087.345.087.603-.086.776l-.604.517c.173-.172.173-.431.087-.776l-2.243-8.797c-.172-.776-.948-1.725-1.725-2.156l-11.384-6.554c-.259-.173-.517-.259-.69-.173-.086 0-.086.086-.172.086l.603-.517z" fill="#443F3E"/><path d="M328.348 256.502c.173-.086.431 0 .69.172l11.384 6.555c.776.431 1.466 1.38 1.725 2.156l2.243 8.797c.086.431-.001.776-.259.862-.086 0-.345.087-.776-.172-1.725-.949-9.832-5.692-11.385-6.555-.776-.431-1.38-1.293-1.638-2.156-.173-.603-2.07-8.193-2.243-8.797-.086-.258-.086-.69.259-.862z" fill="#2B2828"/><path d="M339.646 267.369l2.329 7.675.776-.431c.259.173.518.259.604.345.259.173.517.173.604.173l.344.258-1.724 1.035c-.259.173-.432.087-.604 0l.086.086-1.121-.689c-.086-.087-.173-.173-.259-.345l-2.501-8.452.345-.345 1.121.69zm-9.228-5.261l1.121.69 2.328 7.675.777-.431c.431.259.948.604 1.466.863l-1.639.948c-.259.173-.431.087-.604 0l.087.087-1.121-.69a1.19 1.19 0 01-.259-.345l-2.501-8.452.345-.345z" fill="#332F2E"/><path d="M380.957 215.536c.086-.086.173-.086.259-.086.949-.172 1.984-.259 2.932-.431l2.243-1.725c1.811 1.035 1.552 1.466 2.673 1.38.949-.086 1.035 2.329.345 2.329-.862-.087-.862.086-1.294.345-.345.172-.69.258-.948.431-.345.172-.69.431-1.035.603-.518.259-.863 0-.518-.603-.345 0-.603.086-.948.172-.173.086-.345.173-.518.086a.371.371 0 01-.345-.345c.086-.258.776-.603.949-.689-.863-.087-1.725.172-2.587.172-.087 0-.259 0-.345-.086-.087-.086-.173-.173-.173-.345.086-.173.173-.173.345-.259.604-.172 1.294-.259 1.984-.345.517-.086.603-.431 0-.431-.776.086-1.553.086-2.329.259-.172 0-.345.086-.517 0-.173 0-.345-.259-.173-.432z" fill="#FBBD9E"/><path d="M379.836 207.516l8.883 9.745-6.209 3.536-8.884-9.659 6.21-3.622z" fill="#FCFCFC"/><path d="M386.65 214.674c-.259-.604-2.415-.776-2.76-1.294-.086-.172-.172-.345 0-.517.173-.173.431-.086.69 0 .949.345 1.552.259 1.897.431 1.553 1.121.259 1.38.173 1.38z" fill="#FBBD9E"/><path d="M334.471 223.212l-7.072 4.053-5.002-2.932c-.086-.086-.345-.172-.259-.259l6.986-4.053h.431l4.916 2.846c.173.172.087.345 0 .345z" fill="#281E28"/><path d="M322.053 224.333c0 .086.086.173.172.173l4.744 2.759c.172.087.517.087.69 0l6.899-3.967c.086-.086.173-.086.173-.172v.172c0 .086-.087.173-.173.173l-6.899 3.967c-.173.086-.518.086-.69 0l-4.744-2.76c-.086-.086-.172-.086-.172-.172v-.173z" fill="#D2CDCD"/><path d="M333.438 223.902l.517-.345h.087s0 .086-.087.086l-.517.345h-.086c.086 0 .086-.086.086-.086z" fill="#D2CDCD"/><path d="M333.438 223.988c0-.086.603-.345.603-.345s-.603.259-.603.345zm-.605.259c0-.086.259-.172.259-.172.086 0-.172.172-.259.172z" fill="#FBF8FC"/><path d="M332.92 224.247l.258-.172h.087s0 .086-.087.086l-.258.172h-.087l.087-.086z" fill="#D2CDCD"/><path d="M322.139 224.507l4.744 2.759c.172.087.517.087.689 0l6.9-3.967c.172-.086.172-.259 0-.345l-4.743-2.76c-.173-.086-.518-.086-.69 0l-6.9 3.968c-.172.086-.172.258 0 .345zm.259-.432l6.727-3.881a.74.74 0 01.604 0l1.293.69v.173l1.725.948h.259l1.552.949c.086.086.086.173 0 .259l-6.813 3.967h-.086l-5.261-3.105c-.086.087-.086.087 0 0z" fill="#423442"/><path d="M324.554 225.713c.086-.086.173-.086.173 0l.258.173v.086h-.258l-.259-.173c0-.086 0-.086.086-.086z" fill="#D2CDCD"/><path d="M407.952 238.909l2.846 1.638 4.657-2.673c.087-.086.087-.259 0-.259l-2.587-1.552h-.172l-4.744 2.76v.086z" fill="#281E28"/><path d="M407.779 238.994c0 .087.086.173.172.259l2.243 1.294a.785.785 0 00.862 0l4.485-2.587c.086-.087.172-.173.172-.259v.345c0 .086-.086.172-.172.259l-4.485 2.587a.785.785 0 01-.862 0l-2.243-1.294c-.086-.086-.172-.172-.172-.259v-.345z" fill="#D2CDCD"/><path d="M407.951 239.167l2.243 1.294a.785.785 0 00.862 0l4.485-2.588c.259-.172.259-.345 0-.517l-2.243-1.294a.785.785 0 00-.862 0l-4.485 2.588c-.258.172-.258.431 0 .517zm.087-.345l4.484-2.587 2.933 1.638-4.485 2.588-2.932-1.639z" fill="#423442"/><path d="M414.333 236.925l-.345-.173h-.172l-.087.086v.087l.345.172h.173l.086-.086c.086 0 .086 0 0-.086.086 0 .086 0 0 0z" fill="#D2CDCD"/><path opacity=".8" d="M378.025 258.658h-.086a2.468 2.468 0 00-1.121 0c-1.122.173-1.811.863-1.553 1.553.259.603 1.121.948 2.156.948h1.898l1.38-1.552c-.345-.69-1.553-1.121-2.674-.949z" fill="#AA6B26"/><path d="M381.303 256.157v3.709c0 .345-.259.603-.69.862-.863.517-2.243.517-3.105 0-.431-.259-.69-.604-.69-.949v-3.708l4.485.086z" fill="url(#paint11_linear)"/><path d="M377.508 257.106c.862.517 2.242.517 3.104 0 .863-.518.863-1.294 0-1.811-.862-.518-2.242-.518-3.104 0-.863.431-.863 1.293 0 1.811z" fill="url(#paint12_linear)"/><path d="M379.06 257.278c1.095 0 1.983-.502 1.983-1.121s-.888-1.121-1.983-1.121c-1.096 0-1.984.502-1.984 1.121s.888 1.121 1.984 1.121z" fill="url(#paint13_linear)"/><path d="M377.68 255.985c.776-.432 1.983-.432 2.759 0 .259.172.432.345.518.517-.086.172-.259.345-.518.517-.776.432-1.983.432-2.759 0-.259-.172-.432-.345-.518-.517a.776.776 0 01.518-.517z" fill="#352A22"/><path d="M377.767 260.038c0-.086-.086-.086-.173-.172h-.086c-.086-.087-.259-.087-.259-.087-.431.259-.431.259-.517.259 0 0 .431.517.604.431l.431-.431z" fill="#EFEFEF"/><path d="M377.767 260.297l-.345.172c-.345.259-.604 0-.604-.431v-.776l-.086-.345s-.173 0-.345-.086h-.087a48.313 48.313 0 00-.172-.173v.863c0 .258.086.431.431.603h.086c.345.259.604.173.777 0l.345.173z" fill="#B9B9B9"/><path d="M377.767 257.537c0-.086-.086-.086-.172-.173h-.086c-.087-.086-.259-.086-.259-.086l-.345.173c-.431.258-.69.776-.69 1.207l.172.173h.087c.172.086.258.172.345.086 0-.431.948-1.38.948-1.38z" fill="url(#paint14_linear)"/><path d="M377.422 258.054c.086-.086.259-.172.345-.172-.086-.259-.173-.173-.345-.086-.345.258-.69.776-.69 1.207v1.207c0 .432.345.604.69.432.086-.087.259-.173.345-.173-.086-.259-.173-.172-.345-.086-.259.172-.431 0-.431-.259v-1.207c0-.431.258-.69.431-.863z" fill="url(#paint15_linear)"/><path opacity=".8" d="M339.819 204.325l-8.625 5.002 11.471 6.554h1.38l7.244-5.002-11.47-6.554z" fill="#AA6B26"/><path d="M352.582 210.707l-20.008-1.38 11.384 6.554 8.624-4.916v-.258z" fill="#ADAFA1"/><path d="M341.198 204.152l-4.485 2.587c-1.811 1.035-1.811 3.709 0 4.744l7.331 4.226 8.624-5.002-11.47-6.555z" fill="#90907F"/><path d="M352.324 210.62l-8.538 4.916.086-2.156 8.539-4.916-.087 2.156z" fill="#F5EEE4"/><path d="M352.669 208.378l-20.095-1.38 11.384 8.797.172-.086v-2.243l8.539-4.916v-.172z" fill="#ADAFA1"/><path d="M341.199 201.737l-8.625 5.002 11.384 6.641 8.711-5.002-11.47-6.641z" fill="#BBBBAD"/><path d="M332.574 206.739v2.588l11.384 6.554v-2.501l-11.384-6.641z" fill="#90907F"/><path d="M341.543 212.518v1.466l-6.21-3.623v-1.379l6.21 3.536zm-7.762-4.571c-.345-.173-.604 0-.604.431s.259.949.604 1.207c.345.173.604 0 .604-.431 0-.517-.259-1.035-.604-1.207z" fill="#E2DCD3"/><path d="M333.782 208.12c-.259-.172-.518 0-.518.345s.173.776.518.949c.258.172.517 0 .517-.345s-.259-.776-.517-.949z" fill="#90907F"/><path d="M342.923 213.208c-.345-.173-.604 0-.604.431s.259.949.604 1.207c.345.173.603 0 .603-.431 0-.517-.258-1.035-.603-1.207z" fill="#E2DCD3"/><path d="M342.923 213.381c-.259-.173-.517 0-.517.345s.172.776.517.948c.259.173.518 0 .518-.345s-.259-.776-.518-.948z" fill="#90907F"/><path d="M353.79 208.119l-20.009-1.38 11.384 6.555 8.625-4.916v-.259z" fill="#ADAFA1"/><path d="M342.406 201.565l-4.485 2.587c-1.811 1.035-1.811 3.708 0 4.743l7.331 4.226 8.624-5.002-11.47-6.554z" fill="#9EA090"/><path d="M353.531 208.033l-8.538 4.916.086-2.156 8.452-4.916v2.156z" fill="#F5EEE4"/><path d="M353.789 205.791l-20.008-1.38 11.384 8.797.172-.087v-2.242l8.452-4.916v-.172z" fill="#ADAFA1"/><path d="M342.406 199.15l-8.625 5.002 11.384 6.641 8.625-5.002-11.384-6.641z" fill="#BBBBAD"/><path d="M333.781 204.152v2.587l11.384 6.555v-2.501l-11.384-6.641z" fill="#90907F"/><path d="M342.664 209.93v1.467l-6.123-3.623v-1.38l6.123 3.536zm-7.676-4.571c-.345-.172-.603 0-.603.432 0 .431.258.948.603 1.207.345.173.604 0 .604-.431s-.259-1.035-.604-1.208z" fill="#E2DCD3"/><path d="M334.989 205.533c-.259-.173-.518 0-.518.345s.173.776.518.948c.258.173.517 0 .517-.345s-.259-.776-.517-.948z" fill="#90907F"/><path d="M344.044 210.62c-.345-.172-.604 0-.604.432 0 .431.259.948.604 1.207.345.259.603 0 .603-.431 0-.432-.258-1.035-.603-1.208z" fill="#E2DCD3"/><path d="M344.045 210.793c-.259-.172-.518 0-.518.345s.173.777.518.949c.259.173.517 0 .517-.345s-.172-.776-.517-.949z" fill="#90907F"/><defs><linearGradient id="paint0_linear" x1="334.627" y1="171.258" x2="332.823" y2="158.093" gradientUnits="userSpaceOnUse"><stop stop-color="#352835"/><stop offset=".281" stop-color="#302430"/><stop offset="1" stop-color="#281E28"/></linearGradient><linearGradient id="paint1_linear" x1="284.943" y1="204.351" x2="273.786" y2="187.649" gradientUnits="userSpaceOnUse"><stop stop-color="#352835"/><stop offset=".281" stop-color="#302430"/><stop offset="1" stop-color="#281E28"/></linearGradient><linearGradient id="paint2_linear" x1="359.694" y1="200.749" x2="370.886" y2="192.961" gradientUnits="userSpaceOnUse"><stop stop-color="#352835"/><stop offset=".281" stop-color="#302430"/><stop offset="1" stop-color="#281E28"/></linearGradient><linearGradient id="paint3_linear" x1="375.022" y1="208.017" x2="384.357" y2="193.885" gradientUnits="userSpaceOnUse"><stop stop-color="#352835"/><stop offset=".281" stop-color="#302430"/><stop offset="1" stop-color="#281E28"/></linearGradient><linearGradient id="paint6_linear" x1="398.82" y1="225.414" x2="412.369" y2="214.103" gradientUnits="userSpaceOnUse"><stop stop-color="#fff"/><stop offset="1" stop-color="#F6F6F4"/></linearGradient><linearGradient id="paint7_linear" x1="364.048" y1="239.895" x2="377.771" y2="239.895" gradientUnits="userSpaceOnUse"><stop stop-color="#F8F6FA"/><stop offset="1" stop-color="#FBF8FC"/></linearGradient><linearGradient id="paint8_linear" x1="352.669" y1="253.796" x2="375.028" y2="253.796" gradientUnits="userSpaceOnUse"><stop stop-color="#F8F6FA"/><stop offset="1" stop-color="#FBF8FC"/></linearGradient><linearGradient id="paint9_linear" x1="325.48" y1="241.755" x2="319.696" y2="229.516" gradientUnits="userSpaceOnUse"><stop stop-color="#352835"/><stop offset=".281" stop-color="#302430"/><stop offset="1" stop-color="#281E28"/></linearGradient><linearGradient id="paint10_linear" x1="356.023" y1="258.011" x2="352.872" y2="248.151" gradientUnits="userSpaceOnUse"><stop stop-color="#352835"/><stop offset=".281" stop-color="#302430"/><stop offset="1" stop-color="#281E28"/></linearGradient><linearGradient id="paint11_linear" x1="381.289" y1="258.641" x2="376.864" y2="258.641" gradientUnits="userSpaceOnUse"><stop stop-color="#DFDFDF"/><stop offset="1" stop-color="#B9B9B9"/></linearGradient><linearGradient id="paint12_linear" x1="381.289" y1="256.163" x2="376.864" y2="256.163" gradientUnits="userSpaceOnUse"><stop stop-color="#E8E8E8"/><stop offset=".456" stop-color="#EFEFEF"/><stop offset="1" stop-color="#F6F6F6"/></linearGradient><linearGradient id="paint13_linear" x1="381.055" y1="256.163" x2="377.096" y2="256.163" gradientUnits="userSpaceOnUse"><stop stop-color="#B9B9B9"/><stop offset="1" stop-color="#DFDFDF"/></linearGradient><linearGradient id="paint14_linear" x1="377.344" y1="257.209" x2="376.356" y2="259.362" gradientUnits="userSpaceOnUse"><stop stop-color="#F2F2F2"/><stop offset="1" stop-color="#D9D9D9"/></linearGradient><linearGradient id="paint15_linear" x1="377.147" y1="260.651" x2="377.749" y2="255.927" gradientUnits="userSpaceOnUse"><stop stop-color="#CACACA"/><stop offset="1" stop-color="#DFDFDF"/></linearGradient><radialGradient id="paint4_radial" cx="0" cy="0" r="1" gradientUnits="userSpaceOnUse" gradientTransform="rotate(-174.451 203.91 95.95) scale(7.77745)"><stop stop-color="#EAEAE8"/><stop offset="1" stop-color="#F6F6F4"/></radialGradient><radialGradient id="paint5_radial" cx="0" cy="0" r="1" gradientUnits="userSpaceOnUse" gradientTransform="rotate(180 204.555 108.91) scale(10.5787)"><stop stop-color="#EAEAE8"/><stop offset="1" stop-color="#F6F6F4"/></radialGradient></defs></svg>