<svg width="690" height="524" viewBox="0 0 690 524" fill="none" xmlns="http://www.w3.org/2000/svg"><g filter="url(#filter0_d)"><path fill="#EFEFEF" d="M10 10h670v504H10z"/></g><path d="M345.182 348.817c70.178 0 127.069-32.866 127.069-73.407 0-40.542-56.891-73.408-127.069-73.408s-127.069 32.866-127.069 73.408c0 40.541 56.891 73.407 127.069 73.407z" fill="#C9BCAD"/><path d="M280.216 193.862c-8.894 3.015-17.335 6.783-25.022 11.155-49.592 28.639-49.592 75.065 0 103.855 49.591 28.64 130.083 28.64 179.826 0 7.687-4.371 14.018-9.345 19.444-14.47l-174.248-100.54zM455.067 293.95c28.489-28.037 21.706-64.816-19.897-88.933-41.753-24.118-105.212-27.886-153.9-11.456L455.067 293.95z" fill="#234970"/><path d="M392.908 250.452h-88.537v5.941c-.117 6.641 4.194 13.281 12.931 18.29 17.242 10.019 45.317 10.019 62.559 0 8.737-5.009 13.047-11.766 12.931-18.29.116 0 .116-5.941.116-5.941z" fill="#FF9238"/><path d="M348.64 275.965c24.449 0 44.269-11.423 44.269-25.513 0-14.09-19.82-25.513-44.269-25.513-24.449 0-44.269 11.423-44.269 25.513 0 14.09 19.82 25.513 44.269 25.513z" fill="#FFC366"/><path d="M388.831 250.452v.932c-.466 5.126-4.194 10.135-10.834 14.096-7.805 4.66-18.173 7.223-29.241 7.223-11.067 0-21.552-2.563-29.24-7.223-6.641-3.961-10.485-8.97-10.951-14.096v-.932c0-5.475 3.844-10.834 10.951-15.028 7.688-4.66 18.173-7.223 29.24-7.223 11.068 0 21.552 2.563 29.241 7.223 6.99 4.194 10.834 9.553 10.834 15.028z" fill="#FF9238"/><path d="M388.831 251.384c-.466 5.126-4.194 10.135-10.834 14.096-7.805 4.66-18.173 7.223-29.241 7.223-11.067 0-21.552-2.563-29.24-7.223-6.641-3.961-10.485-8.97-10.951-14.096.466-5.126 4.31-10.135 10.951-14.096 7.688-4.66 18.173-7.223 29.24-7.223 11.068 0 21.552 2.563 29.241 7.223 6.524 3.961 10.368 8.97 10.834 14.096z" fill="#FFC366"/><path d="M367.046 262.684c-1.747.932-3.495 1.631-5.359 2.214-1.864.466-3.495.815-5.125 1.048-1.631.233-3.029.233-4.311 0-1.281-.116-2.213-.349-2.796-.815-.349-.233-.582-.466-.815-.699-.233-.233-.35-.583-.466-.932 0-.35 0-.583.116-.932.117-.233.35-.466.699-.699.466-.233 1.049-.35 1.981-.35.815 0 1.864 0 3.029-.116 1.165-.117 2.446-.233 3.844-.466 1.398-.233 2.796-.699 4.31-1.398l-12.232-7.572c-1.631.466-3.378.815-5.126 1.165a40.58 40.58 0 01-5.242.699c-1.747.116-3.495-.117-5.242-.466a14.934 14.934 0 01-5.126-2.097c-1.631-1.049-2.68-1.981-3.262-3.029-.583-1.049-.699-2.097-.583-3.146.233-1.048.699-1.98 1.631-2.912.816-.932 1.864-1.748 3.029-2.563l-1.514-.932c-.35-.233-.466-.466-.35-.699 0-.35.35-.583.816-.816.349-.233.932-.349 1.514-.349.583 0 1.049 0 1.398.233l1.398.932c.932-.466 1.981-1.049 3.262-1.514 1.282-.466 2.447-.932 3.611-1.165 1.165-.35 2.33-.466 3.379-.466 1.048 0 1.864.116 2.563.582.233.117.466.35.699.583.233.233.466.582.582.815.117.349.117.582 0 .932-.116.349-.349.582-.815.815-.35.233-.816.35-1.282.466a55.42 55.42 0 01-1.864.35c-.699.116-1.514.349-2.446.582-.932.233-1.864.583-2.912 1.049l10.601 6.524c1.631-.35 3.378-.816 5.126-1.049 1.747-.349 3.495-.466 5.358-.466 1.748 0 3.612.233 5.359.583 1.864.466 3.612 1.165 5.359 2.33 3.146 1.98 4.777 3.961 4.66 6.174-.116 2.097-1.398 4.077-4.077 5.941l1.747 1.049c.35.233.466.466.35.815-.117.35-.35.583-.816.816a3.584 3.584 0 01-1.514.349c-.583 0-.932-.116-1.282-.233l-1.864-1.165zm-32.968-14.562c.699.466 1.514.816 2.33.932.815.233 1.631.233 2.563.233.815 0 1.747-.116 2.679-.233.932-.116 1.864-.349 2.912-.582l-9.436-5.825c-1.398.932-2.213 1.864-2.563 2.912-.349.816.117 1.748 1.515 2.563zm30.522 3.961a9.363 9.363 0 00-5.126-1.514c-1.748 0-3.611.233-5.592.582l10.951 6.757c1.281-1.049 1.864-1.981 1.864-2.913.116-1.048-.583-1.98-2.097-2.912z" fill="#FF9238"/><path d="M395.938 243.113H307.4v5.941c-.116 6.64 4.194 13.281 12.931 18.29 17.242 10.019 45.318 10.019 62.559 0 8.737-5.009 13.048-11.766 12.931-18.29.117 0 .117-5.941.117-5.941z" fill="#FF9238"/><path d="M351.669 268.625c24.449 0 44.269-11.422 44.269-25.512 0-14.091-19.82-25.513-44.269-25.513-24.449 0-44.269 11.422-44.269 25.513 0 14.09 19.82 25.512 44.269 25.512z" fill="#FFC366"/><path d="M391.86 243.113v.932c-.465 5.126-4.193 10.135-10.834 14.096-7.805 4.66-18.173 7.223-29.24 7.223-11.068 0-21.552-2.563-29.241-7.223-6.64-3.961-10.485-8.97-10.951-14.096v-.932c0-5.476 3.845-10.835 10.951-15.028 7.689-4.66 18.173-7.223 29.241-7.223 11.067 0 21.552 2.563 29.24 7.223 6.874 4.193 10.834 9.552 10.834 15.028z" fill="#FF9238"/><path d="M391.744 244.045c-.466 5.126-4.194 10.135-10.834 14.096-7.806 4.66-18.174 7.223-29.241 7.223s-21.552-2.563-29.241-7.223c-6.64-3.961-10.484-8.97-10.95-14.096.466-5.126 4.31-10.135 10.95-14.096 7.689-4.66 18.174-7.223 29.241-7.223s21.552 2.563 29.241 7.223c6.64 3.961 10.484 8.97 10.834 14.096z" fill="#FFC366"/><path d="M370.076 255.345c-1.748.932-3.495 1.631-5.359 2.213-1.864.466-3.495.816-5.126 1.049-1.631.233-3.029.233-4.311 0-1.281-.117-2.213-.35-2.795-.816-.35-.233-.583-.466-.816-.699-.233-.233-.349-.582-.466-.932 0-.349 0-.582.117-.932.116-.233.349-.466.699-.699.466-.233 1.048-.349 1.98-.349.815 0 1.864 0 3.029-.117 1.165-.116 2.446-.233 3.844-.466 1.398-.233 2.796-.699 4.311-1.398l-12.232-7.572c-1.631.466-3.379.816-5.126 1.165a40.25 40.25 0 01-5.243.699c-1.747.117-3.495-.116-5.242-.466a14.902 14.902 0 01-5.126-2.097c-1.631-1.048-2.679-1.98-3.262-3.029-.582-1.048-.699-2.097-.582-3.145.233-1.049.699-1.981 1.631-2.913.815-.932 1.864-1.747 3.029-2.563l-1.515-.932c-.349-.233-.466-.466-.349-.699 0-.349.349-.582.815-.815.35-.233.932-.349 1.515-.349.582 0 1.048 0 1.398.233l1.397.931c.932-.465 1.981-1.048 3.262-1.514 1.282-.466 2.447-.932 3.612-1.165 1.165-.349 2.33-.466 3.378-.466 1.049 0 1.864.117 2.563.583.233.116.466.349.699.582.233.233.466.583.583.816.116.349.116.582 0 .931-.117.35-.35.583-.816.816-.349.233-.815.349-1.281.466-.583.116-1.165.233-1.864.349-.699.117-1.515.35-2.447.583-.932.233-1.864.582-2.912 1.048l10.601 6.524c1.631-.349 3.378-.815 5.126-1.048 1.747-.35 3.495-.466 5.359-.466 1.747 0 3.611.233 5.359.582 1.864.466 3.611 1.165 5.358 2.33 3.146 1.981 4.777 3.961 4.66 6.175-.116 2.096-1.398 4.077-4.077 5.941l1.747 1.048c.35.233.466.466.35.816-.117.349-.35.582-.816.815a3.586 3.586 0 01-1.514.35c-.583 0-.932-.117-1.282-.233l-1.863-1.165zm-32.969-14.562c.699.466 1.514.815 2.33.932.815.233 1.631.233 2.563.233.815 0 1.747-.117 2.679-.233.932-.117 1.864-.35 2.913-.583l-9.437-5.825c-1.398.932-2.213 1.864-2.562 2.913-.466.815.116 1.747 1.514 2.563zm30.522 3.961a9.354 9.354 0 00-5.126-1.515c-1.747 0-3.611.233-5.592.583l10.951 6.756c1.282-1.048 1.864-1.98 1.864-2.912.117-1.048-.582-1.98-2.097-2.912z" fill="#FF9238"/><path d="M392.908 234.958h-88.537v5.941c-.117 6.641 4.194 13.281 12.931 18.29 17.242 10.019 45.317 10.019 62.559 0 8.737-5.009 13.047-11.766 12.931-18.29.116 0 .116-5.941.116-5.941z" fill="#FF9238"/><path d="M348.64 260.471c24.449 0 44.269-11.423 44.269-25.513 0-14.09-19.82-25.513-44.269-25.513-24.449 0-44.269 11.423-44.269 25.513 0 14.09 19.82 25.513 44.269 25.513z" fill="#FFC366"/><path d="M388.831 234.958v.932c-.466 5.126-4.194 10.135-10.834 14.096-7.805 4.66-18.173 7.223-29.241 7.223-11.067 0-21.552-2.563-29.24-7.223-6.641-3.961-10.485-8.97-10.951-14.096v-.932c0-5.475 3.844-10.834 10.951-15.028 7.688-4.66 18.173-7.223 29.24-7.223 11.068 0 21.552 2.563 29.241 7.223 6.99 4.194 10.834 9.553 10.834 15.028z" fill="#FF9238"/><path d="M388.831 235.89c-.466 5.126-4.194 10.135-10.834 14.096-7.805 4.66-18.173 7.223-29.241 7.223-11.067 0-21.552-2.563-29.24-7.223-6.641-3.961-10.485-8.97-10.951-14.096.466-5.126 4.31-10.135 10.951-14.096 7.688-4.66 18.173-7.223 29.24-7.223 11.068 0 21.552 2.563 29.241 7.223 6.524 3.961 10.368 8.97 10.834 14.096z" fill="#FFC366"/><path d="M367.046 247.19c-1.747.932-3.495 1.631-5.359 2.213-1.864.466-3.495.816-5.125 1.049-1.631.233-3.029.233-4.311 0-1.281-.117-2.213-.35-2.796-.816-.349-.233-.582-.466-.815-.699-.233-.233-.35-.582-.466-.932 0-.349 0-.582.116-.931.117-.233.35-.466.699-.699.466-.233 1.049-.35 1.981-.35.815 0 1.864 0 3.029-.116 1.165-.117 2.446-.233 3.844-.466 1.398-.233 2.796-.699 4.31-1.398l-12.232-7.573c-1.631.466-3.378.816-5.126 1.165-1.747.35-3.495.583-5.242.699-1.747.117-3.495-.116-5.242-.466a14.895 14.895 0 01-5.126-2.097c-1.631-1.048-2.68-1.98-3.262-3.029-.583-1.048-.699-2.097-.583-3.145.233-1.048.699-1.98 1.631-2.912.816-.932 1.864-1.748 3.029-2.563l-1.514-.932c-.35-.233-.466-.466-.35-.699 0-.35.35-.583.816-.816.349-.233.932-.349 1.514-.349.583 0 1.049 0 1.398.233l1.398.932c.932-.466 1.981-1.049 3.262-1.515 1.282-.466 2.447-.932 3.611-1.165 1.165-.349 2.33-.466 3.379-.466 1.048 0 1.864.117 2.563.583.233.116.466.349.699.582.233.233.466.583.582.816.117.349.117.582 0 .932-.116.349-.349.582-.815.815-.35.233-.816.35-1.282.466a55.42 55.42 0 01-1.864.35c-.699.116-1.514.349-2.446.582-.932.233-1.864.583-2.912 1.049l10.601 6.523c1.631-.349 3.378-.815 5.126-1.048 1.747-.35 3.495-.466 5.358-.466 1.748 0 3.612.233 5.359.582 1.864.466 3.612 1.165 5.359 2.33 3.146 1.981 4.777 3.961 4.66 6.175-.116 2.097-1.398 4.077-4.077 5.941l1.747 1.049c.35.233.466.466.35.815-.117.349-.35.582-.816.815a3.586 3.586 0 01-1.514.35c-.583 0-.932-.117-1.282-.233l-1.864-1.165zm-32.968-14.446c.699.466 1.514.816 2.33.932.815.233 1.631.233 2.563.233.815 0 1.747-.116 2.679-.233.932-.116 1.864-.349 2.912-.582l-9.436-5.825c-1.398.932-2.213 1.864-2.563 2.912-.349.816.117 1.631 1.515 2.563zm30.522 3.961a9.363 9.363 0 00-5.126-1.514c-1.748 0-3.611.233-5.592.582l10.951 6.757c1.281-1.048 1.864-1.98 1.864-2.912.116-1.049-.583-1.981-2.097-2.913z" fill="#FF9238"/><path d="M392.908 227.269h-88.537v5.941c-.117 6.641 4.194 13.281 12.931 18.29 17.242 10.019 45.317 10.019 62.559 0 8.737-5.009 13.047-11.766 12.931-18.29.116 0 .116-5.941.116-5.941z" fill="#FF9238"/><path d="M348.64 252.782c24.449 0 44.269-11.423 44.269-25.513 0-14.09-19.82-25.513-44.269-25.513-24.449 0-44.269 11.423-44.269 25.513 0 14.09 19.82 25.513 44.269 25.513z" fill="#FFC366"/><path d="M388.831 227.269v.932c-.466 5.126-4.194 10.135-10.834 14.096-7.805 4.66-18.173 7.223-29.241 7.223-11.067 0-21.552-2.563-29.24-7.223-6.641-3.961-10.485-8.97-10.951-14.096v-.932c0-5.475 3.844-10.834 10.951-15.028 7.688-4.66 18.173-7.223 29.24-7.223 11.068 0 21.552 2.563 29.241 7.223 6.99 4.194 10.834 9.553 10.834 15.028z" fill="#FF9238"/><path d="M388.831 228.201c-.466 5.126-4.194 10.135-10.834 14.096-7.805 4.66-18.173 7.223-29.241 7.223-11.067 0-21.552-2.563-29.24-7.223-6.641-3.961-10.485-8.97-10.951-14.096.466-5.126 4.31-10.135 10.951-14.096 7.688-4.66 18.173-7.223 29.24-7.223 11.068 0 21.552 2.563 29.241 7.223 6.524 3.961 10.368 8.97 10.834 14.096z" fill="#FFC366"/><path d="M367.046 239.501c-1.747.932-3.495 1.631-5.359 2.214-1.864.466-3.495.815-5.125 1.048-1.631.233-3.029.233-4.311 0-1.281-.116-2.213-.349-2.796-.815-.349-.233-.582-.466-.815-.699-.233-.233-.35-.583-.466-.932 0-.35 0-.583.116-.932.117-.233.35-.466.699-.699.466-.233 1.049-.35 1.981-.35.815 0 1.864 0 3.029-.116 1.165-.117 2.446-.233 3.844-.466 1.398-.233 2.796-.699 4.31-1.398l-12.232-7.572c-1.631.466-3.378.815-5.126 1.165a40.58 40.58 0 01-5.242.699c-1.747.116-3.495-.117-5.242-.466a14.934 14.934 0 01-5.126-2.097c-1.631-1.049-2.68-1.981-3.262-3.029-.583-1.049-.699-2.097-.583-3.146.233-1.048.699-1.98 1.631-2.912.816-.932 1.864-1.748 3.029-2.563l-1.514-.932c-.35-.233-.466-.466-.35-.699 0-.35.35-.583.816-.815.349-.233.932-.35 1.514-.35.583 0 1.049 0 1.398.233l1.398.932c.932-.466 1.981-1.048 3.262-1.514 1.282-.466 2.447-.932 3.611-1.165 1.165-.35 2.33-.466 3.379-.466 1.048 0 1.864.116 2.563.582.233.117.466.35.699.583.233.233.466.582.582.815.117.35.117.582 0 .932-.116.349-.349.582-.815.815-.35.233-.816.35-1.282.466a55.42 55.42 0 01-1.864.35c-.699.116-1.514.349-2.446.582-.932.233-1.864.583-2.912 1.049l10.601 6.524c1.631-.35 3.378-.816 5.126-1.049 1.747-.349 3.495-.466 5.358-.466 1.748 0 3.612.233 5.359.583 1.864.466 3.612 1.165 5.359 2.33 3.146 1.98 4.777 3.961 4.66 6.174-.116 2.097-1.398 4.077-4.077 5.941l1.747 1.049c.35.233.466.466.35.815-.117.35-.35.583-.816.816a3.584 3.584 0 01-1.514.349c-.583 0-.932-.116-1.282-.233l-1.864-1.165zm-32.968-14.562c.699.466 1.514.816 2.33.932.815.233 1.631.233 2.563.233.815 0 1.747-.116 2.679-.233.932-.116 1.864-.349 2.912-.582l-9.436-5.825c-1.398.932-2.213 1.864-2.563 2.912-.349.816.117 1.748 1.515 2.563zM364.6 228.9a9.363 9.363 0 00-5.126-1.514c-1.748 0-3.611.233-5.592.582l10.951 6.757c1.281-1.049 1.864-1.981 1.864-2.912.116-1.049-.583-1.981-2.097-2.913z" fill="#FF9238"/><path d="M393.957 219.697H305.42v5.941c-.117 6.641 4.194 13.281 12.931 18.29 17.241 10.019 45.317 10.019 62.559 0 8.737-5.009 13.047-11.766 12.931-18.29.116 0 .116-5.941.116-5.941z" fill="#FF9238"/><path d="M349.688 245.21c24.449 0 44.269-11.423 44.269-25.513 0-14.09-19.82-25.513-44.269-25.513-24.449 0-44.269 11.423-44.269 25.513 0 14.09 19.82 25.513 44.269 25.513z" fill="#FFC366"/><path d="M389.88 219.697v.932c-.466 5.126-4.194 10.135-10.834 14.096-7.805 4.66-18.174 7.223-29.241 7.223s-21.552-2.563-29.241-7.223c-6.64-3.961-10.484-8.97-10.95-14.096v-.932c0-5.475 3.844-10.834 10.95-15.028 7.689-4.66 18.174-7.223 29.241-7.223s21.552 2.563 29.241 7.223c6.99 4.077 10.834 9.436 10.834 15.028z" fill="#FF9238"/><path d="M389.88 220.629c-.466 5.126-4.194 10.135-10.834 14.096-7.805 4.66-18.174 7.223-29.241 7.223s-21.552-2.563-29.241-7.223c-6.64-3.961-10.484-8.97-10.95-14.096.466-5.126 4.31-10.135 10.95-14.096 7.689-4.66 18.174-7.223 29.241-7.223s21.552 2.563 29.241 7.223c6.524 3.961 10.368 8.97 10.834 14.096z" fill="#FFC366"/><path d="M368.095 231.929c-1.747.932-3.495 1.631-5.359 2.213-1.864.466-3.495.816-5.126 1.049-1.631.233-3.029.233-4.31 0-1.281-.117-2.213-.35-2.796-.816-.349-.233-.582-.466-.815-.699-.233-.233-.35-.582-.466-.931 0-.35 0-.583.116-.932.117-.233.35-.466.699-.699.466-.233 1.049-.35 1.981-.35.815 0 1.863 0 3.028-.116 1.165-.117 2.447-.233 3.845-.466 1.398-.233 2.796-.699 4.31-1.398l-12.232-7.573c-1.631.466-3.378.816-5.126 1.165-1.747.35-3.495.583-5.242.699-1.748.117-3.495-.116-5.243-.466a14.898 14.898 0 01-5.125-2.097c-1.631-1.048-2.68-1.98-3.262-3.029-.583-1.048-.699-2.097-.583-3.145.233-1.048.699-1.98 1.631-2.912.816-.932 1.864-1.748 3.029-2.563l-1.514-.932c-.35-.233-.466-.466-.35-.699 0-.35.35-.583.816-.816.349-.233.932-.349 1.514-.349.583 0 1.049 0 1.398.233l1.398.932c.932-.466 1.98-1.049 3.262-1.515 1.281-.466 2.446-.932 3.611-1.165 1.165-.349 2.33-.466 3.379-.466 1.048 0 1.864.117 2.563.583.233.116.466.349.699.582.233.233.466.583.582.816.117.349.117.582 0 .932-.116.349-.349.582-.815.815-.35.233-.816.35-1.282.466a55.42 55.42 0 01-1.864.35c-.699.116-1.514.349-2.446.582-.932.233-1.864.583-2.913 1.049l10.602 6.523c1.631-.349 3.378-.815 5.125-1.048 1.748-.35 3.495-.466 5.359-.466 1.748 0 3.612.233 5.359.582 1.864.466 3.612 1.165 5.359 2.33 3.145 1.981 4.776 3.961 4.66 6.175-.117 2.097-1.398 4.077-4.078 5.941l1.748 1.049c.349.233.466.466.349.815-.116.35-.349.583-.815.815a3.59 3.59 0 01-1.515.35c-.582 0-.931-.117-1.281-.233l-1.864-1.165zm-32.969-14.562c.699.466 1.515.815 2.33.932.816.233 1.631.233 2.563.233.816 0 1.748-.117 2.68-.233.932-.117 1.864-.35 2.912-.583l-9.436-5.824c-1.398.932-2.213 1.864-2.563 2.912-.349.815.117 1.747 1.514 2.563zm30.523 3.961a9.356 9.356 0 00-5.126-1.515c-1.748 0-3.612.233-5.592.583l10.951 6.757c1.281-1.049 1.864-1.981 1.864-2.913.116-1.048-.583-1.98-2.097-2.912z" fill="#FF9238"/><path d="M395.938 211.542H307.4v5.941c-.116 6.641 4.194 13.281 12.931 18.29 17.242 10.019 45.318 10.019 62.559 0 8.737-5.009 13.048-11.766 12.931-18.29.117 0 .117-5.941.117-5.941z" fill="#FF9238"/><path d="M351.669 237.055c24.449 0 44.269-11.423 44.269-25.513 0-14.09-19.82-25.513-44.269-25.513-24.449 0-44.269 11.423-44.269 25.513 0 14.09 19.82 25.513 44.269 25.513z" fill="#FFC366"/><path d="M391.86 211.542v.932c-.465 5.126-4.193 10.135-10.834 14.096-7.805 4.66-18.173 7.223-29.24 7.223-11.068 0-21.552-2.563-29.241-7.223-6.64-3.961-10.485-8.97-10.951-14.096v-.932c0-5.475 3.845-10.834 10.951-15.028 7.689-4.66 18.173-7.223 29.241-7.223 11.067 0 21.552 2.563 29.24 7.223 6.874 4.194 10.834 9.553 10.834 15.028z" fill="#FF9238"/><path d="M391.744 212.474c-.466 5.126-4.194 10.135-10.834 14.096-7.806 4.66-18.174 7.223-29.241 7.223s-21.552-2.563-29.241-7.223c-6.64-3.961-10.484-8.97-10.95-14.096.466-5.126 4.31-10.135 10.95-14.096 7.689-4.66 18.174-7.223 29.241-7.223s21.552 2.563 29.241 7.223c6.64 3.961 10.484 8.97 10.834 14.096z" fill="#FFC366"/><path d="M370.076 223.774c-1.748.932-3.495 1.631-5.359 2.214-1.864.466-3.495.815-5.126 1.048-1.631.233-3.029.233-4.311 0-1.281-.116-2.213-.349-2.795-.815-.35-.233-.583-.466-.816-.699-.233-.233-.349-.583-.466-.932 0-.35 0-.583.117-.932.116-.233.349-.466.699-.699.466-.233 1.048-.35 1.98-.35.815 0 1.864 0 3.029-.116 1.165-.117 2.446-.233 3.844-.466 1.398-.233 2.796-.699 4.311-1.398l-12.232-7.573c-1.631.466-3.379.816-5.126 1.165a40.25 40.25 0 01-5.243.699c-1.747.117-3.495-.116-5.242-.466a14.902 14.902 0 01-5.126-2.097c-1.631-1.048-2.679-1.98-3.262-3.028-.582-1.049-.699-2.097-.582-3.146.233-1.048.699-1.98 1.631-2.912.815-.932 1.864-1.748 3.029-2.563l-1.631-.699c-.35-.233-.466-.466-.35-.699 0-.35.35-.583.816-.816.349-.233.932-.349 1.514-.349.583 0 1.049 0 1.398.233l1.398.932c.932-.466 1.98-1.049 3.262-1.515 1.281-.466 2.446-.932 3.611-1.165 1.165-.349 2.33-.466 3.379-.466 1.048 0 1.864.117 2.563.583.233.116.466.349.699.582.233.233.466.583.582.816.117.349.117.582 0 .932-.116.349-.349.582-.815.815-.35.233-.816.35-1.282.466a55.42 55.42 0 01-1.864.35c-.699.116-1.514.349-2.446.582-.932.233-1.864.583-2.913 1.049l10.602 6.524c1.631-.35 3.378-.816 5.125-1.049 1.748-.349 3.495-.466 5.359-.466 1.748 0 3.612.233 5.359.583 1.864.466 3.612 1.165 5.359 2.33 3.145 1.98 4.776 3.96 4.66 6.174-.117 2.097-1.398 4.077-4.078 5.941l1.748 1.049c.349.233.466.466.349.815-.116.35-.349.583-.815.816a3.589 3.589 0 01-1.515.349c-.582 0-.932-.116-1.281-.233l-1.747-1.398zm-32.969-14.562c.699.466 1.514.816 2.33.932.815.233 1.631.233 2.563.233.815 0 1.747-.116 2.679-.233.932-.116 1.864-.349 2.913-.582l-9.437-5.825c-1.398.932-2.213 1.864-2.562 2.912-.466.816.116 1.748 1.514 2.563zm30.522 3.961a9.354 9.354 0 00-5.126-1.515c-1.747 0-3.611.233-5.592.583l10.951 6.757c1.282-1.049 1.864-1.981 1.864-2.913.117-.932-.582-1.98-2.097-2.912z" fill="#FF9238"/><path opacity=".4" d="M304.721 259.888c2.097 11.184 17.008 17.708 23.416 19.339 7.572-8.854 8.97-26.212 9.436-43.337 0 0 18.173-10.019 21.435-17.125 3.845-8.388.699-12.232-10.485-11.883l-34.017 13.98-9.785 39.026z" fill="#FF9238"/><path d="M333.729 190.456l-5.359 7.106-6.058 10.485c-1.631 1.864-6.757.117-5.708-3.145l5.125-12 9.67-17.125 2.912 6.291-.582 8.388z" fill="#3B5770"/><path d="M316.836 247.656c.816.816.932 2.912.932 5.359-.466 2.446-2.679 2.446-4.66 2.912-3.727.932-5.242 3.845-10.251 4.311-2.913.233-5.01-.233-5.709-1.981-.116-.815.233-1.747 1.282-2.796 0 0 6.524-3.611 6.64-3.728.117-.116 3.029-2.562 3.029-2.795 0-.233 1.398-5.592 1.398-5.592l6.64-.583.699 4.893zm15.378 8.621c.815 2.097.466 2.563.233 4.194-.233.815-.583 1.281-.816 2.446-.233 1.515 0 3.845-1.98 5.475-2.33 2.214-7.339 2.796-9.087.699-.116-1.048.35-3.378 1.515-5.358l2.912-5.942.233-4.427 6.873-1.398.117 4.311z" fill="#000"/><path d="M354.116 221.328c-3.728 3.495-10.835 8.854-18.407 13.863.699 3.961-1.165 13.048-2.796 21.668-1.514 2.796-8.388 1.631-8.388 0 .35-10.601.466-23.881 1.515-26.91 4.893-6.99 9.669-13.165 13.979-15.96l7.456-4.194 6.641 5.359v6.174z" fill="#2A3D4F"/><path d="M341.3 217.251c-3.728 3.494-16.426 4.31-22.484 7.805.699 3.961.466 14.445-1.048 23.066-1.514 2.796-9.669 2.097-9.669.35.349-10.602-1.631-23.649-.699-26.795 1.747-7.921 11.3-10.717 23.183-15.261l3.495-.815 3.611 1.048 3.611 10.602z" fill="#2A3D4F"/><path d="M335.709 213.988s0 .117.117.117c.349.699.815 1.165 1.514 1.281 2.446.466 6.99-2.679 10.252-1.514 5.592 3.495 3.961 10.485 5.825 9.669 2.213-1.048 4.077-4.893 4.659-8.388 0 0 1.631-15.61.699-25.629-.233-2.563-.699-4.66-1.281-6.174-4.077-5.942-9.087-9.203-13.863-11.766l-10.135.932c-2.097 2.33-3.146 6.057-3.495 10.251 0 0 1.281 10.835 4.543 18.29.35.816.35 1.515.117 2.097-.816 2.214-4.893 3.146-4.893 3.146-.35 1.398 3.611.932 5.941 7.688z" fill="#3B5770"/><path d="M339.553 179.738l7.572-.699-10.135 22.368c-4.078-7.805-5.476-15.378-2.214-24.115l4.777 2.446z" fill="#E6E6E6"/><path d="M339.786 179.971l.466 2.796-1.631 2.796c-.233 4.194-1.049 8.738-.699 11.883l-1.165 4.077-1.864-3.961c.466-5.125 1.515-9.785 2.213-13.047l-.232-3.495 1.863-1.398 1.049.349z" fill="#FF4A51"/><path d="M342.466 170.535l4.427 2.913c2.563 6.057-2.33 9.086-5.359 12.814l-2.447-5.242-4.776 1.398 1.048-9.087 7.107-2.796z" fill="#fff"/><path d="M345.145 172.399c3.262 2.097 1.981 6.757-1.165 11.184-2.796 3.961-7.223 12.815-7.223 18.989 2.68-6.291 7.573-14.213 10.485-16.659l-1.048-2.097 2.096.233c1.748-2.912 2.447-5.708 1.981-8.388l-5.126-3.262z" fill="#2A3D4F"/><path d="M337.806 172.166c-4.078 4.66-5.126 22.368-.816 29.707-4.31-4.427-6.174-11.533-5.592-22.95l1.165-.815-.466-1.165 3.379-4.893 2.33.116z" fill="#2A3D4F"/><path d="M338.038 180.437c.466.35.583.466 1.049.583 4.776.466 7.106-5.708 5.359-8.737-1.398-2.563-1.748-3.612-1.748-3.612l-6.757 4.777s-.116.699.233 1.747c.466 1.864.583 4.194 1.864 5.242z" fill="#FFB294"/><path opacity=".5" d="M338.505 180.904c2.213.466 5.242-1.515 3.844-8.738l-5.941 3.146c.582 1.747.349 4.543 2.097 5.592z" fill="#FFB294"/><path d="M342.582 170.302s.466 3.612-.466 5.592c-.932 1.981-2.912 3.612-3.844 3.961-.816.35-1.631.583-2.447.117-.815-.466-3.611-6.524-3.611-6.524-.932-2.447-1.165-3.146-1.398-4.544-.35-2.097-.583-6.989 5.359-8.504 2.912-.699 5.358.583 6.756 2.913 1.049 1.863.816 5.824.816 5.824l-1.165 1.165z" fill="#FFB294"/><path d="M343.98 169.603l-2.097 2.447-.815-1.515c-.35-.815-1.165-1.165-1.981-.815-1.281.582-3.262 1.281-5.592 1.165-2.213-.233-2.912-1.282-2.912-1.282-2.33-3.145 1.281-7.689 4.776-8.97 4.311-1.514 7.107.699 8.155 3.145.932 2.33.466 5.825.466 5.825z" fill="#000"/><path d="M342.582 167.623c.35-.35.816-.466 1.165-.233a.64.64 0 01.35.582v.699c0 .466-.117.816-.233 1.282-.117.349-.117.699-.466.932-.35.233-.583.582-.932.349-.35-.233-.583-1.048-.699-1.398.116-.699.233-1.631.815-2.213z" fill="#FFB294"/><path d="M302.74 216.085l22.834 13.164 14.212-8.271v-.699l-22.833-12.465-14.213 8.271z" fill="#1A1A1A"/><path d="M302.74 215.387l22.834 13.164 14.212-8.272-22.833-13.164-14.213 8.272z" fill="#4D4D4D"/><path d="M306.118 215.969l1.398.815 1.165-.698-1.514-.816-1.049.699zm1.631.932l1.514.815 1.049-.582-1.398-.816-1.165.583zm1.748 1.048l1.398.816 1.165-.699-1.515-.816-1.048.699zm1.63.932l1.515.816 1.165-.583-1.515-.815-1.165.582zm1.748 1.049l1.514.815 1.048-.699-1.398-.815-1.164.699zm1.748.932l1.398.815 1.164-.582-1.514-.932-1.048.699zm1.63.932l1.515.932 1.165-.699-1.515-.816-1.165.583zm1.748 1.048l1.515.816 1.048-.583-1.398-.932-1.165.699zm1.748.932l1.397.932 1.165-.699-1.514-.815-1.048.582zm1.63 1.049l1.515.815 1.048-.582-1.398-.932-1.165.699zm1.748.932l1.398.932 1.165-.699-1.515-.816-1.048.583zm-15.028-10.951l1.398.816 1.165-.583-1.515-.932-1.048.699zm1.63.932l1.515.932 1.165-.699-1.515-.815-1.165.582zm1.748 1.048l1.515.816 1.048-.699-1.398-.816-1.165.699zm1.748.932l1.398.816 1.165-.583-1.515-.815-1.048.582zm1.63 1.049l1.515.816 1.048-.699-1.398-.816-1.165.699zm1.748.932l1.514.815 1.049-.582-1.398-.815-1.165.582zm1.748 1.048l1.398.816 1.165-.699-1.515-.816-1.048.699zm1.63.932l1.515.816 1.048-.583-1.398-.932-1.165.699zm1.748.932l1.397.932 1.165-.699-1.514-.815-1.048.582zm1.63 1.049l1.515.815 1.165-.582-1.515-.932-1.165.699zm1.748.932l1.514.932 1.049-.699-1.398-.816-1.165.583zm-15.727-10.601l1.398.932 1.165-.699-1.515-.816-1.048.583zm1.631 1.048l1.515.815 1.165-.582-1.515-.932-1.165.699zm1.748.932l1.514.932 1.049-.699-1.398-.816-1.165.583zm1.747 1.048l1.398.816 1.165-.583-1.514-.932-1.049.699zm1.631.933l1.515.932 1.048-.699-1.398-.816-1.165.583zm1.747 1.048l1.515.815 1.048-.699-1.398-.815-1.165.699zm1.748.932l1.398.815 1.165-.582-1.515-.816-1.048.583zm1.631 1.048l1.514.816 1.049-.699-1.398-.816-1.165.699zm1.747.932l1.398.816 1.165-.583-1.514-.815-1.049.582zm1.631 1.049l1.515.815 1.165-.699-1.515-.815-1.165.699zm-13.98-9.669l1.398.815 1.165-.582-1.514-.816-1.049.583zm1.631 1.048l1.514.815 1.165-.698-1.514-.816-1.165.699zm1.748.932l1.514.816 1.048-.583-1.397-.932-1.165.699zm1.747.932l1.398.932 1.165-.699-1.514-.815-1.049.582zm1.631 1.049l1.515.815 1.048-.583-1.398-.931-1.165.699zm1.748.931l1.514.932 1.049-.699-1.398-.815-1.165.582zm1.748 1.049l1.398.815 1.164-.582-1.514-.932-1.048.699zm1.63.932l1.515.932 1.048-.699-1.398-.816-1.165.583zm1.748 1.048l1.397.816 1.165-.699-1.514-.816-1.048.699z" fill="#fff"/><path d="M326.388 223.891l1.282-.699-1.748-1.049 1.165-.582 1.748.932.349.233 1.049.582-.932.583-.117.116-1.281.699-1.515-.815zm-12.348-10.135l-.466-.233-1.631-.932 1.048-.699 1.748 1.048.466.233 1.048.583-1.165.582-1.048-.582zm1.281.815l1.515.816 1.048-.699-1.398-.816-1.165.699zm1.747.932l1.398.815 1.165-.582-1.514-.815-1.049.582zm1.632 1.049l1.514.815 1.049-.699-1.398-.815-1.165.699zm1.747.932l1.514.815 1.049-.582-1.398-.932-1.165.699zm1.748.931l1.398.932 1.165-.699-1.515-.815-1.048.582zm1.631 1.049l1.514.815 1.049-.582-1.398-.932-1.165.699zm1.747.932l1.398.932 1.165-.699-1.514-.816-1.049.583zm3.146 1.864l-.233-.117-1.281-.699 1.165-.699 1.165.699.349.233 1.631.932-1.048.699-1.748-1.048zm-15.494-10.485l1.398.932 1.165-.699-1.515-.815-1.048.582zm1.63 1.049l1.515.815 1.165-.582-1.515-.932-1.165.699zm1.748.931l1.514.932 1.049-.699-1.398-.815-1.165.582zm9.203 5.359l-.699-.349-.233-.233-1.398-.816-.233-.116-1.514-.815-.233-.233-1.514-.816-1.631-.932 1.048-.699 1.748 1.049 1.397.815.35.117 1.398.815.233.233 1.514.815.233.117.699.466.699.349-1.048.699-.816-.466zm1.048.583l1.398.815 1.165-.582-1.515-.932-1.048.699zm1.632.932l1.514.932 1.165-.699-1.514-.816-1.165.583zm1.747 1.048l1.514.816 1.049-.583-1.398-.932-1.165.699z" fill="#fff"/><path d="M321.38 214.221l6.174 3.612 3.146-1.864-6.175-3.611-3.145 1.863z" fill="#333"/><path d="M295.634 201.174l22.834 13.164 7.106 14.213-22.833-13.164-7.573-13.747.466-.466z" fill="#1A1A1A"/><path d="M295.168 201.64l22.833 13.281 7.107 14.212-22.834-13.164-7.106-14.329z" fill="#4D4D4D"/><path opacity=".3" d="M335.709 213.989l1.515 1.398c2.446.466 6.989-2.68 10.251-1.515 5.592 3.495 3.961 10.485 5.825 9.669 2.214-1.048 4.077-4.893 4.66-8.387 0 0 1.631-15.611.699-25.63l-.35-1.281-8.737 1.165c-.932 8.504-6.524 15.727-11.766 14.445l-3.145-.582c-.816 2.213-4.893 3.145-4.893 3.145-.35 1.282 3.611.816 5.941 7.573z" fill="#2A3D4F"/><path d="M358.309 202.688c-.466 3.029-2.33 5.709-4.893 7.34-3.494 2.563-7.805 4.893-12.698 7.805-2.563 1.398-6.407-3.844-5.126-5.126 3.495-3.262 7.806-6.524 12.815-9.786l.699-12.465c.699-5.592.699-11.649 6.058-10.251 5.126 2.912 4.194 16.775 3.145 22.483z" fill="#3B5770"/><path d="M338.505 217.134l-1.631.815c-1.864 1.398-3.495 1.631-5.126 1.631l-1.747 1.165-1.282 1.864c-.932 1.165-1.281.35-.932-.466l.699-1.165 1.515-1.747-.583-.35-1.281.35-1.748.932-.466.466c-.233.233-.699.349-1.048.233h-.117l-.233.116c-.233.117-.582 0-.699-.233-.116-.233-.116-.582 0-.932l.816-1.281 1.398-1.165-1.165.233-.932.699-.582.699c-.699.699-1.049.116-.816-.699l.699-1.049 1.98-1.398 3.029-.931 5.359-.35 1.981-.815c1.98-1.165 4.31 2.329 2.912 3.378zm-17.474-9.786l-.35.699.117 3.029-.932 2.214-.466 1.398-1.165 1.281c-.583.582-1.165-.233-.816-1.048l.816-1.398v-1.398c-.816-.35-1.631-.35-2.447.233 0 0-.582 1.747-.582 1.864 0 .116-.35 1.747-.35 1.747-.233 1.398-1.281 1.281-1.281.116l.233-2.096.233-1.631-1.282 1.98-.698 1.747c-.466.932-1.398.932-1.165 0l.466-1.63.582-1.515-1.281 1.515-.35 1.281c-.116.349-.349.815-.815.815-.35 0-.583-.349-.35-.699-.233-.116-.233-.582-.116-.931l1.048-1.981 3.378-3.611 3.262-2.68.932-1.398c1.049-1.514 3.961.699 3.379 2.097z" fill="#FFB294"/><defs><filter id="filter0_d" x="0" y="0" width="690" height="524" filterUnits="userSpaceOnUse" color-interpolation-filters="sRGB"><feFlood flood-opacity="0" result="BackgroundImageFix"/><feColorMatrix in="SourceAlpha" values="0 0 0 0 0 0 0 0 0 0 0 0 0 0 0 0 0 0 127 0"/><feOffset/><feGaussianBlur stdDeviation="5"/><feColorMatrix values="0 0 0 0 0 0 0 0 0 0 0 0 0 0 0 0 0 0 0.02 0"/><feBlend in2="BackgroundImageFix" result="effect1_dropShadow"/><feBlend in="SourceGraphic" in2="effect1_dropShadow" result="shape"/></filter></defs></svg>