<svg width="670" height="504" viewBox="0 0 670 504" fill="none" xmlns="http://www.w3.org/2000/svg"><path fill="url(#paint0_linear)" d="M0 0h670v504H0z"/><mask id="mask0" maskUnits="userSpaceOnUse" x="144" y="171" width="430" height="195"><path d="M144.14 365.326h429.342V171.017H144.14v194.309z" fill="#fff"/></mask><g mask="url(#mask0)" fill-rule="evenodd" clip-rule="evenodd"><path d="M568.194 268.156c-26.068 53.603-141.364 97.242-256.649 97.242-115.401 0-188.178-43.639-162.113-97.242 25.962-53.395 141.358-97.139 256.655-97.139 115.396 0 188.161 43.744 162.107 97.139z" fill="#032B76"/><path d="M403.495 173.088c112.123 0 182.692 42.397 157.189 94.234-25.399 51.947-137.624 94.348-249.525 94.348-112.119 0-182.694-42.401-157.298-94.348 16.485-33.419 68.698-62.748 133.668-79.571 4.613-1.256 9.343-2.275 14.069-3.416 32.314-7.154 67.162-11.247 101.897-11.247z" fill="#0A0A08"/><path d="M401.812 175.907c110.71 0 180.534 40.918 155.529 90.867-25.007 50.143-135.62 90.971-246.227 90.971-110.714 0-180.536-40.828-155.527-90.971 24.907-49.949 135.615-90.867 246.225-90.867z" fill="#969998"/></g><path fill-rule="evenodd" clip-rule="evenodd" d="M384.165 184.444c100.021 0 162.975 36.598 140.224 81.349-22.657 44.844-122.772 81.446-222.595 81.446-100.018 0-162.976-36.602-140.321-81.446 14.707-28.85 61.284-54.17 119.241-68.69 4.116-1.085 8.335-1.965 12.551-2.948 28.827-6.178 59.913-9.711 90.9-9.711z" fill="#0A0A08"/><path fill-rule="evenodd" clip-rule="evenodd" d="M507.974 229.086c4.799 7.978 5.686 16.956 1.887 26.37-3.56 7.125-7.641 12.861-13.725 18.505-31.556 29.176-102.567 50.938-173.482 50.938-83.615 0-136.344-30.238-117.294-67.309 13.088-25.519 57.443-48.719 110.56-60.183 6.249-1.347 12.597-2.406 19.043-3.37-12.496 1.254-24.724 3.081-36.746 5.679-58.889 13.003-108.826 33.997-123.361 63.075-21.069 42.274 37.334 76.744 130.096 76.744 76.004 0 152.12-23.107 188.683-54.792 4.129-3.556 8.961-8.58 12.753-13.932 1.566-2.167 2.938-4.359 4.084-6.573 6.545-12.713 5.295-24.75-2.498-35.152z" fill="#0D5DB8"/><path fill-rule="evenodd" clip-rule="evenodd" d="M111.968 259.134c-1.773 2.788-3.551 4.847-5.286 6.121l-.069.052c-2.003 1.576-4.626 2.376-7.797 2.376-2.06 0-3.473-.412-3.868-1.111-.04-.105-.97-2.667 1.898-11.912 1.897-5.856 4.107-10.04 6.57-12.436 3.057-3.062 6.338-4.488 10.324-4.488 1.253 0 2.293.193 2.926.544.474.268.85.479.998 2.203l.579 6.75h31.791a45.914 45.914 0 00-5.074 8.483h-30.82l-2.172 3.418zm77.063 1.963c-1.186 3.778-2.714 6.522-4.419 7.93-1.744 1.397-3.209 2.02-4.752 2.02-.32 0-.523-.029-.643-.055-.067-.417-.169-1.899.892-5.283 1.012-3.447 2.501-6.064 4.3-7.567 1.648-1.319 3.174-1.908 4.947-1.908.215 0 .369.012.476.027.064.468.108 1.86-.801 4.836zm75.915-.076c-.976 3.337-2.288 5.824-3.693 7.005-1.147.967-2.115 1.436-2.961 1.436-.086 0-.163-.003-.233-.005.018-.582.151-1.75.755-3.7 1.312-4.275 2.792-6.109 3.806-6.898 1.158-.945 2.153-1.44 3.2-1.586-.062.706-.265 1.882-.85 3.671l-.024.077zm223.379-33.199l8.43-27.042-43.331 17.986-1.108.461-2.675 8.595h-8.591l-.352 1.126c-3.624-1.622-7.201-2.412-10.928-2.412-2.922 0-5.697.432-8.249 1.286h-33.938l-6.423 20.529a34.278 34.278 0 00-.071-2.567c-.305-4.457-1.87-8.405-4.404-11.11-3.156-3.609-7.609-5.936-13.231-6.919-4.168-.831-9.821-1.219-17.792-1.219-4.664 0-9.068.316-13.464.97-4.971.767-8.618 1.776-11.471 3.168-4.232 1.838-7.74 4.071-10.421 6.637-2.364 2.157-4.524 4.904-6.598 8.386a29.689 29.689 0 00-1.94-6.251c-2.749-5.89-8.937-12.91-22.816-12.91-3.428 0-6.664.431-9.88 1.318l.011-.032h-37.068l-5.335 17.059a26.862 26.862 0 00-2.424-5.101c-5.584-8.789-15.897-13.244-30.651-13.244-12.101 0-22.872 3.244-32.012 9.645a55.845 55.845 0 00-4.798 3.781v-.109c0-12.583-3.414-21.484-10.435-27.211-6.119-5.226-15.139-7.766-27.577-7.766-14.84 0-27.902 4.001-38.826 11.897-10.864 7.919-18.592 19.203-22.967 33.533-3.542 11.19-3.939 20.795-1.182 28.553 2.954 8.102 7.842 13.876 14.526 17.156 6.008 3.006 14.194 4.529 24.332 4.529 8.432 0 15.811-1.185 21.925-3.524 6.172-2.242 12.017-5.745 17.375-10.413 2.445-2.2 5.133-5.113 7.593-8.227 1.309 6.09 4.5 10.396 6.97 12.951 6.04 6.047 15.02 9.114 26.691 9.114 12.263 0 23.163-3.276 32.395-9.741a52.42 52.42 0 006.371-5.244l-11.001 35.166h38.776l7.027-22.327c3.382 1.425 7.275 2.146 11.578 2.146 9.029 0 17.477-3.024 25.11-8.99a43.356 43.356 0 006.103-5.867c.689 2.812 2.062 5.373 4.08 7.616 4.263 4.872 10.953 7.241 20.453 7.241 6.265 0 12.139-.939 17.459-2.791a41.243 41.243 0 002.66-1.051l.852 2.552h66.873l7.55-24.157c3.145-9.999 6.025-13.993 7.455-15.477 1.382-1.237 2.308-1.407 3.102-1.407.09 0 .949.027 3.043.952l5.214 2.306 2.479-2.989 7.29.019-3.201 10.236c-2.501 7.624-3.345 13.061-2.654 17.108.723 4.951 3.39 9.049 7.509 11.536 3.517 2.158 8.603 3.163 16.003 3.163 5.4 0 11.427-.644 17.917-1.914l3.152-.617 1.677-.331 6.491-31.863-11.615 3.41 3.326-10.721h12.737l9.545-30.587h-12.651z" fill="#fff"/><path fill-rule="evenodd" clip-rule="evenodd" d="M115.217 257.677l-1.595 2.511c-1.904 2.993-3.848 5.231-5.798 6.662-2.355 1.854-5.387 2.795-9.008 2.795-2.912 0-4.791-.716-5.588-2.133-.263-.458-1.413-3.258 1.743-13.427 2.002-6.183 4.383-10.647 7.082-13.272 3.384-3.391 7.208-5.039 11.687-5.039 1.625 0 2.929.266 3.872.786 1.119.632 1.806 1.448 2.005 3.755l.425 4.956h34.159c-3.371 3.726-6.037 7.874-7.966 12.406h-31.018zm75.69 3.988c-1.324 4.214-3.022 7.202-5.042 8.87-2.106 1.687-4.013 2.474-6.005 2.474-1.769 0-2.131-.619-2.374-1.036-.094-.155-.87-1.674.752-6.858 1.132-3.847 2.786-6.7 4.907-8.472 2.019-1.617 3.991-2.371 6.21-2.371 1.632 0 1.915.485 2.225 1.012.035.056.842 1.424-.673 6.381zm66.033 3.511c1.157-3.768 2.704-6.487 4.485-7.872 1.702-1.391 3.312-2.04 5.067-2.04.9 0 .961.11 1.168.487.179.305.408 2.024-.832 5.82-1.101 3.759-2.592 6.512-4.315 7.959-1.513 1.275-2.895 1.894-4.222 1.894-1.603 0-1.871-.448-2.047-.741-.006-.014-.618-1.257.696-5.507zm43.626-.963c.788-2.797 1.321-5.525 1.591-8.134l10.29 1.044c-3.742 1.272-6.785 2.841-9.246 4.763a27.593 27.593 0 00-2.635 2.327zm189.423-7.766l8.32-26.663h-12.65l7.975-25.584-39.721 16.487-2.828 9.097h-8.595l-.605 1.935c-4.045-2.167-8.015-3.221-12.115-3.221-2.831 0-5.491.433-7.924 1.286h-32.823l-19.46 62.208-.181-1.099c-.434-2.628-.478-3.935-.439-4.563.046-.659.286-2.065 1.155-5.003l7.786-24.937c1.087-3.283 1.495-6.71 1.247-10.478-.275-4.023-1.662-7.55-3.892-9.913-2.856-3.28-6.937-5.403-12.113-6.308-4.078-.814-9.627-1.193-17.465-1.193-4.567 0-8.877.309-13.177.951-4.787.738-8.268 1.696-10.925 3.002-4.042 1.75-7.374 3.863-9.892 6.272-2.682 2.45-5.114 5.729-7.437 10.026l-1.877 3.473c.003-4.354-.794-8.376-2.386-11.996-2.496-5.35-8.169-11.728-21.016-11.728-4.477 0-8.709.794-12.879 2.419l.35-1.133h-32.967l-7.238 23.138c-.184-4.403-1.402-8.466-3.639-12.124-5.186-8.162-14.934-12.3-28.973-12.3-11.692 0-22.084 3.125-30.889 9.292-2.938 2.069-5.568 4.337-7.882 6.795v-4.732c0-11.956-3.179-20.36-9.705-25.686-5.776-4.932-14.395-7.329-26.347-7.329-14.418 0-27.096 3.877-37.68 11.525-10.508 7.662-17.99 18.603-22.237 32.513-3.413 10.786-3.821 19.981-1.209 27.329 2.77 7.598 7.327 12.998 13.537 16.047 5.745 2.872 13.642 4.33 23.472 4.33 8.192 0 15.334-1.142 21.221-3.391 5.969-2.171 11.618-5.556 16.798-10.067 3.441-3.097 7.243-7.526 10.232-11.884.223 7.987 3.864 13.462 7.027 16.733 5.641 5.646 14.146 8.51 25.276 8.51 11.855 0 22.376-3.158 31.272-9.387 4.967-3.481 9.083-7.626 12.28-12.366l-13.119 41.934h34.67l7.263-23.074c.437.223.884.432 1.329.622 3.282 1.508 7.134 2.271 11.451 2.271 8.581 0 16.623-2.884 23.905-8.574 3.299-2.593 6.245-5.767 8.784-9.459-.255 5.362 1.977 9.127 4.057 11.437 3.884 4.438 10.099 6.596 19 6.596 6.045 0 11.703-.902 16.817-2.682a41.1 41.1 0 004.466-1.902l1.1 3.294h64.02l7.119-22.778c3.131-9.952 6.069-14.371 7.959-16.301 1.496-1.357 2.876-1.962 4.47-1.962.391 0 1.549.109 3.836 1.118l3.86 1.709 2.122-2.559 10.875.025-3.994 12.773c-2.412 7.352-3.234 12.508-2.592 16.214.631 4.374 2.97 7.987 6.583 10.171 3.206 1.966 7.971 2.88 14.993 2.88 5.272 0 11.173-.632 17.54-1.878l3.546-.694 5.58-27.392-8.624 2.533a48.94 48.94 0 01-3.338.866l4.8-15.471h12.74z" fill="#0A0A08"/><path fill-rule="evenodd" clip-rule="evenodd" d="M142.503 263.096c-2.666 6.13-8.5 13.549-13.44 17.998-4.55 3.962-9.591 7.027-15.025 9.004-5.436 2.075-11.956 3.066-19.371 3.066-9.096 0-16.11-1.287-21.051-3.76-5.04-2.473-8.6-6.826-10.87-13.056-2.182-6.131-1.784-14.144 1.282-23.837 3.955-12.95 10.774-22.85 20.263-29.767 9.584-6.924 21.05-10.488 34.492-10.488 10.475 0 18.086 1.98 22.831 6.035 6.424 5.239 7.808 13.846 7.808 21.562h-24.409c-.298-3.462-1.584-6.233-4.744-8.013-1.785-.99-3.957-1.485-6.528-1.485-5.831 0-11.07 2.175-15.517 6.628-3.358 3.266-6.129 8.409-8.403 15.429-2.668 8.604-3.159 14.543-1.284 17.805 1.781 3.169 5.241 4.846 10.28 4.846 4.943 0 9.093-1.386 12.357-3.954 2.567-1.883 4.939-4.747 7.017-8.013h24.312zm53.57.197c-1.678 5.343-3.952 9.102-6.821 11.471-2.965 2.377-6.026 3.663-9.391 3.663-3.258 0-5.631-1.286-7.014-3.663-1.484-2.467-1.384-6.128.198-11.18 1.482-5.04 3.754-8.698 6.717-11.172 2.966-2.378 6.132-3.558 9.595-3.558 3.156 0 5.429 1.18 6.817 3.558 1.481 2.373 1.38 6.037-.101 10.881zm21.938-19.586c-4.148-6.528-12.251-9.791-24.405-9.791-10.582 0-19.873 2.774-27.774 8.307-8.009 5.639-13.349 12.762-16.015 21.361-2.964 9.302-1.581 16.822 3.957 22.557 4.542 4.549 11.658 6.924 21.446 6.924 10.866 0 20.26-2.87 28.166-8.407 7.906-5.539 13.147-12.662 15.911-21.365 2.472-7.714 1.979-14.243-1.286-19.586zm54.014 19.389c-1.478 5.044-3.553 8.504-6.025 10.581-2.47 2.079-5.038 3.167-7.708 3.167-3.065 0-5.339-1.088-6.624-3.268-1.383-2.171-1.28-5.534.098-9.992 1.485-4.838 3.56-8.403 6.233-10.476 2.664-2.178 5.429-3.263 8.494-3.263 2.67 0 4.649.988 5.836 3.161 1.278 2.175 1.186 5.538-.304 10.09zm23.037-20.577c-2.675-5.732-8.009-8.603-16.11-8.603-4.055 0-8.009.79-11.961 2.475-2.868 1.185-6.328 3.556-10.476 7.118l2.566-8.307h-21.646l-24.412 78.044h23.329l8.501-27.007c1.579 2.276 3.754 3.956 6.323 5.046 2.57 1.181 5.633 1.78 9.19 1.78 7.313 0 14.236-2.477 20.56-7.417 6.424-5.046 11.069-12.168 14.032-21.566 2.673-8.603 2.673-15.725.104-21.563zm50.8 25.82c-.894 2.671-1.987 4.943-3.467 6.626-1.482 1.68-3.459 3.064-6.026 4.253-2.571 1.188-5.135 1.781-7.811 1.781-2.465 0-4.151-.593-5.034-1.683-.99-1.086-1.193-2.472-.598-4.151.4-1.488 1.481-2.77 3.167-3.96 1.578-1.186 4.935-2.274 9.979-3.464 3.758-.888 7.311-1.779 10.867-2.866l-1.077 3.464zm27.866-22.058c-.195-2.866-1.086-5.142-2.576-6.72-2.068-2.382-5.136-3.865-9.087-4.555-3.949-.791-9.492-1.09-16.404-1.09-4.352 0-8.4.299-12.355.89-3.858.592-7.121 1.387-9.487 2.574-3.462 1.483-6.323 3.263-8.498 5.342-2.272 2.075-4.349 4.941-6.328 8.605l21.437 2.174c1.691-2.472 3.368-4.153 5.15-5.045 2.274-1.089 5.239-1.681 9.092-1.681 2.962 0 4.843.494 5.728 1.582.799 1.088.799 2.97 0 5.64-3.254.988-6.228 1.878-8.99 2.572-2.865.59-8.799 1.783-17.987 3.458-7.71 1.286-13.345 3.36-16.899 6.136-3.556 2.768-6.03 6.332-7.316 10.583-1.48 4.65-.785 8.502 1.977 11.57 2.771 3.167 7.71 4.749 14.926 4.749 5.428 0 10.469-.795 15.013-2.375 3.365-1.188 7.027-3.164 10.875-5.834-.198 1.58-.292 2.766-.292 3.559 0 .796.191 1.872.688 3.36h21.643c-.391-2.371-.591-4.348-.495-5.828.104-1.487.599-3.567 1.386-6.234l7.817-25.024c.881-2.672 1.178-5.44.982-8.408zm19.274-11.079h21.644l-2.865 9.196c3.362-3.955 6.425-6.722 9.096-8.205 2.665-1.584 5.627-2.277 8.894-2.277 3.46 0 6.815.99 10.272 2.968l-11.957 15.431c-2.467-1.093-4.442-1.581-6.023-1.581-3.063 0-5.738 1.181-8.211 3.462-3.353 3.362-6.522 9.499-9.381 18.59l-5.936 18.989h-23.231l17.698-56.573zm92.017-21.56l-6.72 21.56h12.649l-4.94 15.827h-12.747l-6.231 20.08c-.794 2.371-.989 3.954-.794 4.745.396 1.189 1.485 1.882 3.455 1.882 1.688 0 4.252-.496 7.619-1.487l-3.063 15.036c-6.028 1.181-11.567 1.78-16.501 1.78-5.831 0-9.891-.688-12.163-2.082-2.276-1.377-3.654-3.556-4.052-6.325-.499-2.865.299-7.418 2.374-13.75l6.218-19.879h-8.592l4.94-15.827h8.597l3.264-10.482 26.687-11.078z" fill="#fff"/><defs><linearGradient id="paint0_linear" x1="335" y1="0" x2="335" y2="504" gradientUnits="userSpaceOnUse"><stop stop-color="#121773"/><stop offset="1" stop-color="#0D1038"/></linearGradient></defs></svg>