<svg version="1.1" id="Layer_1" xmlns="http://www.w3.org/2000/svg" xmlns:xlink="http://www.w3.org/1999/xlink" x="0" y="0" viewBox="0 0 670 504" xml:space="preserve"><path fill="#EFEFEF" d="M0 0h670v504H0z"/><defs><path id="SVGID_1_" d="M44 152h528v199H44z"/></defs><clipPath id="SVGID_2_"><use xlink:href="#SVGID_1_" overflow="visible"/></clipPath><g clip-path="url(#SVGID_2_)"><path fill="#261C02" d="M389.3 246.1l14.1 11.9-2.2 13.9h23.3l-3.2 20.1H371l11.6-73.4h49.5l-3.2 20.1h-22.6l-1.1 7.5h-15.9zm174.3-20.8h.9c1 0 1.9-.4 1.9-1.4 0-1-.5-1.4-1.9-1.4h-.9v2.8zm0 4.4h-1.3v-8c.7-.1 1.5-.2 2.3-.2.9-.1 1.8.1 2.5.6.3.2.4.4.6.7.1.3.2.6.2.9 0 .5-.2.9-.4 1.2-.3.4-.7.6-1.1.7.7.2 1.2.8 1.3 2 .1.7.2 1.3.5 2h-1.3c-.3-.6-.5-1.3-.5-2 0-.2-.1-.4-.1-.6-.1-.2-.2-.4-.4-.5l-.6-.3c-.2-.1-.4-.1-.6 0h-.9l-.2 3.5zm1.3-10.1c-1.2-.1-2.4.2-3.5.9-1 .6-1.9 1.6-2.4 2.7s-.7 2.3-.5 3.5c.2 1.2.8 2.3 1.6 3.2.8.9 1.9 1.5 3.1 1.7 1.2.3 2.4.2 3.6-.3 1.1-.4 2.1-1.2 2.8-2.2s1-2.2 1-3.4c0-.8-.1-1.6-.4-2.3s-.7-1.4-1.2-2c-.5-.6-1.2-1-1.9-1.3-.6-.4-1.4-.5-2.2-.5zm0-1.2c1.4 0 2.8.4 4 1.2 1.2.8 2.1 1.9 2.7 3.2.6 1.3.7 2.8.4 4.2-.3 1.4-1 2.7-2 3.7s-2.3 1.7-3.7 2c-1.4.3-2.9.1-4.2-.4-1.3-.5-2.4-1.5-3.2-2.7-.8-1.2-1.2-2.6-1.2-4 0-.9.2-1.9.5-2.7.4-.9.9-1.7 1.5-2.3.7-.7 1.5-1.2 2.3-1.6 1.1-.4 2-.6 2.9-.6zm-310.2 42.8l-1.2-15c-.3-3.6-.3-7.4-.3-10.9h-1.1l-9.9 25.9h12.5zM229.3 292h-32.8l43.2-85H274l16.9 85h-32.8l-1.1-10.7h-23.4l-4.3 10.7zm96.4-22h1.7c8.9 0 16.4-4.1 17.8-13.7 1.6-10.3-3.6-14.7-13.4-14.7h-1.7l-4.4 28.4zm-18.6-51.4h27.3c24.7 0 41.9 10.8 37.7 37.8-3.5 21.8-21.1 35.7-42.7 35.7h-33.9l11.6-73.5zm131.5 47.1l1.2 1.1c4.5 4.1 10.3 6.5 16.4 6.7 2.8 0 7.3-1.1 7.9-4.4.6-3.3-3.1-3.6-5.6-4.1l-5.5-1c-10.7-1.9-18.9-8-17-19.5 2.9-17.4 21.2-27.2 38.1-27.2 8.3-.2 16.4 2 23.4 6.4l-10.5 19c-4.4-3.5-9.8-5.4-15.4-5.6-2.5 0-6.2.9-6.7 3.9s3 3.1 5.1 3.6l6.1 1.3c11.5 2.5 19.1 8.6 17 21-2.9 17.5-21.2 26.2-37.9 26.2-10 0-19.8-2.3-28.7-6.6l12.1-20.8zm97.1-.2l-1.1-13c-.3-3.1-.2-6.3-.2-9.5h-1l-8.4 22.4h10.7zM513.8 292h-28.3l37.3-73.5h29.6L567 292h-28.4l-1-9.2h-20.2l-3.6 9.2z"/><path fill="#008C99" d="M424.2 269.7l-1.3-12.4 10.4-7.4-11.2.1-1.8-9.7-6 9.7-12.4-.1v.2l8.8 7.3-5.5 12.5 11.1-8.1 7.9 7.9zM211 326.5l4.2 2.5 2.5 1.7.9.7.5.4.2.3.2.5.4 1 .3 1.1.2.8.2.3.2.2.3.2.3.3.8.5 1 .7 1.1.9 1.1 1.1.5.6.4.6.4.6.3.6v2.5l-.3.9-.2.4-2-1.9-.2-.2-.3-.2-.7-.3-1.7-.5-5.5-1.6-8.3-2.7-5.1-1.6-7.6-2.4-6.5-12.7-4.8-9.5-1.3-3.1 4.7 2.5 9.5 5.7 13.5 8.3.8.8zm-56.4 11.7l-5.5-1.8.2-.7.3-1.3 1.3-4.4.2-.8v-.5l-.1-.3-.6.4-1.3.9-3.7 2.5-.9.5-.7.4-.6.2-7.3-3.4-3.3-2.2-2.1-1.5 7.6-1.3h1.1l.3-.2v-.2l-.2-.3H138l-.7-.1-2.5-.3-4.1-.6-7.8-1-1.3-1.3-4.8-4.3-3.6-3.6-2.2-2.5 2.5 1.1 10.9 4.1 21.4 7.1 3.7 1.3 2.2 1 .7.5.6.5.5.5.5.6.4.5.3.5.2.5v2.4l-.3 7.1zM49 225.6v-.2l-2.9-10.1-1-5.1-.5-5.5-.7-10.7 5.5 7.5 5.4 6.4 2.8 3 1.7 1.6c6.1 6.2 12.9 11.8 20.2 16.5l8.6 5.7 10.7 6.7 16.3 9.2 17.1 9.2 9.5 4.4 6.6 3.1 5.7 2.5 6.3 2.8 4.8 10 7.6 16.5 8.4 16.6 7.1 14.6 2.5 5.1 2.7 5.3 1 2 3.5 7.1.5 1.2-4-.8-3.3-.8-2.7-.9-3.8-1.7-3.2-1.8-.5-.4-3.9-3h6l.6-.3v-.2l-.2-.2-.3-.2-.5-.2-.8-.3-1.1-.3-4.7-1-3.7-1.1-3.1-1.8-2.2-1.8-1.3-1.6-1.6-1.9-3.4-3.9 11.7 2.9 4.7 1.1 3 .6h.7l.2-.2.2-.3v-.6l-.2-.3-.4-.3-.5-.3-.7-.4-1-.4-17.1-6.9-18.3-7.9-12.7-6.4-8-4.4-4.4-2.8 12.5-2.1 8.9-2 6.6-1.9.2-.4-14.9.9-15.3.4h-6.1l-17.2-13.2-14-11.8-6.9-6.7-4.3-4.8 19.2 6 13.6 3.8 13.3 3.3 8.1 1.4 1 .3h1l.2-.2-.4-.3-13-4.2-19.8-7.1-17.6-7.8-8.1-4.3c-8.7-4.1-15.9-23.9-15.9-23.9zm101.7-26.8l9.6-12.7c2.6-3.2 5.3-6.2 8.2-9.1l7.6-7.2-3.4 7.6s-2.7 10.1-3.4 12.9c-.7 2.8-2.3 13.1-2.3 13.1l-.7 6.2-.7 12.2.7-.4v-.8l.5-3.9 1.7-9.8.7-3.3s2.8-11.2 4-14.5c1.1-3.3 4.7-11.1 4.7-11.1l2.1-3.9 4.2-6.7 3.1-4.1 2.2-2.5 2.2-1.7 2.5-1.4 12.5-5.8-5.1 5.3-3.8 4.7-3.8 5.3-2.5 4-3.1 5.9-1.1 2.5s-3.3 7.4-4.4 10.7c-1.1 3.3-4.4 15.2-4.4 15.2l-1.5 6.7-1.4 12.4-1 12.9v5.8l.6 7 1.7 13.2 2.5 13.8 2.5 11.9 2.8 11 2.2 7.6-7.2-4.1-3.7-8.3-3-6.4-4.3-10.5-3.2-8.1-7.2-3.6-10.8-5.4-13.5-8-6-4.5-3.7-3 2.5-5.6 3.9-7.6 7.1 9.2 6.3 7.4.7.4-.3-.9-1.5-3.6-2.1-3.9-2.5-4.8-4-9.9 3.3-7.1 4.5-8.1 2.2 7 2.7 7 3.3 7.8 8.8 16.9h.2l.2-.2v-.2l-1.2-4.5-1.8-6.2-3.4-13.2-2.5-15.4-.2-6.7v-1.5c-.2-.6.1-3.4.1-3.4h.1z"/></g></svg>