<svg width="25" height="25" viewBox="0 0 25 25" fill="none" xmlns="http://www.w3.org/2000/svg"><path d="M13.281 19.14a.39.39 0 100-.78.39.39 0 000 .78zm-1.101 0H9.787a3.52 3.52 0 003.102 3.103V19.85a1.17 1.17 0 01-.71-.71zm1.492.71v2.393a3.52 3.52 0 003.102-3.102H14.38a1.17 1.17 0 01-.71.709zm-.783-2.2v-2.392a3.52 3.52 0 00-3.102 3.102h2.393a1.17 1.17 0 01.709-.71zM4.91 13.09a1.168 1.168 0 00-1.156-.98h-1.63c-.11.337-.17.695-.17 1.065v.497h3.053l-.097-.583zm8.762 2.168v2.392c.33.118.591.379.71.71h2.392a3.52 3.52 0 00-3.102-3.102zm-12.5 1.93v.78a.39.39 0 00.39.391H5.88c.028-.538.113-1.06.25-1.562H1.563a.39.39 0 00-.391.39z" fill="#B4B4B4"/><path d="M19.59 1.172a4.314 4.314 0 00-3.115 1.337l-6.13 6.453-5.352.73a3.521 3.521 0 00-2.51 1.636h1.271c.959 0 1.769.687 1.927 1.633l.25 1.492H1.952v1.563h4.435c1.092-2.742 3.767-4.688 6.893-4.688 3.96 0 7.197 3.12 7.402 7.031h3.145v-1.562H21.18l-.216-.862a7.103 7.103 0 00-6.901-5.388h-.391V7.03c0-.553.387-1.016.903-1.138l2.8-3.053a2.742 2.742 0 012.016-.887h4.437v-.781H19.59z" fill="#B4B4B4"/><path d="M14.453 8.984v.791a7.882 7.882 0 017.268 5.97l.068.27h2.04v-5.468h-1.563v-.781h1.562v-.782h-9.375zm2.344-1.953a.391.391 0 00-.39-.39h-1.563a.391.391 0 00-.39.39v1.172h1.171c.646 0 1.172-.526 1.172-1.172z" fill="#B4B4B4"/><path d="M17.952 3.368l-2.284 2.491h.74c.645 0 1.171.526 1.171 1.172 0 .442-.152.845-.4 1.172h6.65V2.734h-4.437c-.547 0-1.071.231-1.44.634zM13.28 12.11c-3.529 0-6.416 2.77-6.62 6.25h.781c.203-3.05 2.74-5.47 5.84-5.47 3.1 0 5.637 2.42 5.84 5.47h.78c-.203-3.48-3.09-6.25-6.62-6.25z" fill="#B4B4B4"/><path d="M13.281 13.672a5.084 5.084 0 00-5.078 5.078c0 2.8 2.278 5.078 5.078 5.078 2.8 0 5.078-2.278 5.078-5.078 0-2.8-2.278-5.078-5.078-5.078zm0 9.375a4.302 4.302 0 01-4.297-4.297 4.302 4.302 0 014.297-4.297 4.302 4.302 0 014.297 4.297 4.302 4.302 0 01-4.297 4.297z" fill="#B4B4B4"/></svg>