<svg width="31" height="20" viewBox="0 0 31 20" fill="none" xmlns="http://www.w3.org/2000/svg"><path d="M28.663 6.385c-.021-.023-.038-.047-.063-.07l-1.07-1.033c.887-.201 1.844-.945 1.844-1.709 0-.889-1.235-1.205-2.288-1.205-1.101 0-1.23.755-1.242 1.288L23.08.993C22.52.437 21.455 0 20.66 0H9.896C9.1 0 8.036.437 7.475.993L4.713 3.656c-.015-.533-.142-1.288-1.243-1.288-1.054 0-2.288.316-2.288 1.205 0 .764.957 1.508 1.845 1.709l-1.07 1.033c-.025.023-.042.047-.063.07C.748 7.365 0 9.18 0 10.498v3.916c0 .95.375 1.813.98 2.455v1.519c0 .888.744 1.612 1.658 1.612h2.004c.915 0 1.657-.723 1.657-1.612v-.389h17.958v.389c0 .89.742 1.612 1.657 1.612h2.004c.915 0 1.657-.724 1.657-1.612v-1.519c.606-.642.98-1.505.98-2.455v-3.916c.002-1.318-.747-3.134-1.892-4.113zM8.489 2.176c.389-.323 1.068-.569 1.407-.569H20.66c.338 0 1.018.246 1.406.57l3.623 3.51H4.868l3.621-3.51zm-7.246 7.73c0-.965.754-1.747 1.686-1.747.931 0 3.974 1.786 3.974 2.75s-3.043.74-3.974.74c-.932 0-1.686-.779-1.686-1.743zM6.3 16.283h-.642l-1.906.003c-.528-.165-.901-.357-1.165-.563a1.652 1.652 0 01-.316-.32 1.275 1.275 0 01-.177-.325c-.237-.67.253-1.285.253-1.285h3.251l2.168 2.488-1.466.002zm13.654 0h-9.351a1.767 1.767 0 01-1.766-1.765h12.882c0 .976-.79 1.766-1.765 1.766zm.41-2.97H10.193c-1.06 0-1.921-1.306-1.921-2.919h14.013c0 1.613-.86 2.92-1.921 2.92zm8.1 1.767a1.263 1.263 0 01-.179.323 1.602 1.602 0 01-.315.32c-.263.207-.637.4-1.166.563l-1.905-.003h-2.11l2.17-2.488h3.25s.49.614.254 1.285zm-.837-3.43c-.93 0-3.973.222-3.973-.741s3.043-2.75 3.973-2.75c.932 0 1.687.782 1.687 1.747 0 .963-.755 1.744-1.687 1.744z" fill="#B4B4B4"/></svg>