<svg width="24" height="24" viewBox="0 0 24 24" fill="none" xmlns="http://www.w3.org/2000/svg"><path d="M21.524 5.516a1.39 1.39 0 00-1.374-1.389V2.616c0-.203.11-.39.287-.49l1.439-.81a.703.703 0 00-.69-1.226L19.747.9a1.971 1.971 0 00-1.003 1.716v3.03h2.78v-.13zm.188 9.354h-.883v-3.66a2.797 2.797 0 01-1.406 0v3.66h-3.028a1.397 1.397 0 00-1.123-.691v2.788c.48-.028.894-.299 1.123-.69h3.028v4.307a2.291 2.291 0 002.29 2.289A2.291 2.291 0 0024 20.584V17.16a2.291 2.291 0 00-2.289-2.29zm.883 5.714a.884.884 0 01-1.765 0v-4.308h.882c.487 0 .883.396.883.883v3.425zm-2.47-10.691c.772 0 1.397-.625 1.397-1.397V7.052H18.73v1.444c0 .772.625 1.397 1.396 1.397zm-6.149 11.129H.703a.703.703 0 00-.703.703V24h14.68v-2.275a.703.703 0 00-.704-.703zM4.72 4.217h5.24v1.357H4.72V4.217zm2.205 7.159c-.492.604-.775 1.161-.775 1.53 0 .591.21.886.495 1.03v-.508c0-.378.291-.704.67-.722a.703.703 0 01.736.703v.519c.277-.147.48-.442.48-1.023 0-.584-.644-1.425-1.19-2a8.574 8.574 0 00-.416.471z" fill="#B4B4B4"/><path d="M13.865.703A.703.703 0 0013.162 0H1.52a.703.703 0 00-.704.703v18.913h13.05V.703zM8.052 15.4v.978a.716.716 0 01-.67.722.703.703 0 01-.736-.703v-.993c-1.19-.25-1.901-1.16-1.901-2.499 0-1.611 1.917-3.32 2.135-3.509a.703.703 0 01.921 0c.219.19 2.136 1.898 2.136 3.51 0 1.333-.706 2.24-1.885 2.494zm3.33-9.077a.703.703 0 01-.702.703H4.002a.703.703 0 01-.703-.703V3.516c0-.389.315-.704.703-.704h6.678c.388 0 .703.315.703.704v2.807z" fill="#B4B4B4"/></svg>