<svg width="24" height="24" viewBox="0 0 24 24" fill="none" xmlns="http://www.w3.org/2000/svg"><path d="M11.297 2.813a11.898 11.898 0 00-7.27 3.01L7.03 8.827a6.3 6.3 0 012.111-.363 6.29 6.29 0 012.156.379v-6.03zm2.729 7.961l5.68-5.182a11.893 11.893 0 00-7.003-2.78v6.752c.496.34.942.747 1.323 1.21zM0 14.792v.703h2.813v-.703a6.33 6.33 0 012.885-5.308L3.032 6.818A11.912 11.912 0 000 14.792zm20.271.703h3.73v-.703a12.08 12.08 0 00-.375-2.99l-3.355 3.693zM12 15.518c-.75 0-1.457.293-1.988.824a2.816 2.816 0 000 3.978 2.794 2.794 0 001.989.823c.75 0 1.457-.292 1.988-.823a2.816 2.816 0 000-3.978 2.794 2.794 0 00-1.988-.824zm9.008-9.211l-8.578 7.827c.964.097 1.858.52 2.552 1.214a4.2 4.2 0 011.21 2.545L24 9.297v-2.99h-2.99z" fill="#B4B4B4"/></svg>