<svg width="24" height="24" viewBox="0 0 24 24" fill="none" xmlns="http://www.w3.org/2000/svg"><path d="M12 0C5.409 0 0 5.409 0 12s5.409 12 12 12 12-5.409 12-12S18.591 0 12 0zm0 2.813c4.145 0 7.697 2.823 8.812 6.612a.697.697 0 00-.357-.382C18.518 8.147 15.44 7.078 12 7.078c-3.44 0-6.518 1.069-8.456 1.965a.697.697 0 00-.356.382C4.303 5.636 7.855 2.812 12 2.812zM2.994 13.81c.07.265.292.474.58.516l1.69.234a4.947 4.947 0 014.176 4.177l.234 1.689c.036.25.201.444.415.539-3.538-.76-6.378-3.6-7.095-7.155zm9.006.3A2.112 2.112 0 019.89 12c0-1.163.947-2.11 2.11-2.11 1.163 0 2.11.947 2.11 2.11 0 1.163-.947 2.11-2.11 2.11zm1.91 6.855a.698.698 0 00.416-.539l.234-1.69a4.947 4.947 0 014.177-4.176l1.689-.234a.703.703 0 00.58-.516c-.717 3.555-3.557 6.396-7.095 7.155z" fill="#B4B4B4"/></svg>