<svg xmlns="http://www.w3.org/2000/svg"><defs><clipPath id="clip0"><path fill="#fff" d="M0 0h24v24H0z"/></clipPath><clipPath id="clip0"><path fill="#fff" d="M0 0h28v28H0z"/></clipPath></defs><symbol id="icon-telegram" viewBox="0 0 22 20"><path d="M5.294 11.536l2.736 6.84 3.562-3.563 6.108 4.855L22 .332 0 9.496l5.294 2.04zm10.42-5.656L8.98 12.022l-.84 3.16-1.548-3.873 9.122-5.43z" fill="#EFEFEF"/></symbol><symbol id="icon-user" viewBox="0 0 24 24"><g clip-path="url(#clip0)" fill="#EFEFEF"><path d="M11.829 11.56c1.588 0 2.963-.569 4.087-1.693C17.04 8.744 17.61 7.37 17.61 5.78c0-1.588-.57-2.963-1.694-4.087C14.792.57 13.417 0 11.829 0c-1.588 0-2.963.57-4.087 1.693-1.124 1.124-1.694 2.5-1.694 4.087 0 1.589.57 2.964 1.694 4.088 1.124 1.123 2.5 1.693 4.087 1.693zm10.146 7.302a14.272 14.272 0 00-.195-1.517 11.97 11.97 0 00-.373-1.524 7.532 7.532 0 00-.627-1.422 5.366 5.366 0 00-.945-1.232 4.169 4.169 0 00-1.357-.853A4.694 4.694 0 0016.744 12c-.245 0-.482.1-.94.399-.28.183-.61.396-.978.63-.314.2-.74.389-1.266.559a5.028 5.028 0 01-1.549.25 5.033 5.033 0 01-1.549-.25c-.526-.17-.951-.358-1.265-.558-.365-.233-.694-.445-.98-.632-.457-.297-.694-.398-.94-.398-.623 0-1.206.106-1.732.314a4.164 4.164 0 00-1.358.853 5.367 5.367 0 00-.945 1.232 7.61 7.61 0 00-.627 1.422c-.15.469-.275.982-.373 1.524a14.226 14.226 0 00-.194 1.517c-.032.46-.048.936-.048 1.418 0 1.252.398 2.267 1.184 3.015.775.738 1.802 1.112 3.05 1.112H17.79c1.248 0 2.274-.374 3.05-1.112.785-.748 1.183-1.762 1.183-3.016 0-.483-.016-.96-.048-1.417z"/></g></symbol><symbol id="icon-viber" viewBox="0 0 22 22"><path d="M16.483 0H5.5C2.48 0 0 2.48 0 5.517V16.5C0 19.52 2.48 22 5.5 22h10.983A5.53 5.53 0 0022 16.483V5.517A5.53 5.53 0 0016.483 0zm-6.077 4.522c.035-.541.542-.349.803-.384 3.283.105 6.112 3.056 6.077 6.233 0 .315.104.769-.367.769-.454 0-.332-.472-.384-.786-.437-3.37-2.008-4.959-5.43-5.483-.28-.034-.716.018-.699-.349zm4.907 5.99c-.524.069-.42-.385-.472-.682-.349-2.06-1.082-2.811-3.195-3.265-.314-.07-.803-.017-.716-.489.07-.454.507-.297.838-.262 2.113.245 3.841 2.043 3.824 4.016-.035.21.105.611-.28.681zm-1.31-1.083c0 .279-.035.54-.349.576-.227.035-.367-.157-.402-.384-.087-.838-.54-1.345-1.414-1.484-.262-.035-.506-.123-.384-.472.087-.227.297-.262.524-.262.943-.017 2.025 1.083 2.025 2.026zm3.318 6.442c-.367.996-1.607 2.008-2.672 1.99-.157-.034-.454-.086-.716-.191C9.254 15.697 5.85 12.45 3.93 7.805 3.283 6.25 3.963 4.924 5.587 4.4a1.25 1.25 0 01.873 0c.699.244 2.462 2.637 2.497 3.335.035.541-.35.838-.716 1.082-.716.472-.716 1.066-.401 1.746.68 1.502 1.85 2.55 3.37 3.213.54.245 1.082.227 1.449-.332.663-.995 1.484-.942 2.374-.331.454.314.908.61 1.327.943.576.471 1.31.855.96 1.815z" fill="#EFEFEF"/></symbol><symbol id="icon-mail" viewBox="0 0 28 28"><g clip-path="url(#clip0)" fill="#656565"><path d="M25.54 3.336H2.46c-.379 0-.733.093-1.054.247L13.945 16.12l2.81-2.7.001-.001 9.838-9.837a2.432 2.432 0 00-1.055-.247zm2.214 1.407L18.496 14l9.257 9.257A2.42 2.42 0 0028 22.203V5.797c0-.379-.093-.733-.246-1.054zM.247 4.742A2.429 2.429 0 000 5.797v16.406c0 .379.093.733.246 1.054L9.504 14 .247 4.742z"/><path d="M17.336 15.16l-2.81 2.701a.817.817 0 01-1.16 0l-2.702-2.7-9.258 9.256c.321.154.676.247 1.055.247h23.078c.379 0 .733-.093 1.054-.246l-9.257-9.258z"/></g></symbol><symbol id="icon-map" viewBox="0 0 20 28"><path d="M10 0C4.486 0 0 4.187 0 9.333a8.86 8.86 0 001.2 4.436l8.253 13.93c.11.186.32.301.547.301a.633.633 0 00.547-.3l8.255-13.936A8.86 8.86 0 0020 9.334C20 4.186 15.514 0 10 0zm0 14c-2.757 0-5-2.094-5-4.667s2.243-4.666 5-4.666 5 2.093 5 4.666C15 11.906 12.757 14 10 14z" fill="#656565"/></symbol><symbol id="icon-number" viewBox="0 0 17 28"><path d="M16.863 25.82V2.175A2.176 2.176 0 0014.689 0H2.174A2.176 2.176 0 000 2.174v23.652C0 27.022.972 28 2.174 28h12.515a2.185 2.185 0 002.174-2.18zM1.4 5.04h14.055v15.913H1.4V5.039zm.774-3.64h12.515c.424 0 .772.344.772.773v1.464H1.401V2.174c0-.43.35-.773.773-.773zM1.4 25.821v-3.473h14.055v3.473a.773.773 0 01-.772.772H2.174a.773.773 0 01-.773-.772z" fill="#656565"/><path d="M2.174 1.401h12.515c.424 0 .772.344.772.773v1.464H1.401V2.174c0-.43.35-.773.773-.773zM1.401 25.82v-3.47h14.055v3.472a.773.773 0 01-.772.772H2.174a.773.773 0 01-.773-.772z" fill="#656565"/></symbol></svg>