<svg xmlns="http://www.w3.org/2000/svg" xmlns:xlink="http://www.w3.org/1999/xlink"><defs><clipPath id="clip0"><path fill="#fff" d="M0 0h24v24H0z"/></clipPath><path id="SVGID_1_" d="M0 0h28v28H0z"/></defs><symbol id="icon-telegram" viewBox="0 0 22 20"><path d="M5.294 11.536l2.736 6.84 3.562-3.563 6.108 4.855L22 .332 0 9.496l5.294 2.04zm10.42-5.656L8.98 12.022l-.84 3.16-1.548-3.873 9.122-5.43z" fill="#EFEFEF"/></symbol><symbol id="icon-user" viewBox="0 0 24 24"><g clip-path="url(#clip0)" fill="#EFEFEF"><path d="M11.829 11.56c1.588 0 2.963-.569 4.087-1.693C17.04 8.744 17.61 7.37 17.61 5.78c0-1.588-.57-2.963-1.694-4.087C14.792.57 13.417 0 11.829 0c-1.588 0-2.963.57-4.087 1.693-1.124 1.124-1.694 2.5-1.694 4.087 0 1.589.57 2.964 1.694 4.088 1.124 1.123 2.5 1.693 4.087 1.693zm10.146 7.302a14.272 14.272 0 00-.195-1.517 11.97 11.97 0 00-.373-1.524 7.532 7.532 0 00-.627-1.422 5.366 5.366 0 00-.945-1.232 4.169 4.169 0 00-1.357-.853A4.694 4.694 0 0016.744 12c-.245 0-.482.1-.94.399-.28.183-.61.396-.978.63-.314.2-.74.389-1.266.559a5.028 5.028 0 01-1.549.25 5.033 5.033 0 01-1.549-.25c-.526-.17-.951-.358-1.265-.558-.365-.233-.694-.445-.98-.632-.457-.297-.694-.398-.94-.398-.623 0-1.206.106-1.732.314a4.164 4.164 0 00-1.358.853 5.367 5.367 0 00-.945 1.232 7.61 7.61 0 00-.627 1.422c-.15.469-.275.982-.373 1.524a14.226 14.226 0 00-.194 1.517c-.032.46-.048.936-.048 1.418 0 1.252.398 2.267 1.184 3.015.775.738 1.802 1.112 3.05 1.112H17.79c1.248 0 2.274-.374 3.05-1.112.785-.748 1.183-1.762 1.183-3.016 0-.483-.016-.96-.048-1.417z"/></g></symbol><symbol id="icon-viber" viewBox="0 0 22 22"><path d="M16.483 0H5.5C2.48 0 0 2.48 0 5.517V16.5C0 19.52 2.48 22 5.5 22h10.983A5.53 5.53 0 0022 16.483V5.517A5.53 5.53 0 0016.483 0zm-6.077 4.522c.035-.541.542-.349.803-.384 3.283.105 6.112 3.056 6.077 6.233 0 .315.104.769-.367.769-.454 0-.332-.472-.384-.786-.437-3.37-2.008-4.959-5.43-5.483-.28-.034-.716.018-.699-.349zm4.907 5.99c-.524.069-.42-.385-.472-.682-.349-2.06-1.082-2.811-3.195-3.265-.314-.07-.803-.017-.716-.489.07-.454.507-.297.838-.262 2.113.245 3.841 2.043 3.824 4.016-.035.21.105.611-.28.681zm-1.31-1.083c0 .279-.035.54-.349.576-.227.035-.367-.157-.402-.384-.087-.838-.54-1.345-1.414-1.484-.262-.035-.506-.123-.384-.472.087-.227.297-.262.524-.262.943-.017 2.025 1.083 2.025 2.026zm3.318 6.442c-.367.996-1.607 2.008-2.672 1.99-.157-.034-.454-.086-.716-.191C9.254 15.697 5.85 12.45 3.93 7.805 3.283 6.25 3.963 4.924 5.587 4.4a1.25 1.25 0 01.873 0c.699.244 2.462 2.637 2.497 3.335.035.541-.35.838-.716 1.082-.716.472-.716 1.066-.401 1.746.68 1.502 1.85 2.55 3.37 3.213.54.245 1.082.227 1.449-.332.663-.995 1.484-.942 2.374-.331.454.314.908.61 1.327.943.576.471 1.31.855.96 1.815z" fill="#EFEFEF"/></symbol><symbol id="icon-mail" viewBox="0 0 28 28"><clipPath id="SVGID_2_"><use xlink:href="#SVGID_1_" overflow="visible"/></clipPath><g clip-path="url(#SVGID_2_)" fill="#656565"><path d="M25.5 3.3h-23c-.4 0-.7.1-1.1.2L13.9 16l2.8-2.7 9.8-9.8c-.2-.1-.6-.2-1-.2zm2.3 1.4L18.5 14l9.3 9.3c.2-.3.2-.7.2-1.1V5.8c0-.4-.1-.7-.2-1.1zM.2 4.7c-.1.4-.2.7-.2 1.1v16.4c0 .4.1.7.2 1.1L9.5 14 .2 4.7z"/><path d="M17.3 15.2l-2.8 2.7c-.2.2-.4.2-.6.2-.2 0-.4-.1-.6-.2l-2.7-2.7-9.3 9.3c.3.2.7.2 1.1.2h23.1c.4 0 .7-.1 1.1-.2l-9.3-9.3z"/></g></symbol><symbol id="icon-map" viewBox="0 0 20 28"><path fill="#656565" d="M10 0C4.5 0 0 4.2 0 9.3c0 1.5.4 3.1 1.2 4.4l8.3 13.9c.1.3.3.4.5.4s.4-.1.5-.3l8.3-13.9c.8-1.4 1.2-2.9 1.2-4.4C20 4.2 15.5 0 10 0zm0 14c-2.8 0-5-2.1-5-4.7s2.2-4.7 5-4.7 5 2.1 5 4.7-2.2 4.7-5 4.7z"/></symbol><symbol id="icon-number" viewBox="0 0 17 28"><path fill="#656565" d="M16.9 25.8V2.2c0-1.2-1-2.2-2.2-2.2H2.2C1 0 0 1 0 2.2v23.7C0 27 1 28 2.2 28h12.5c1.2 0 2.2-1 2.2-2.2zM1.4 5h14.1v16H1.4V5zm.8-3.6h12.5c.4 0 .8.3.8.8v1.5H1.4V2.2c0-.5.4-.8.8-.8zm-.8 24.4v-3.5h14.1v3.5c0 .4-.3.8-.8.8H2.2c-.4 0-.8-.4-.8-.8z"/><path fill="#656565" d="M2.2 1.4h12.5c.4 0 .8.3.8.8v1.5H1.4V2.2c0-.5.4-.8.8-.8zm-.8 24.4v-3.5h14.1v3.5c0 .4-.3.8-.8.8H2.2c-.4 0-.8-.4-.8-.8z"/></symbol></svg>